M48
;DRILL file {KiCad no-vcs-found-3e71ed2~61~ubuntu16.04.1} date Sun Nov 26 16:57:00 2017
;FORMAT={-:-/ absolute / inch / decimal}
FMAT,2
INCH,TZ
T1C0.024
T2C0.031
T3C0.035
T4C0.039
T5C0.047
%
G90
G05
M72
T1
X7.7Y-2.5
X7.7Y-3.4
X7.75Y-3.35
X7.75Y-3.45
X7.7Y-5.1
X7.75Y-5.05
X7.75Y-5.15
X7.7Y-4.25
X7.75Y-4.2
X7.75Y-4.3
X7.7Y-1.65
X7.75Y-1.6
X7.75Y-1.7
X7.75Y-2.45
X7.75Y-2.55
T2
X3.9516Y-4.2094
X4.1484Y-4.2094
X3.9516Y-1.75
X4.1484Y-1.75
X4.8675Y-2.3491
X4.8675Y-2.4491
X4.8675Y-2.5491
X4.8675Y-2.6491
X4.8675Y-2.7491
X4.8675Y-2.8491
X4.8675Y-2.9491
X4.8675Y-3.0491
X4.8675Y-3.1491
X4.8675Y-3.2491
X4.8675Y-3.3491
X4.8675Y-3.4491
X4.8675Y-3.5491
X4.8675Y-3.6491
X4.8675Y-3.7491
X4.8675Y-3.8491
X4.8675Y-3.9491
X4.8675Y-4.0491
X4.8675Y-4.1491
X4.8675Y-4.2491
X4.8675Y-4.3491
X4.8675Y-4.4491
X4.8675Y-4.5491
X4.8675Y-4.6491
X4.8675Y-4.7491
X4.8675Y-4.8491
X4.8675Y-4.9491
X4.8675Y-5.0491
X6.6675Y-2.3491
X6.6675Y-2.4491
X6.6675Y-2.5491
X6.6675Y-2.6491
X6.6675Y-2.7491
X6.6675Y-2.8491
X6.6675Y-2.9491
X6.6675Y-3.0491
X6.6675Y-3.1491
X6.6675Y-3.2491
X6.6675Y-3.3491
X6.6675Y-3.4491
X6.6675Y-3.5491
X6.6675Y-3.6491
X6.6675Y-3.7491
X6.6675Y-3.8491
X6.6675Y-3.9491
X6.6675Y-4.0491
X6.6675Y-4.1491
X6.6675Y-4.2491
X6.6675Y-4.3491
X6.6675Y-4.4491
X6.6675Y-4.5491
X6.6675Y-4.6491
X6.6675Y-4.7491
X6.6675Y-4.8491
X6.6675Y-4.9491
X6.6675Y-5.0491
X7.2016Y-5.05
X7.3984Y-5.05
X7.2016Y-4.2
X7.3984Y-4.2
X3.9516Y-2.5686
X4.1484Y-2.5686
X7.1516Y-2.45
X7.3484Y-2.45
X3.9516Y-3.3871
X4.1484Y-3.3871
X3.9516Y-5.0243
X4.1484Y-5.0243
X7.2016Y-3.35
X7.3984Y-3.35
X7.2016Y-1.6
X7.3984Y-1.6
X6.2016Y-5.05
X6.3984Y-5.05
X5.8016Y-5.05
X5.9984Y-5.05
T3
X7.2Y-2.6
X7.2Y-3.
X7.2Y-4.4
X7.2Y-4.8
X7.2Y-3.5
X7.2Y-3.9
X6.Y-5.2
X6.4Y-5.2
X7.2Y-5.25
X7.2Y-5.65
X7.2Y-1.8
X7.2Y-2.2
T4
X6.05Y-5.5
X6.05Y-5.6
X6.15Y-5.5
X6.15Y-5.6
X6.25Y-5.5
X6.25Y-5.6
X6.35Y-5.5
X6.35Y-5.6
X4.9Y-5.8
X5.Y-5.8
X5.1Y-5.8
T5
X7.7549Y-3.7312
X7.7549Y-3.869
X7.7549Y-2.0124
X7.7549Y-2.1502
X7.7549Y-5.45
X7.7549Y-5.5878
X7.7549Y-4.5906
X7.7549Y-4.7284
X4.15Y-5.3
X4.15Y-5.4378
X4.15Y-5.5756
X4.15Y-2.0257
X4.15Y-2.1635
X4.15Y-2.3013
X4.15Y-4.4814
X4.15Y-4.6192
X4.15Y-4.757
X7.7549Y-2.8718
X7.7549Y-3.0096
X4.15Y-2.8443
X4.15Y-2.9821
X4.15Y-3.1199
X4.15Y-3.6629
X4.15Y-3.8007
X4.15Y-3.9385
T0
M30
