%TF.GenerationSoftware,KiCad,Pcbnew,no-vcs-found-3e71ed2~61~ubuntu16.04.1*%
%TF.CreationDate,2017-11-26T16:56:58+01:00*%
%TF.ProjectId,podlewaczka,706F646C657761637A6B612E6B696361,rev?*%
%TF.SameCoordinates,Original*%
%TF.FileFunction,Copper,L2,Bot,Signal*%
%TF.FilePolarity,Positive*%
%FSLAX46Y46*%
G04 Gerber Fmt 4.6, Leading zero omitted, Abs format (unit mm)*
G04 Created by KiCad (PCBNEW no-vcs-found-3e71ed2~61~ubuntu16.04.1) date Sun Nov 26 16:56:58 2017*
%MOMM*%
%LPD*%
G01*
G04 APERTURE LIST*
%TA.AperFunction,ComponentPad*%
%ADD10C,1.500000*%
%TD*%
%TA.AperFunction,ComponentPad*%
%ADD11O,3.600000X1.800000*%
%TD*%
%TA.AperFunction,ComponentPad*%
%ADD12R,3.600000X1.800000*%
%TD*%
%TA.AperFunction,ComponentPad*%
%ADD13O,1.700000X1.700000*%
%TD*%
%TA.AperFunction,ComponentPad*%
%ADD14R,1.700000X1.700000*%
%TD*%
%TA.AperFunction,ComponentPad*%
%ADD15C,1.600000*%
%TD*%
%TA.AperFunction,ComponentPad*%
%ADD16R,1.000000X1.000000*%
%TD*%
%TA.AperFunction,ComponentPad*%
%ADD17C,1.000000*%
%TD*%
%TA.AperFunction,Conductor*%
%ADD18C,0.400000*%
%TD*%
%TA.AperFunction,Conductor*%
%ADD19C,0.250000*%
%TD*%
%TA.AperFunction,Conductor*%
%ADD20C,0.254000*%
%TD*%
G04 APERTURE END LIST*
D10*
%TO.P,C1,2*%
%TO.N,+3V3*%
X105370000Y-65241666D03*
%TO.P,C1,1*%
%TO.N,GND*%
X100370000Y-65241666D03*
%TD*%
%TO.P,C2,1*%
%TO.N,GND*%
X100370000Y-106919498D03*
%TO.P,C2,2*%
%TO.N,+3V3*%
X105370000Y-106919498D03*
%TD*%
%TO.P,C3,2*%
%TO.N,+3V3*%
X105370000Y-44450000D03*
%TO.P,C3,1*%
%TO.N,GND*%
X100370000Y-44450000D03*
%TD*%
%TO.P,C4,1*%
%TO.N,GND*%
X100370000Y-86033332D03*
%TO.P,C4,2*%
%TO.N,+3V3*%
X105370000Y-86033332D03*
%TD*%
%TO.P,C5,2*%
%TO.N,+3V3*%
X105370000Y-127616664D03*
%TO.P,C5,1*%
%TO.N,GND*%
X100370000Y-127616664D03*
%TD*%
%TO.P,C8,1*%
%TO.N,GND*%
X182920000Y-40640000D03*
%TO.P,C8,2*%
%TO.N,+5V*%
X187920000Y-40640000D03*
%TD*%
%TO.P,C9,2*%
%TO.N,+5V*%
X187920000Y-85090000D03*
%TO.P,C9,1*%
%TO.N,GND*%
X182920000Y-85090000D03*
%TD*%
%TO.P,C10,1*%
%TO.N,GND*%
X182920000Y-128270000D03*
%TO.P,C10,2*%
%TO.N,+5V*%
X187920000Y-128270000D03*
%TD*%
%TO.P,C11,2*%
%TO.N,+3V3*%
X152360000Y-128270000D03*
%TO.P,C11,1*%
%TO.N,GND*%
X147360000Y-128270000D03*
%TD*%
%TO.P,C12,1*%
%TO.N,GND*%
X157520000Y-128270000D03*
%TO.P,C12,2*%
%TO.N,Net-(C12-Pad2)*%
X162520000Y-128270000D03*
%TD*%
%TO.P,C13,2*%
%TO.N,+5V*%
X186650000Y-62230000D03*
%TO.P,C13,1*%
%TO.N,GND*%
X181650000Y-62230000D03*
%TD*%
%TO.P,C14,1*%
%TO.N,GND*%
X182920000Y-106680000D03*
%TO.P,C14,2*%
%TO.N,+5V*%
X187920000Y-106680000D03*
%TD*%
D11*
%TO.P,J8,2*%
%TO.N,GND*%
X196975000Y-54614444D03*
D12*
%TO.P,J8,1*%
%TO.N,Net-(J8-Pad1)*%
X196975000Y-51114444D03*
%TD*%
%TO.P,J9,1*%
%TO.N,Net-(J9-Pad1)*%
X196975000Y-94772220D03*
D11*
%TO.P,J9,2*%
%TO.N,GND*%
X196975000Y-98272220D03*
%TD*%
%TO.P,J11,2*%
%TO.N,GND*%
X196975000Y-76443332D03*
D12*
%TO.P,J11,1*%
%TO.N,Net-(J11-Pad1)*%
X196975000Y-72943332D03*
%TD*%
%TO.P,J12,1*%
%TO.N,Net-(J12-Pad1)*%
X196975000Y-116601108D03*
D11*
%TO.P,J12,2*%
%TO.N,GND*%
X196975000Y-120101108D03*
%TD*%
%TO.P,J10,2*%
%TO.N,GND*%
X196975000Y-141929996D03*
D12*
%TO.P,J10,1*%
%TO.N,Net-(J10-Pad1)*%
X196975000Y-138429996D03*
%TD*%
D11*
%TO.P,J5,3*%
%TO.N,GND*%
X105410000Y-141619997D03*
%TO.P,J5,2*%
%TO.N,Net-(J5-Pad2)*%
X105410000Y-138119997D03*
D12*
%TO.P,J5,1*%
%TO.N,+3V3*%
X105410000Y-134619997D03*
%TD*%
%TO.P,J3,1*%
%TO.N,+3V3*%
X105410000Y-51453333D03*
D11*
%TO.P,J3,2*%
%TO.N,Net-(J3-Pad2)*%
X105410000Y-54953333D03*
%TO.P,J3,3*%
%TO.N,GND*%
X105410000Y-58453333D03*
%TD*%
%TO.P,J4,3*%
%TO.N,GND*%
X105410000Y-100036665D03*
%TO.P,J4,2*%
%TO.N,Net-(J4-Pad2)*%
X105410000Y-96536665D03*
D12*
%TO.P,J4,1*%
%TO.N,+3V3*%
X105410000Y-93036665D03*
%TD*%
%TO.P,J1,1*%
%TO.N,+3V3*%
X105410000Y-72244999D03*
D11*
%TO.P,J1,2*%
%TO.N,Net-(J1-Pad2)*%
X105410000Y-75744999D03*
%TO.P,J1,3*%
%TO.N,GND*%
X105410000Y-79244999D03*
%TD*%
%TO.P,J2,3*%
%TO.N,GND*%
X105410000Y-120828331D03*
%TO.P,J2,2*%
%TO.N,Net-(J2-Pad2)*%
X105410000Y-117328331D03*
D12*
%TO.P,J2,1*%
%TO.N,+3V3*%
X105410000Y-113828331D03*
%TD*%
D13*
%TO.P,U2,8*%
%TO.N,Net-(J7-Pad7B)*%
X153670000Y-142240000D03*
%TO.P,U2,7*%
%TO.N,GND*%
X153670000Y-139700000D03*
%TO.P,U2,6*%
%TO.N,Net-(C12-Pad2)*%
X156210000Y-142240000D03*
%TO.P,U2,5*%
%TO.N,Net-(U2-Pad5)*%
X156210000Y-139700000D03*
%TO.P,U2,4*%
%TO.N,+3V3*%
X158750000Y-142240000D03*
%TO.P,U2,3*%
%TO.N,Net-(U2-Pad3)*%
X158750000Y-139700000D03*
%TO.P,U2,2*%
%TO.N,+3V3*%
X161290000Y-142240000D03*
D14*
%TO.P,U2,1*%
%TO.N,Net-(J7-Pad8B)*%
X161290000Y-139700000D03*
%TD*%
D13*
%TO.P,J6,3*%
%TO.N,Net-(J6-Pad3)*%
X124460000Y-147320000D03*
%TO.P,J6,2*%
%TO.N,GND*%
X127000000Y-147320000D03*
D14*
%TO.P,J6,1*%
%TO.N,Net-(J6-Pad1)*%
X129540000Y-147320000D03*
%TD*%
D15*
%TO.P,R6,1*%
%TO.N,Net-(C12-Pad2)*%
X162560000Y-132080000D03*
%TO.P,R6,2*%
%TO.N,+3V3*%
X152400000Y-132080000D03*
%TD*%
%TO.P,R4,2*%
%TO.N,Net-(J7-Pad20B)*%
X182880000Y-76200000D03*
%TO.P,R4,1*%
%TO.N,Net-(Q4-Pad2)*%
X182880000Y-66040000D03*
%TD*%
%TO.P,R3,1*%
%TO.N,Net-(Q3-Pad2)*%
X182880000Y-133350000D03*
%TO.P,R3,2*%
%TO.N,Net-(J7-Pad23B)*%
X182880000Y-143510000D03*
%TD*%
%TO.P,R2,2*%
%TO.N,Net-(J7-Pad21B)*%
X182880000Y-99060000D03*
%TO.P,R2,1*%
%TO.N,Net-(Q2-Pad2)*%
X182880000Y-88900000D03*
%TD*%
%TO.P,R1,1*%
%TO.N,Net-(Q1-Pad2)*%
X182880000Y-45720000D03*
%TO.P,R1,2*%
%TO.N,Net-(J7-Pad19B)*%
X182880000Y-55880000D03*
%TD*%
%TO.P,R5,2*%
%TO.N,Net-(J7-Pad22B)*%
X182880000Y-121920000D03*
%TO.P,R5,1*%
%TO.N,Net-(Q5-Pad2)*%
X182880000Y-111760000D03*
%TD*%
D16*
%TO.P,Q1,1*%
%TO.N,Net-(J8-Pad1)*%
X196850000Y-43180000D03*
D17*
%TO.P,Q1,3*%
%TO.N,+5V*%
X196850000Y-40640000D03*
%TO.P,Q1,2*%
%TO.N,Net-(Q1-Pad2)*%
X195580000Y-41910000D03*
%TD*%
%TO.P,Q2,2*%
%TO.N,Net-(Q2-Pad2)*%
X195580000Y-86360000D03*
%TO.P,Q2,3*%
%TO.N,+5V*%
X196850000Y-85090000D03*
D16*
%TO.P,Q2,1*%
%TO.N,Net-(J9-Pad1)*%
X196850000Y-87630000D03*
%TD*%
%TO.P,Q3,1*%
%TO.N,Net-(J10-Pad1)*%
X196850000Y-130810000D03*
D17*
%TO.P,Q3,3*%
%TO.N,+5V*%
X196850000Y-128270000D03*
%TO.P,Q3,2*%
%TO.N,Net-(Q3-Pad2)*%
X195580000Y-129540000D03*
%TD*%
%TO.P,Q4,2*%
%TO.N,Net-(Q4-Pad2)*%
X195580000Y-63500000D03*
%TO.P,Q4,3*%
%TO.N,+5V*%
X196850000Y-62230000D03*
D16*
%TO.P,Q4,1*%
%TO.N,Net-(J11-Pad1)*%
X196850000Y-64770000D03*
%TD*%
%TO.P,Q5,1*%
%TO.N,Net-(J12-Pad1)*%
X196850000Y-109220000D03*
D17*
%TO.P,Q5,3*%
%TO.N,+5V*%
X196850000Y-106680000D03*
%TO.P,Q5,2*%
%TO.N,Net-(Q5-Pad2)*%
X195580000Y-107950000D03*
%TD*%
D10*
%TO.P,J7,1A*%
%TO.N,+3V3*%
X123635001Y-59667500D03*
%TO.P,J7,2A*%
%TO.N,GND*%
X123635001Y-62207500D03*
%TO.P,J7,3A*%
%TO.N,Net-(J7-Pad3A)*%
X123635001Y-64747500D03*
%TO.P,J7,4A*%
%TO.N,Net-(J7-Pad4A)*%
X123635001Y-67287500D03*
%TO.P,J7,5A*%
%TO.N,Net-(J7-Pad5A)*%
X123635001Y-69827500D03*
%TO.P,J7,6A*%
%TO.N,Net-(J7-Pad6A)*%
X123635001Y-72367500D03*
%TO.P,J7,7A*%
%TO.N,Net-(J7-Pad7A)*%
X123635001Y-74907500D03*
%TO.P,J7,8A*%
%TO.N,Net-(J7-Pad8A)*%
X123635001Y-77447500D03*
%TO.P,J7,9A*%
%TO.N,GND*%
X123635001Y-79987500D03*
%TO.P,J7,10A*%
%TO.N,Net-(J7-Pad10A)*%
X123635001Y-82527500D03*
%TO.P,J7,11A*%
%TO.N,Net-(J3-Pad2)*%
X123635001Y-85067500D03*
%TO.P,J7,12A*%
%TO.N,Net-(J1-Pad2)*%
X123635001Y-87607500D03*
%TO.P,J7,13A*%
%TO.N,Net-(J4-Pad2)*%
X123635001Y-90147500D03*
%TO.P,J7,14A*%
%TO.N,Net-(J2-Pad2)*%
X123635001Y-92687500D03*
%TO.P,J7,15A*%
%TO.N,Net-(J7-Pad15A)*%
X123635001Y-95227500D03*
%TO.P,J7,16A*%
%TO.N,Net-(J7-Pad16A)*%
X123635001Y-97767500D03*
%TO.P,J7,17A*%
%TO.N,Net-(J6-Pad1)*%
X123635001Y-100307500D03*
%TO.P,J7,18A*%
%TO.N,Net-(J6-Pad3)*%
X123635001Y-102847500D03*
%TO.P,J7,19A*%
%TO.N,Net-(J7-Pad19A)*%
X123635001Y-105387500D03*
%TO.P,J7,20A*%
%TO.N,Net-(J5-Pad2)*%
X123635001Y-107927500D03*
%TO.P,J7,21A*%
%TO.N,Net-(J7-Pad21A)*%
X123635001Y-110467500D03*
%TO.P,J7,22A*%
%TO.N,Net-(J7-Pad22A)*%
X123635001Y-113007500D03*
%TO.P,J7,23A*%
%TO.N,Net-(J7-Pad23A)*%
X123635001Y-115547500D03*
%TO.P,J7,24A*%
%TO.N,Net-(J7-Pad24A)*%
X123635001Y-118087500D03*
%TO.P,J7,25A*%
%TO.N,Net-(J7-Pad25A)*%
X123635001Y-120627500D03*
%TO.P,J7,26A*%
%TO.N,Net-(J7-Pad26A)*%
X123635001Y-123167500D03*
%TO.P,J7,27A*%
%TO.N,Net-(J7-Pad27A)*%
X123635001Y-125707500D03*
%TO.P,J7,28A*%
%TO.N,GND*%
X123635001Y-128247500D03*
%TO.P,J7,1B*%
%TO.N,+5V*%
X169355001Y-59667500D03*
%TO.P,J7,2B*%
%TO.N,GND*%
X169355001Y-62207500D03*
%TO.P,J7,3B*%
%TO.N,Net-(J7-Pad3B)*%
X169355001Y-64747500D03*
%TO.P,J7,4B*%
%TO.N,Net-(J7-Pad4B)*%
X169355001Y-67287500D03*
%TO.P,J7,5B*%
%TO.N,Net-(J7-Pad5B)*%
X169355001Y-69827500D03*
%TO.P,J7,6B*%
%TO.N,Net-(J7-Pad6B)*%
X169355001Y-72367500D03*
%TO.P,J7,7B*%
%TO.N,Net-(J7-Pad7B)*%
X169355001Y-74907500D03*
%TO.P,J7,8B*%
%TO.N,Net-(J7-Pad8B)*%
X169355001Y-77447500D03*
%TO.P,J7,9B*%
%TO.N,Net-(J7-Pad9B)*%
X169355001Y-79987500D03*
%TO.P,J7,10B*%
%TO.N,Net-(J7-Pad10B)*%
X169355001Y-82527500D03*
%TO.P,J7,11B*%
%TO.N,Net-(J7-Pad11B)*%
X169355001Y-85067500D03*
%TO.P,J7,12B*%
%TO.N,Net-(J7-Pad12B)*%
X169355001Y-87607500D03*
%TO.P,J7,13B*%
%TO.N,Net-(J7-Pad13B)*%
X169355001Y-90147500D03*
%TO.P,J7,14B*%
%TO.N,Net-(J7-Pad14B)*%
X169355001Y-92687500D03*
%TO.P,J7,15B*%
%TO.N,Net-(J7-Pad15B)*%
X169355001Y-95227500D03*
%TO.P,J7,16B*%
%TO.N,Net-(J7-Pad16B)*%
X169355001Y-97767500D03*
%TO.P,J7,17B*%
%TO.N,Net-(J7-Pad17B)*%
X169355001Y-100307500D03*
%TO.P,J7,18B*%
%TO.N,Net-(J7-Pad18B)*%
X169355001Y-102847500D03*
%TO.P,J7,19B*%
%TO.N,Net-(J7-Pad19B)*%
X169355001Y-105387500D03*
%TO.P,J7,20B*%
%TO.N,Net-(J7-Pad20B)*%
X169355001Y-107927500D03*
%TO.P,J7,21B*%
%TO.N,Net-(J7-Pad21B)*%
X169355001Y-110467500D03*
%TO.P,J7,22B*%
%TO.N,Net-(J7-Pad22B)*%
X169355001Y-113007500D03*
%TO.P,J7,23B*%
%TO.N,Net-(J7-Pad23B)*%
X169355001Y-115547500D03*
%TO.P,J7,24B*%
%TO.N,Net-(J7-Pad24B)*%
X169355001Y-118087500D03*
%TO.P,J7,25B*%
%TO.N,Net-(J7-Pad25B)*%
X169355001Y-120627500D03*
%TO.P,J7,26B*%
%TO.N,Net-(J7-Pad26B)*%
X169355001Y-123167500D03*
%TO.P,J7,27B*%
%TO.N,Net-(J7-Pad27B)*%
X169355001Y-125707500D03*
%TO.P,J7,28B*%
%TO.N,GND*%
X169355001Y-128247500D03*
%TD*%
D18*
%TO.N,Net-(J3-Pad2)*%
X105410000Y-54953333D02*
X106310000Y-54953333D01*
X106310000Y-54953333D02*
X120650000Y-69293333D01*
X120650000Y-69293333D02*
X120650000Y-83820000D01*
X120650000Y-83820000D02*
X121897500Y-85067500D01*
X121897500Y-85067500D02*
X123635001Y-85067500D01*
%TO.N,Net-(J1-Pad2)*%
X105410000Y-75744999D02*
X108764999Y-75744999D01*
X108764999Y-75744999D02*
X120627500Y-87607500D01*
X120627500Y-87607500D02*
X123635001Y-87607500D01*
%TO.N,Net-(J4-Pad2)*%
X105410000Y-96536665D02*
X114283335Y-96536665D01*
X120672500Y-90147500D02*
X123635001Y-90147500D01*
X114283335Y-96536665D02*
X120672500Y-90147500D01*
%TO.N,Net-(J2-Pad2)*%
X105410000Y-117328331D02*
X107610000Y-117328331D01*
X107610000Y-117328331D02*
X120650000Y-104288331D01*
X120650000Y-93980000D02*
X121942500Y-92687500D01*
X120650000Y-104288331D02*
X120650000Y-93980000D01*
X121942500Y-92687500D02*
X123635001Y-92687500D01*
%TO.N,Net-(J6-Pad1)*%
X129540000Y-147320000D02*
X129540000Y-102870000D01*
X129540000Y-102870000D02*
X126977500Y-100307500D01*
X126977500Y-100307500D02*
X123635001Y-100307500D01*
%TO.N,Net-(J6-Pad3)*%
X124460000Y-147320000D02*
X124460000Y-144780000D01*
X124460000Y-144780000D02*
X127000000Y-142240000D01*
X123657501Y-102870000D02*
X123635001Y-102847500D01*
X127000000Y-142240000D02*
X127000000Y-104140000D01*
X127000000Y-104140000D02*
X125730000Y-102870000D01*
X125730000Y-102870000D02*
X123657501Y-102870000D01*
%TO.N,Net-(J5-Pad2)*%
X105410000Y-138119997D02*
X106310000Y-138119997D01*
X106310000Y-138119997D02*
X120650000Y-123779997D01*
X120650000Y-123779997D02*
X120650000Y-109220000D01*
X120650000Y-109220000D02*
X121942500Y-107927500D01*
X121942500Y-107927500D02*
X123635001Y-107927500D01*
D19*
%TO.N,Net-(J7-Pad7B)*%
X153670000Y-142240000D02*
X151130000Y-139700000D01*
X151130000Y-139700000D02*
X151130000Y-138430000D01*
X154940000Y-134620000D02*
X154940000Y-81280000D01*
X151130000Y-138430000D02*
X154940000Y-134620000D01*
X154940000Y-81280000D02*
X161312500Y-74907500D01*
X161312500Y-74907500D02*
X169355001Y-74907500D01*
%TO.N,Net-(J7-Pad8B)*%
X161290000Y-139700000D02*
X161290000Y-135890000D01*
X161290000Y-135890000D02*
X160020000Y-134620000D01*
X160020000Y-134620000D02*
X160020000Y-85090000D01*
X160020000Y-85090000D02*
X167662500Y-77447500D01*
X167662500Y-77447500D02*
X169355001Y-77447500D01*
%TO.N,Net-(J7-Pad19B)*%
X182880000Y-55880000D02*
X172720000Y-66040000D01*
X172720000Y-66040000D02*
X172720000Y-104140000D01*
X172720000Y-104140000D02*
X171472500Y-105387500D01*
X171472500Y-105387500D02*
X169355001Y-105387500D01*
%TO.N,Net-(J7-Pad20B)*%
X182880000Y-76200000D02*
X180340000Y-78740000D01*
X180340000Y-78740000D02*
X180340000Y-99060000D01*
X180340000Y-99060000D02*
X171450000Y-107950000D01*
X171450000Y-107950000D02*
X169377501Y-107950000D01*
X169377501Y-107950000D02*
X169355001Y-107927500D01*
%TO.N,Net-(J7-Pad21B)*%
X182880000Y-99060000D02*
X182880000Y-100330000D01*
X182880000Y-100330000D02*
X172742500Y-110467500D01*
X172742500Y-110467500D02*
X169355001Y-110467500D01*
%TO.N,Net-(J7-Pad22B)*%
X169355001Y-113007500D02*
X173967500Y-113007500D01*
X173967500Y-113007500D02*
X182880000Y-121920000D01*
%TO.N,Net-(J7-Pad23B)*%
X172720000Y-116840000D02*
X172720000Y-133350000D01*
X172720000Y-133350000D02*
X182880000Y-143510000D01*
X171427500Y-115547500D02*
X172720000Y-116840000D01*
X169355001Y-115547500D02*
X171427500Y-115547500D01*
%TO.N,Net-(J12-Pad1)*%
X196850000Y-109220000D02*
X196850000Y-116476108D01*
X196850000Y-116476108D02*
X196975000Y-116601108D01*
%TO.N,Net-(Q5-Pad2)*%
X195580000Y-107950000D02*
X191770000Y-111760000D01*
X191770000Y-111760000D02*
X182880000Y-111760000D01*
%TO.N,Net-(Q4-Pad2)*%
X182880000Y-66040000D02*
X193040000Y-66040000D01*
X193040000Y-66040000D02*
X195580000Y-63500000D01*
%TO.N,Net-(J11-Pad1)*%
X196850000Y-64770000D02*
X196850000Y-72818332D01*
X196850000Y-72818332D02*
X196975000Y-72943332D01*
%TO.N,Net-(J10-Pad1)*%
X196850000Y-130810000D02*
X196850000Y-138304996D01*
X196850000Y-138304996D02*
X196975000Y-138429996D01*
%TO.N,Net-(Q3-Pad2)*%
X195580000Y-129540000D02*
X191770000Y-133350000D01*
X191770000Y-133350000D02*
X182880000Y-133350000D01*
%TO.N,Net-(Q2-Pad2)*%
X194310000Y-86360000D02*
X191770000Y-88900000D01*
X191770000Y-88900000D02*
X182880000Y-88900000D01*
X195580000Y-86360000D02*
X194310000Y-86360000D01*
%TO.N,Net-(J9-Pad1)*%
X196850000Y-87630000D02*
X196850000Y-94647220D01*
X196850000Y-94647220D02*
X196975000Y-94772220D01*
%TO.N,Net-(J8-Pad1)*%
X196850000Y-43180000D02*
X196850000Y-50989444D01*
X196850000Y-50989444D02*
X196975000Y-51114444D01*
%TO.N,Net-(Q1-Pad2)*%
X182880000Y-45720000D02*
X189230000Y-45720000D01*
X193040000Y-41910000D02*
X195580000Y-41910000D01*
X189230000Y-45720000D02*
X193040000Y-41910000D01*
%TO.N,Net-(C12-Pad2)*%
X162560000Y-132080000D02*
X166370000Y-135890000D01*
X163830000Y-144780000D02*
X157480000Y-144780000D01*
X166370000Y-135890000D02*
X166370000Y-142240000D01*
X166370000Y-142240000D02*
X163830000Y-144780000D01*
X157480000Y-144780000D02*
X156210000Y-143510000D01*
X156210000Y-143510000D02*
X156210000Y-142240000D01*
X162560000Y-132080000D02*
X162560000Y-128310000D01*
X162560000Y-128310000D02*
X162520000Y-128270000D01*
%TD*%
D20*
%TO.N,GND*%
G36*
X205613000Y-151003000D02*
X94107000Y-151003000D01*
X94107000Y-141984737D01*
X103018964Y-141984737D01*
X103043244Y-142090083D01*
X103334788Y-142615603D01*
X103805248Y-142989551D01*
X104383000Y-143154997D01*
X105283000Y-143154997D01*
X105283000Y-141746997D01*
X105537000Y-141746997D01*
X105537000Y-143154997D01*
X106437000Y-143154997D01*
X107014752Y-142989551D01*
X107485212Y-142615603D01*
X107776756Y-142090083D01*
X107801036Y-141984737D01*
X107680378Y-141746997D01*
X105537000Y-141746997D01*
X105283000Y-141746997D01*
X103139622Y-141746997D01*
X103018964Y-141984737D01*
X94107000Y-141984737D01*
X94107000Y-141255257D01*
X103018964Y-141255257D01*
X103139622Y-141492997D01*
X105283000Y-141492997D01*
X105283000Y-140084997D01*
X105537000Y-140084997D01*
X105537000Y-141492997D01*
X107680378Y-141492997D01*
X107801036Y-141255257D01*
X107776756Y-141149911D01*
X107485212Y-140624391D01*
X107014752Y-140250443D01*
X106437000Y-140084997D01*
X105537000Y-140084997D01*
X105283000Y-140084997D01*
X104383000Y-140084997D01*
X103805248Y-140250443D01*
X103334788Y-140624391D01*
X103043244Y-141149911D01*
X103018964Y-141255257D01*
X94107000Y-141255257D01*
X94107000Y-128588181D01*
X99578088Y-128588181D01*
X99646077Y-128829124D01*
X100165171Y-129013865D01*
X100715448Y-128985894D01*
X101093923Y-128829124D01*
X101161912Y-128588181D01*
X100370000Y-127796269D01*
X99578088Y-128588181D01*
X94107000Y-128588181D01*
X94107000Y-127411835D01*
X98972799Y-127411835D01*
X99000770Y-127962112D01*
X99157540Y-128340587D01*
X99398483Y-128408576D01*
X100190395Y-127616664D01*
X100549605Y-127616664D01*
X101341517Y-128408576D01*
X101582460Y-128340587D01*
X101742482Y-127890949D01*
X103984760Y-127890949D01*
X104195169Y-128400179D01*
X104584436Y-128790125D01*
X105093298Y-129001423D01*
X105644285Y-129001904D01*
X106153515Y-128791495D01*
X106543461Y-128402228D01*
X106754759Y-127893366D01*
X106755240Y-127342379D01*
X106544831Y-126833149D01*
X106155564Y-126443203D01*
X105646702Y-126231905D01*
X105095715Y-126231424D01*
X104586485Y-126441833D01*
X104196539Y-126831100D01*
X103985241Y-127339962D01*
X103984760Y-127890949D01*
X101742482Y-127890949D01*
X101767201Y-127821493D01*
X101739230Y-127271216D01*
X101582460Y-126892741D01*
X101341517Y-126824752D01*
X100549605Y-127616664D01*
X100190395Y-127616664D01*
X99398483Y-126824752D01*
X99157540Y-126892741D01*
X98972799Y-127411835D01*
X94107000Y-127411835D01*
X94107000Y-126645147D01*
X99578088Y-126645147D01*
X100370000Y-127437059D01*
X101161912Y-126645147D01*
X101093923Y-126404204D01*
X100574829Y-126219463D01*
X100024552Y-126247434D01*
X99646077Y-126404204D01*
X99578088Y-126645147D01*
X94107000Y-126645147D01*
X94107000Y-121193071D01*
X103018964Y-121193071D01*
X103043244Y-121298417D01*
X103334788Y-121823937D01*
X103805248Y-122197885D01*
X104383000Y-122363331D01*
X105283000Y-122363331D01*
X105283000Y-120955331D01*
X105537000Y-120955331D01*
X105537000Y-122363331D01*
X106437000Y-122363331D01*
X107014752Y-122197885D01*
X107485212Y-121823937D01*
X107776756Y-121298417D01*
X107801036Y-121193071D01*
X107680378Y-120955331D01*
X105537000Y-120955331D01*
X105283000Y-120955331D01*
X103139622Y-120955331D01*
X103018964Y-121193071D01*
X94107000Y-121193071D01*
X94107000Y-120463591D01*
X103018964Y-120463591D01*
X103139622Y-120701331D01*
X105283000Y-120701331D01*
X105283000Y-119293331D01*
X105537000Y-119293331D01*
X105537000Y-120701331D01*
X107680378Y-120701331D01*
X107801036Y-120463591D01*
X107776756Y-120358245D01*
X107485212Y-119832725D01*
X107014752Y-119458777D01*
X106437000Y-119293331D01*
X105537000Y-119293331D01*
X105283000Y-119293331D01*
X104383000Y-119293331D01*
X103805248Y-119458777D01*
X103334788Y-119832725D01*
X103043244Y-120358245D01*
X103018964Y-120463591D01*
X94107000Y-120463591D01*
X94107000Y-112928331D01*
X102962560Y-112928331D01*
X102962560Y-114728331D01*
X103011843Y-114976096D01*
X103152191Y-115186140D01*
X103362235Y-115326488D01*
X103610000Y-115375771D01*
X107210000Y-115375771D01*
X107457765Y-115326488D01*
X107667809Y-115186140D01*
X107808157Y-114976096D01*
X107857440Y-114728331D01*
X107857440Y-112928331D01*
X107808157Y-112680566D01*
X107667809Y-112470522D01*
X107457765Y-112330174D01*
X107210000Y-112280891D01*
X103610000Y-112280891D01*
X103362235Y-112330174D01*
X103152191Y-112470522D01*
X103011843Y-112680566D01*
X102962560Y-112928331D01*
X94107000Y-112928331D01*
X94107000Y-107891015D01*
X99578088Y-107891015D01*
X99646077Y-108131958D01*
X100165171Y-108316699D01*
X100715448Y-108288728D01*
X101093923Y-108131958D01*
X101161912Y-107891015D01*
X100370000Y-107099103D01*
X99578088Y-107891015D01*
X94107000Y-107891015D01*
X94107000Y-106714669D01*
X98972799Y-106714669D01*
X99000770Y-107264946D01*
X99157540Y-107643421D01*
X99398483Y-107711410D01*
X100190395Y-106919498D01*
X100549605Y-106919498D01*
X101341517Y-107711410D01*
X101582460Y-107643421D01*
X101742482Y-107193783D01*
X103984760Y-107193783D01*
X104195169Y-107703013D01*
X104584436Y-108092959D01*
X105093298Y-108304257D01*
X105644285Y-108304738D01*
X106153515Y-108094329D01*
X106543461Y-107705062D01*
X106754759Y-107196200D01*
X106755240Y-106645213D01*
X106544831Y-106135983D01*
X106155564Y-105746037D01*
X105646702Y-105534739D01*
X105095715Y-105534258D01*
X104586485Y-105744667D01*
X104196539Y-106133934D01*
X103985241Y-106642796D01*
X103984760Y-107193783D01*
X101742482Y-107193783D01*
X101767201Y-107124327D01*
X101739230Y-106574050D01*
X101582460Y-106195575D01*
X101341517Y-106127586D01*
X100549605Y-106919498D01*
X100190395Y-106919498D01*
X99398483Y-106127586D01*
X99157540Y-106195575D01*
X98972799Y-106714669D01*
X94107000Y-106714669D01*
X94107000Y-105947981D01*
X99578088Y-105947981D01*
X100370000Y-106739893D01*
X101161912Y-105947981D01*
X101093923Y-105707038D01*
X100574829Y-105522297D01*
X100024552Y-105550268D01*
X99646077Y-105707038D01*
X99578088Y-105947981D01*
X94107000Y-105947981D01*
X94107000Y-100401405D01*
X103018964Y-100401405D01*
X103043244Y-100506751D01*
X103334788Y-101032271D01*
X103805248Y-101406219D01*
X104383000Y-101571665D01*
X105283000Y-101571665D01*
X105283000Y-100163665D01*
X105537000Y-100163665D01*
X105537000Y-101571665D01*
X106437000Y-101571665D01*
X107014752Y-101406219D01*
X107485212Y-101032271D01*
X107776756Y-100506751D01*
X107801036Y-100401405D01*
X107680378Y-100163665D01*
X105537000Y-100163665D01*
X105283000Y-100163665D01*
X103139622Y-100163665D01*
X103018964Y-100401405D01*
X94107000Y-100401405D01*
X94107000Y-99671925D01*
X103018964Y-99671925D01*
X103139622Y-99909665D01*
X105283000Y-99909665D01*
X105283000Y-98501665D01*
X105537000Y-98501665D01*
X105537000Y-99909665D01*
X107680378Y-99909665D01*
X107801036Y-99671925D01*
X107776756Y-99566579D01*
X107485212Y-99041059D01*
X107014752Y-98667111D01*
X106437000Y-98501665D01*
X105537000Y-98501665D01*
X105283000Y-98501665D01*
X104383000Y-98501665D01*
X103805248Y-98667111D01*
X103334788Y-99041059D01*
X103043244Y-99566579D01*
X103018964Y-99671925D01*
X94107000Y-99671925D01*
X94107000Y-92136665D01*
X102962560Y-92136665D01*
X102962560Y-93936665D01*
X103011843Y-94184430D01*
X103152191Y-94394474D01*
X103362235Y-94534822D01*
X103610000Y-94584105D01*
X107210000Y-94584105D01*
X107457765Y-94534822D01*
X107667809Y-94394474D01*
X107808157Y-94184430D01*
X107857440Y-93936665D01*
X107857440Y-92136665D01*
X107808157Y-91888900D01*
X107667809Y-91678856D01*
X107457765Y-91538508D01*
X107210000Y-91489225D01*
X103610000Y-91489225D01*
X103362235Y-91538508D01*
X103152191Y-91678856D01*
X103011843Y-91888900D01*
X102962560Y-92136665D01*
X94107000Y-92136665D01*
X94107000Y-87004849D01*
X99578088Y-87004849D01*
X99646077Y-87245792D01*
X100165171Y-87430533D01*
X100715448Y-87402562D01*
X101093923Y-87245792D01*
X101161912Y-87004849D01*
X100370000Y-86212937D01*
X99578088Y-87004849D01*
X94107000Y-87004849D01*
X94107000Y-85828503D01*
X98972799Y-85828503D01*
X99000770Y-86378780D01*
X99157540Y-86757255D01*
X99398483Y-86825244D01*
X100190395Y-86033332D01*
X100549605Y-86033332D01*
X101341517Y-86825244D01*
X101582460Y-86757255D01*
X101742482Y-86307617D01*
X103984760Y-86307617D01*
X104195169Y-86816847D01*
X104584436Y-87206793D01*
X105093298Y-87418091D01*
X105644285Y-87418572D01*
X106153515Y-87208163D01*
X106543461Y-86818896D01*
X106754759Y-86310034D01*
X106755240Y-85759047D01*
X106544831Y-85249817D01*
X106155564Y-84859871D01*
X105646702Y-84648573D01*
X105095715Y-84648092D01*
X104586485Y-84858501D01*
X104196539Y-85247768D01*
X103985241Y-85756630D01*
X103984760Y-86307617D01*
X101742482Y-86307617D01*
X101767201Y-86238161D01*
X101739230Y-85687884D01*
X101582460Y-85309409D01*
X101341517Y-85241420D01*
X100549605Y-86033332D01*
X100190395Y-86033332D01*
X99398483Y-85241420D01*
X99157540Y-85309409D01*
X98972799Y-85828503D01*
X94107000Y-85828503D01*
X94107000Y-85061815D01*
X99578088Y-85061815D01*
X100370000Y-85853727D01*
X101161912Y-85061815D01*
X101093923Y-84820872D01*
X100574829Y-84636131D01*
X100024552Y-84664102D01*
X99646077Y-84820872D01*
X99578088Y-85061815D01*
X94107000Y-85061815D01*
X94107000Y-79609739D01*
X103018964Y-79609739D01*
X103043244Y-79715085D01*
X103334788Y-80240605D01*
X103805248Y-80614553D01*
X104383000Y-80779999D01*
X105283000Y-80779999D01*
X105283000Y-79371999D01*
X105537000Y-79371999D01*
X105537000Y-80779999D01*
X106437000Y-80779999D01*
X107014752Y-80614553D01*
X107485212Y-80240605D01*
X107776756Y-79715085D01*
X107801036Y-79609739D01*
X107680378Y-79371999D01*
X105537000Y-79371999D01*
X105283000Y-79371999D01*
X103139622Y-79371999D01*
X103018964Y-79609739D01*
X94107000Y-79609739D01*
X94107000Y-78880259D01*
X103018964Y-78880259D01*
X103139622Y-79117999D01*
X105283000Y-79117999D01*
X105283000Y-77709999D01*
X105537000Y-77709999D01*
X105537000Y-79117999D01*
X107680378Y-79117999D01*
X107801036Y-78880259D01*
X107776756Y-78774913D01*
X107485212Y-78249393D01*
X107014752Y-77875445D01*
X106437000Y-77709999D01*
X105537000Y-77709999D01*
X105283000Y-77709999D01*
X104383000Y-77709999D01*
X103805248Y-77875445D01*
X103334788Y-78249393D01*
X103043244Y-78774913D01*
X103018964Y-78880259D01*
X94107000Y-78880259D01*
X94107000Y-71344999D01*
X102962560Y-71344999D01*
X102962560Y-73144999D01*
X103011843Y-73392764D01*
X103152191Y-73602808D01*
X103362235Y-73743156D01*
X103610000Y-73792439D01*
X107210000Y-73792439D01*
X107457765Y-73743156D01*
X107667809Y-73602808D01*
X107808157Y-73392764D01*
X107857440Y-73144999D01*
X107857440Y-71344999D01*
X107808157Y-71097234D01*
X107667809Y-70887190D01*
X107457765Y-70746842D01*
X107210000Y-70697559D01*
X103610000Y-70697559D01*
X103362235Y-70746842D01*
X103152191Y-70887190D01*
X103011843Y-71097234D01*
X102962560Y-71344999D01*
X94107000Y-71344999D01*
X94107000Y-66213183D01*
X99578088Y-66213183D01*
X99646077Y-66454126D01*
X100165171Y-66638867D01*
X100715448Y-66610896D01*
X101093923Y-66454126D01*
X101161912Y-66213183D01*
X100370000Y-65421271D01*
X99578088Y-66213183D01*
X94107000Y-66213183D01*
X94107000Y-65036837D01*
X98972799Y-65036837D01*
X99000770Y-65587114D01*
X99157540Y-65965589D01*
X99398483Y-66033578D01*
X100190395Y-65241666D01*
X100549605Y-65241666D01*
X101341517Y-66033578D01*
X101582460Y-65965589D01*
X101742482Y-65515951D01*
X103984760Y-65515951D01*
X104195169Y-66025181D01*
X104584436Y-66415127D01*
X105093298Y-66626425D01*
X105644285Y-66626906D01*
X106153515Y-66416497D01*
X106543461Y-66027230D01*
X106754759Y-65518368D01*
X106755240Y-64967381D01*
X106544831Y-64458151D01*
X106155564Y-64068205D01*
X105646702Y-63856907D01*
X105095715Y-63856426D01*
X104586485Y-64066835D01*
X104196539Y-64456102D01*
X103985241Y-64964964D01*
X103984760Y-65515951D01*
X101742482Y-65515951D01*
X101767201Y-65446495D01*
X101739230Y-64896218D01*
X101582460Y-64517743D01*
X101341517Y-64449754D01*
X100549605Y-65241666D01*
X100190395Y-65241666D01*
X99398483Y-64449754D01*
X99157540Y-64517743D01*
X98972799Y-65036837D01*
X94107000Y-65036837D01*
X94107000Y-64270149D01*
X99578088Y-64270149D01*
X100370000Y-65062061D01*
X101161912Y-64270149D01*
X101093923Y-64029206D01*
X100574829Y-63844465D01*
X100024552Y-63872436D01*
X99646077Y-64029206D01*
X99578088Y-64270149D01*
X94107000Y-64270149D01*
X94107000Y-58818073D01*
X103018964Y-58818073D01*
X103043244Y-58923419D01*
X103334788Y-59448939D01*
X103805248Y-59822887D01*
X104383000Y-59988333D01*
X105283000Y-59988333D01*
X105283000Y-58580333D01*
X105537000Y-58580333D01*
X105537000Y-59988333D01*
X106437000Y-59988333D01*
X107014752Y-59822887D01*
X107485212Y-59448939D01*
X107776756Y-58923419D01*
X107801036Y-58818073D01*
X107680378Y-58580333D01*
X105537000Y-58580333D01*
X105283000Y-58580333D01*
X103139622Y-58580333D01*
X103018964Y-58818073D01*
X94107000Y-58818073D01*
X94107000Y-58088593D01*
X103018964Y-58088593D01*
X103139622Y-58326333D01*
X105283000Y-58326333D01*
X105283000Y-56918333D01*
X105537000Y-56918333D01*
X105537000Y-58326333D01*
X107680378Y-58326333D01*
X107801036Y-58088593D01*
X107776756Y-57983247D01*
X107485212Y-57457727D01*
X107014752Y-57083779D01*
X106437000Y-56918333D01*
X105537000Y-56918333D01*
X105283000Y-56918333D01*
X104383000Y-56918333D01*
X103805248Y-57083779D01*
X103334788Y-57457727D01*
X103043244Y-57983247D01*
X103018964Y-58088593D01*
X94107000Y-58088593D01*
X94107000Y-54953333D01*
X102927296Y-54953333D01*
X103044141Y-55540752D01*
X103376887Y-56038742D01*
X103874877Y-56371488D01*
X104462296Y-56488333D01*
X106357704Y-56488333D01*
X106613292Y-56437493D01*
X119815000Y-69639202D01*
X119815000Y-83820000D01*
X119878561Y-84139541D01*
X120005822Y-84330000D01*
X120059566Y-84410434D01*
X121307066Y-85657934D01*
X121577959Y-85838939D01*
X121897500Y-85902500D01*
X122511565Y-85902500D01*
X122849437Y-86240961D01*
X123081871Y-86337476D01*
X122851486Y-86432669D01*
X122511062Y-86772500D01*
X120973368Y-86772500D01*
X109355433Y-75154565D01*
X109084540Y-74973560D01*
X108764999Y-74909999D01*
X107610431Y-74909999D01*
X107443113Y-74659590D01*
X106945123Y-74326844D01*
X106357704Y-74209999D01*
X104462296Y-74209999D01*
X103874877Y-74326844D01*
X103376887Y-74659590D01*
X103044141Y-75157580D01*
X102927296Y-75744999D01*
X103044141Y-76332418D01*
X103376887Y-76830408D01*
X103874877Y-77163154D01*
X104462296Y-77279999D01*
X106357704Y-77279999D01*
X106945123Y-77163154D01*
X107443113Y-76830408D01*
X107610431Y-76579999D01*
X108419131Y-76579999D01*
X120037066Y-88197934D01*
X120307959Y-88378939D01*
X120627500Y-88442500D01*
X122511565Y-88442500D01*
X122849437Y-88780961D01*
X123081871Y-88877476D01*
X122851486Y-88972669D01*
X122511062Y-89312500D01*
X120672500Y-89312500D01*
X120352960Y-89376060D01*
X120082066Y-89557066D01*
X113937467Y-95701665D01*
X107610431Y-95701665D01*
X107443113Y-95451256D01*
X106945123Y-95118510D01*
X106357704Y-95001665D01*
X104462296Y-95001665D01*
X103874877Y-95118510D01*
X103376887Y-95451256D01*
X103044141Y-95949246D01*
X102927296Y-96536665D01*
X103044141Y-97124084D01*
X103376887Y-97622074D01*
X103874877Y-97954820D01*
X104462296Y-98071665D01*
X106357704Y-98071665D01*
X106945123Y-97954820D01*
X107443113Y-97622074D01*
X107610431Y-97371665D01*
X114283335Y-97371665D01*
X114602876Y-97308104D01*
X114873769Y-97127099D01*
X121018368Y-90982500D01*
X122511565Y-90982500D01*
X122849437Y-91320961D01*
X123081871Y-91417476D01*
X122851486Y-91512669D01*
X122511062Y-91852500D01*
X121942500Y-91852500D01*
X121622959Y-91916061D01*
X121352066Y-92097066D01*
X120059566Y-93389566D01*
X119878561Y-93660459D01*
X119815000Y-93980000D01*
X119815000Y-103942463D01*
X107471723Y-116285740D01*
X107443113Y-116242922D01*
X106945123Y-115910176D01*
X106357704Y-115793331D01*
X104462296Y-115793331D01*
X103874877Y-115910176D01*
X103376887Y-116242922D01*
X103044141Y-116740912D01*
X102927296Y-117328331D01*
X103044141Y-117915750D01*
X103376887Y-118413740D01*
X103874877Y-118746486D01*
X104462296Y-118863331D01*
X106357704Y-118863331D01*
X106945123Y-118746486D01*
X107443113Y-118413740D01*
X107610497Y-118163232D01*
X107929541Y-118099770D01*
X108200434Y-117918765D01*
X121240434Y-104878765D01*
X121264901Y-104842148D01*
X121421439Y-104607872D01*
X121485000Y-104288331D01*
X121485000Y-94325868D01*
X122288368Y-93522500D01*
X122511565Y-93522500D01*
X122849437Y-93860961D01*
X123081871Y-93957476D01*
X122851486Y-94052669D01*
X122461540Y-94441936D01*
X122250242Y-94950798D01*
X122249761Y-95501785D01*
X122460170Y-96011015D01*
X122849437Y-96400961D01*
X123081871Y-96497476D01*
X122851486Y-96592669D01*
X122461540Y-96981936D01*
X122250242Y-97490798D01*
X122249761Y-98041785D01*
X122460170Y-98551015D01*
X122849437Y-98940961D01*
X123081871Y-99037476D01*
X122851486Y-99132669D01*
X122461540Y-99521936D01*
X122250242Y-100030798D01*
X122249761Y-100581785D01*
X122460170Y-101091015D01*
X122849437Y-101480961D01*
X123081871Y-101577476D01*
X122851486Y-101672669D01*
X122461540Y-102061936D01*
X122250242Y-102570798D01*
X122249761Y-103121785D01*
X122460170Y-103631015D01*
X122849437Y-104020961D01*
X123081871Y-104117476D01*
X122851486Y-104212669D01*
X122461540Y-104601936D01*
X122250242Y-105110798D01*
X122249761Y-105661785D01*
X122460170Y-106171015D01*
X122849437Y-106560961D01*
X123081871Y-106657476D01*
X122851486Y-106752669D01*
X122511062Y-107092500D01*
X121942500Y-107092500D01*
X121622959Y-107156061D01*
X121398208Y-107306235D01*
X121352066Y-107337066D01*
X120059566Y-108629566D01*
X119878561Y-108900459D01*
X119815000Y-109220000D01*
X119815000Y-123434128D01*
X107857440Y-135391689D01*
X107857440Y-133719997D01*
X107808157Y-133472232D01*
X107667809Y-133262188D01*
X107457765Y-133121840D01*
X107210000Y-133072557D01*
X103610000Y-133072557D01*
X103362235Y-133121840D01*
X103152191Y-133262188D01*
X103011843Y-133472232D01*
X102962560Y-133719997D01*
X102962560Y-135519997D01*
X103011843Y-135767762D01*
X103152191Y-135977806D01*
X103362235Y-136118154D01*
X103610000Y-136167437D01*
X107081692Y-136167437D01*
X106613292Y-136635837D01*
X106357704Y-136584997D01*
X104462296Y-136584997D01*
X103874877Y-136701842D01*
X103376887Y-137034588D01*
X103044141Y-137532578D01*
X102927296Y-138119997D01*
X103044141Y-138707416D01*
X103376887Y-139205406D01*
X103874877Y-139538152D01*
X104462296Y-139654997D01*
X106357704Y-139654997D01*
X106945123Y-139538152D01*
X107443113Y-139205406D01*
X107775859Y-138707416D01*
X107892704Y-138119997D01*
X107826035Y-137784830D01*
X116391848Y-129219017D01*
X122843089Y-129219017D01*
X122911078Y-129459960D01*
X123430172Y-129644701D01*
X123980449Y-129616730D01*
X124358924Y-129459960D01*
X124426913Y-129219017D01*
X123635001Y-128427105D01*
X122843089Y-129219017D01*
X116391848Y-129219017D01*
X117568194Y-128042671D01*
X122237800Y-128042671D01*
X122265771Y-128592948D01*
X122422541Y-128971423D01*
X122663484Y-129039412D01*
X123455396Y-128247500D01*
X123814606Y-128247500D01*
X124606518Y-129039412D01*
X124847461Y-128971423D01*
X125032202Y-128452329D01*
X125004231Y-127902052D01*
X124847461Y-127523577D01*
X124606518Y-127455588D01*
X123814606Y-128247500D01*
X123455396Y-128247500D01*
X122663484Y-127455588D01*
X122422541Y-127523577D01*
X122237800Y-128042671D01*
X117568194Y-128042671D01*
X121240434Y-124370432D01*
X121330936Y-124234985D01*
X121421439Y-124099538D01*
X121485000Y-123779997D01*
X121485000Y-109565868D01*
X122288368Y-108762500D01*
X122511565Y-108762500D01*
X122849437Y-109100961D01*
X123081871Y-109197476D01*
X122851486Y-109292669D01*
X122461540Y-109681936D01*
X122250242Y-110190798D01*
X122249761Y-110741785D01*
X122460170Y-111251015D01*
X122849437Y-111640961D01*
X123081871Y-111737476D01*
X122851486Y-111832669D01*
X122461540Y-112221936D01*
X122250242Y-112730798D01*
X122249761Y-113281785D01*
X122460170Y-113791015D01*
X122849437Y-114180961D01*
X123081871Y-114277476D01*
X122851486Y-114372669D01*
X122461540Y-114761936D01*
X122250242Y-115270798D01*
X122249761Y-115821785D01*
X122460170Y-116331015D01*
X122849437Y-116720961D01*
X123081871Y-116817476D01*
X122851486Y-116912669D01*
X122461540Y-117301936D01*
X122250242Y-117810798D01*
X122249761Y-118361785D01*
X122460170Y-118871015D01*
X122849437Y-119260961D01*
X123081871Y-119357476D01*
X122851486Y-119452669D01*
X122461540Y-119841936D01*
X122250242Y-120350798D01*
X122249761Y-120901785D01*
X122460170Y-121411015D01*
X122849437Y-121800961D01*
X123081871Y-121897476D01*
X122851486Y-121992669D01*
X122461540Y-122381936D01*
X122250242Y-122890798D01*
X122249761Y-123441785D01*
X122460170Y-123951015D01*
X122849437Y-124340961D01*
X123081871Y-124437476D01*
X122851486Y-124532669D01*
X122461540Y-124921936D01*
X122250242Y-125430798D01*
X122249761Y-125981785D01*
X122460170Y-126491015D01*
X122849437Y-126880961D01*
X123065980Y-126970877D01*
X122911078Y-127035040D01*
X122843089Y-127275983D01*
X123635001Y-128067895D01*
X124426913Y-127275983D01*
X124358924Y-127035040D01*
X124192380Y-126975768D01*
X124418516Y-126882331D01*
X124808462Y-126493064D01*
X125019760Y-125984202D01*
X125020241Y-125433215D01*
X124809832Y-124923985D01*
X124420565Y-124534039D01*
X124188131Y-124437524D01*
X124418516Y-124342331D01*
X124808462Y-123953064D01*
X125019760Y-123444202D01*
X125020241Y-122893215D01*
X124809832Y-122383985D01*
X124420565Y-121994039D01*
X124188131Y-121897524D01*
X124418516Y-121802331D01*
X124808462Y-121413064D01*
X125019760Y-120904202D01*
X125020241Y-120353215D01*
X124809832Y-119843985D01*
X124420565Y-119454039D01*
X124188131Y-119357524D01*
X124418516Y-119262331D01*
X124808462Y-118873064D01*
X125019760Y-118364202D01*
X125020241Y-117813215D01*
X124809832Y-117303985D01*
X124420565Y-116914039D01*
X124188131Y-116817524D01*
X124418516Y-116722331D01*
X124808462Y-116333064D01*
X125019760Y-115824202D01*
X125020241Y-115273215D01*
X124809832Y-114763985D01*
X124420565Y-114374039D01*
X124188131Y-114277524D01*
X124418516Y-114182331D01*
X124808462Y-113793064D01*
X125019760Y-113284202D01*
X125020241Y-112733215D01*
X124809832Y-112223985D01*
X124420565Y-111834039D01*
X124188131Y-111737524D01*
X124418516Y-111642331D01*
X124808462Y-111253064D01*
X125019760Y-110744202D01*
X125020241Y-110193215D01*
X124809832Y-109683985D01*
X124420565Y-109294039D01*
X124188131Y-109197524D01*
X124418516Y-109102331D01*
X124808462Y-108713064D01*
X125019760Y-108204202D01*
X125020241Y-107653215D01*
X124809832Y-107143985D01*
X124420565Y-106754039D01*
X124188131Y-106657524D01*
X124418516Y-106562331D01*
X124808462Y-106173064D01*
X125019760Y-105664202D01*
X125020241Y-105113215D01*
X124809832Y-104603985D01*
X124420565Y-104214039D01*
X124188131Y-104117524D01*
X124418516Y-104022331D01*
X124736401Y-103705000D01*
X125384132Y-103705000D01*
X126165000Y-104485868D01*
X126165000Y-141894132D01*
X123869566Y-144189566D01*
X123688561Y-144460459D01*
X123625000Y-144780000D01*
X123625000Y-146097159D01*
X123409946Y-146240853D01*
X123088039Y-146722622D01*
X122975000Y-147290907D01*
X122975000Y-147349093D01*
X123088039Y-147917378D01*
X123409946Y-148399147D01*
X123891715Y-148721054D01*
X124460000Y-148834093D01*
X125028285Y-148721054D01*
X125510054Y-148399147D01*
X125737702Y-148058447D01*
X125804817Y-148201358D01*
X126233076Y-148591645D01*
X126643110Y-148761476D01*
X126873000Y-148640155D01*
X126873000Y-147447000D01*
X126853000Y-147447000D01*
X126853000Y-147193000D01*
X126873000Y-147193000D01*
X126873000Y-145999845D01*
X126643110Y-145878524D01*
X126233076Y-146048355D01*
X125804817Y-146438642D01*
X125737702Y-146581553D01*
X125510054Y-146240853D01*
X125295000Y-146097159D01*
X125295000Y-145125868D01*
X127590434Y-142830434D01*
X127605523Y-142807852D01*
X127771439Y-142559541D01*
X127835000Y-142240000D01*
X127835000Y-104140000D01*
X127771439Y-103820459D01*
X127590434Y-103549566D01*
X126320434Y-102279566D01*
X126286760Y-102257066D01*
X126049541Y-102098561D01*
X125730000Y-102035000D01*
X124780897Y-102035000D01*
X124420565Y-101674039D01*
X124188131Y-101577524D01*
X124418516Y-101482331D01*
X124758940Y-101142500D01*
X126631632Y-101142500D01*
X128705000Y-103215868D01*
X128705000Y-145822560D01*
X128690000Y-145822560D01*
X128442235Y-145871843D01*
X128232191Y-146012191D01*
X128091843Y-146222235D01*
X128071261Y-146325708D01*
X127766924Y-146048355D01*
X127356890Y-145878524D01*
X127127000Y-145999845D01*
X127127000Y-147193000D01*
X127147000Y-147193000D01*
X127147000Y-147447000D01*
X127127000Y-147447000D01*
X127127000Y-148640155D01*
X127356890Y-148761476D01*
X127766924Y-148591645D01*
X128071261Y-148314292D01*
X128091843Y-148417765D01*
X128232191Y-148627809D01*
X128442235Y-148768157D01*
X128690000Y-148817440D01*
X130390000Y-148817440D01*
X130637765Y-148768157D01*
X130847809Y-148627809D01*
X130988157Y-148417765D01*
X131037440Y-148170000D01*
X131037440Y-146470000D01*
X130988157Y-146222235D01*
X130847809Y-146012191D01*
X130637765Y-145871843D01*
X130390000Y-145822560D01*
X130375000Y-145822560D01*
X130375000Y-138430000D01*
X150370000Y-138430000D01*
X150370000Y-139700000D01*
X150427852Y-139990839D01*
X150592599Y-140237401D01*
X152248229Y-141893031D01*
X152185000Y-142210907D01*
X152185000Y-142269093D01*
X152298039Y-142837378D01*
X152619946Y-143319147D01*
X153101715Y-143641054D01*
X153670000Y-143754093D01*
X154238285Y-143641054D01*
X154720054Y-143319147D01*
X154940000Y-142989974D01*
X155159946Y-143319147D01*
X155450678Y-143513407D01*
X155507852Y-143800839D01*
X155672599Y-144047401D01*
X156942599Y-145317401D01*
X157189160Y-145482148D01*
X157480000Y-145540000D01*
X163830000Y-145540000D01*
X164120839Y-145482148D01*
X164367401Y-145317401D01*
X166907401Y-142777401D01*
X167072148Y-142530840D01*
X167098157Y-142400082D01*
X167130000Y-142240000D01*
X167130000Y-135890000D01*
X167072148Y-135599161D01*
X166907401Y-135352599D01*
X163973256Y-132418454D01*
X163994750Y-132366691D01*
X163995248Y-131795813D01*
X163777243Y-131268200D01*
X163373923Y-130864176D01*
X163320000Y-130841785D01*
X163320000Y-129428375D01*
X163529723Y-129219017D01*
X168563089Y-129219017D01*
X168631078Y-129459960D01*
X169150172Y-129644701D01*
X169700449Y-129616730D01*
X170078924Y-129459960D01*
X170146913Y-129219017D01*
X169355001Y-128427105D01*
X168563089Y-129219017D01*
X163529723Y-129219017D01*
X163693461Y-129055564D01*
X163904759Y-128546702D01*
X163905199Y-128042671D01*
X167957800Y-128042671D01*
X167985771Y-128592948D01*
X168142541Y-128971423D01*
X168383484Y-129039412D01*
X169175396Y-128247500D01*
X169534606Y-128247500D01*
X170326518Y-129039412D01*
X170567461Y-128971423D01*
X170752202Y-128452329D01*
X170724231Y-127902052D01*
X170567461Y-127523577D01*
X170326518Y-127455588D01*
X169534606Y-128247500D01*
X169175396Y-128247500D01*
X168383484Y-127455588D01*
X168142541Y-127523577D01*
X167957800Y-128042671D01*
X163905199Y-128042671D01*
X163905240Y-127995715D01*
X163694831Y-127486485D01*
X163305564Y-127096539D01*
X162796702Y-126885241D01*
X162245715Y-126884760D01*
X161736485Y-127095169D01*
X161346539Y-127484436D01*
X161135241Y-127993298D01*
X161134760Y-128544285D01*
X161345169Y-129053515D01*
X161734436Y-129443461D01*
X161800000Y-129470686D01*
X161800000Y-130841354D01*
X161748200Y-130862757D01*
X161344176Y-131266077D01*
X161125250Y-131793309D01*
X161124752Y-132364187D01*
X161342757Y-132891800D01*
X161746077Y-133295824D01*
X162273309Y-133514750D01*
X162844187Y-133515248D01*
X162898149Y-133492951D01*
X165610000Y-136204802D01*
X165610000Y-141925198D01*
X163515198Y-144020000D01*
X157794802Y-144020000D01*
X157160481Y-143385679D01*
X157260054Y-143319147D01*
X157480000Y-142989974D01*
X157699946Y-143319147D01*
X158181715Y-143641054D01*
X158750000Y-143754093D01*
X159318285Y-143641054D01*
X159800054Y-143319147D01*
X160020000Y-142989974D01*
X160239946Y-143319147D01*
X160721715Y-143641054D01*
X161290000Y-143754093D01*
X161858285Y-143641054D01*
X162340054Y-143319147D01*
X162661961Y-142837378D01*
X162775000Y-142269093D01*
X162775000Y-142210907D01*
X162661961Y-141642622D01*
X162340054Y-141160853D01*
X162336357Y-141158383D01*
X162387765Y-141148157D01*
X162597809Y-141007809D01*
X162738157Y-140797765D01*
X162787440Y-140550000D01*
X162787440Y-138850000D01*
X162738157Y-138602235D01*
X162597809Y-138392191D01*
X162387765Y-138251843D01*
X162140000Y-138202560D01*
X162050000Y-138202560D01*
X162050000Y-135890000D01*
X161992148Y-135599161D01*
X161992148Y-135599160D01*
X161827401Y-135352599D01*
X160780000Y-134305198D01*
X160780000Y-85404802D01*
X167977302Y-78207500D01*
X168170454Y-78207500D01*
X168180170Y-78231015D01*
X168569437Y-78620961D01*
X168801871Y-78717476D01*
X168571486Y-78812669D01*
X168181540Y-79201936D01*
X167970242Y-79710798D01*
X167969761Y-80261785D01*
X168180170Y-80771015D01*
X168569437Y-81160961D01*
X168801871Y-81257476D01*
X168571486Y-81352669D01*
X168181540Y-81741936D01*
X167970242Y-82250798D01*
X167969761Y-82801785D01*
X168180170Y-83311015D01*
X168569437Y-83700961D01*
X168801871Y-83797476D01*
X168571486Y-83892669D01*
X168181540Y-84281936D01*
X167970242Y-84790798D01*
X167969761Y-85341785D01*
X168180170Y-85851015D01*
X168569437Y-86240961D01*
X168801871Y-86337476D01*
X168571486Y-86432669D01*
X168181540Y-86821936D01*
X167970242Y-87330798D01*
X167969761Y-87881785D01*
X168180170Y-88391015D01*
X168569437Y-88780961D01*
X168801871Y-88877476D01*
X168571486Y-88972669D01*
X168181540Y-89361936D01*
X167970242Y-89870798D01*
X167969761Y-90421785D01*
X168180170Y-90931015D01*
X168569437Y-91320961D01*
X168801871Y-91417476D01*
X168571486Y-91512669D01*
X168181540Y-91901936D01*
X167970242Y-92410798D01*
X167969761Y-92961785D01*
X168180170Y-93471015D01*
X168569437Y-93860961D01*
X168801871Y-93957476D01*
X168571486Y-94052669D01*
X168181540Y-94441936D01*
X167970242Y-94950798D01*
X167969761Y-95501785D01*
X168180170Y-96011015D01*
X168569437Y-96400961D01*
X168801871Y-96497476D01*
X168571486Y-96592669D01*
X168181540Y-96981936D01*
X167970242Y-97490798D01*
X167969761Y-98041785D01*
X168180170Y-98551015D01*
X168569437Y-98940961D01*
X168801871Y-99037476D01*
X168571486Y-99132669D01*
X168181540Y-99521936D01*
X167970242Y-100030798D01*
X167969761Y-100581785D01*
X168180170Y-101091015D01*
X168569437Y-101480961D01*
X168801871Y-101577476D01*
X168571486Y-101672669D01*
X168181540Y-102061936D01*
X167970242Y-102570798D01*
X167969761Y-103121785D01*
X168180170Y-103631015D01*
X168569437Y-104020961D01*
X168801871Y-104117476D01*
X168571486Y-104212669D01*
X168181540Y-104601936D01*
X167970242Y-105110798D01*
X167969761Y-105661785D01*
X168180170Y-106171015D01*
X168569437Y-106560961D01*
X168801871Y-106657476D01*
X168571486Y-106752669D01*
X168181540Y-107141936D01*
X167970242Y-107650798D01*
X167969761Y-108201785D01*
X168180170Y-108711015D01*
X168569437Y-109100961D01*
X168801871Y-109197476D01*
X168571486Y-109292669D01*
X168181540Y-109681936D01*
X167970242Y-110190798D01*
X167969761Y-110741785D01*
X168180170Y-111251015D01*
X168569437Y-111640961D01*
X168801871Y-111737476D01*
X168571486Y-111832669D01*
X168181540Y-112221936D01*
X167970242Y-112730798D01*
X167969761Y-113281785D01*
X168180170Y-113791015D01*
X168569437Y-114180961D01*
X168801871Y-114277476D01*
X168571486Y-114372669D01*
X168181540Y-114761936D01*
X167970242Y-115270798D01*
X167969761Y-115821785D01*
X168180170Y-116331015D01*
X168569437Y-116720961D01*
X168801871Y-116817476D01*
X168571486Y-116912669D01*
X168181540Y-117301936D01*
X167970242Y-117810798D01*
X167969761Y-118361785D01*
X168180170Y-118871015D01*
X168569437Y-119260961D01*
X168801871Y-119357476D01*
X168571486Y-119452669D01*
X168181540Y-119841936D01*
X167970242Y-120350798D01*
X167969761Y-120901785D01*
X168180170Y-121411015D01*
X168569437Y-121800961D01*
X168801871Y-121897476D01*
X168571486Y-121992669D01*
X168181540Y-122381936D01*
X167970242Y-122890798D01*
X167969761Y-123441785D01*
X168180170Y-123951015D01*
X168569437Y-124340961D01*
X168801871Y-124437476D01*
X168571486Y-124532669D01*
X168181540Y-124921936D01*
X167970242Y-125430798D01*
X167969761Y-125981785D01*
X168180170Y-126491015D01*
X168569437Y-126880961D01*
X168785980Y-126970877D01*
X168631078Y-127035040D01*
X168563089Y-127275983D01*
X169355001Y-128067895D01*
X170146913Y-127275983D01*
X170078924Y-127035040D01*
X169912380Y-126975768D01*
X170138516Y-126882331D01*
X170528462Y-126493064D01*
X170739760Y-125984202D01*
X170740241Y-125433215D01*
X170529832Y-124923985D01*
X170140565Y-124534039D01*
X169908131Y-124437524D01*
X170138516Y-124342331D01*
X170528462Y-123953064D01*
X170739760Y-123444202D01*
X170740241Y-122893215D01*
X170529832Y-122383985D01*
X170140565Y-121994039D01*
X169908131Y-121897524D01*
X170138516Y-121802331D01*
X170528462Y-121413064D01*
X170739760Y-120904202D01*
X170740241Y-120353215D01*
X170529832Y-119843985D01*
X170140565Y-119454039D01*
X169908131Y-119357524D01*
X170138516Y-119262331D01*
X170528462Y-118873064D01*
X170739760Y-118364202D01*
X170740241Y-117813215D01*
X170529832Y-117303985D01*
X170140565Y-116914039D01*
X169908131Y-116817524D01*
X170138516Y-116722331D01*
X170528462Y-116333064D01*
X170539077Y-116307500D01*
X171112698Y-116307500D01*
X171960000Y-117154802D01*
X171960000Y-133350000D01*
X172017852Y-133640839D01*
X172182599Y-133887401D01*
X181466744Y-143171546D01*
X181445250Y-143223309D01*
X181444752Y-143794187D01*
X181662757Y-144321800D01*
X182066077Y-144725824D01*
X182593309Y-144944750D01*
X183164187Y-144945248D01*
X183691800Y-144727243D01*
X184095824Y-144323923D01*
X184314750Y-143796691D01*
X184315248Y-143225813D01*
X184097243Y-142698200D01*
X183694483Y-142294736D01*
X194583964Y-142294736D01*
X194608244Y-142400082D01*
X194899788Y-142925602D01*
X195370248Y-143299550D01*
X195948000Y-143464996D01*
X196848000Y-143464996D01*
X196848000Y-142056996D01*
X197102000Y-142056996D01*
X197102000Y-143464996D01*
X198002000Y-143464996D01*
X198579752Y-143299550D01*
X199050212Y-142925602D01*
X199341756Y-142400082D01*
X199366036Y-142294736D01*
X199245378Y-142056996D01*
X197102000Y-142056996D01*
X196848000Y-142056996D01*
X194704622Y-142056996D01*
X194583964Y-142294736D01*
X183694483Y-142294736D01*
X183693923Y-142294176D01*
X183166691Y-142075250D01*
X182595813Y-142074752D01*
X182541851Y-142097049D01*
X182010058Y-141565256D01*
X194583964Y-141565256D01*
X194704622Y-141802996D01*
X196848000Y-141802996D01*
X196848000Y-140394996D01*
X197102000Y-140394996D01*
X197102000Y-141802996D01*
X199245378Y-141802996D01*
X199366036Y-141565256D01*
X199341756Y-141459910D01*
X199050212Y-140934390D01*
X198579752Y-140560442D01*
X198002000Y-140394996D01*
X197102000Y-140394996D01*
X196848000Y-140394996D01*
X195948000Y-140394996D01*
X195370248Y-140560442D01*
X194899788Y-140934390D01*
X194608244Y-141459910D01*
X194583964Y-141565256D01*
X182010058Y-141565256D01*
X174078989Y-133634187D01*
X181444752Y-133634187D01*
X181662757Y-134161800D01*
X182066077Y-134565824D01*
X182593309Y-134784750D01*
X183164187Y-134785248D01*
X183691800Y-134567243D01*
X184095824Y-134163923D01*
X184118215Y-134110000D01*
X191770000Y-134110000D01*
X192060839Y-134052148D01*
X192307401Y-133887401D01*
X195519854Y-130674948D01*
X195702560Y-130675108D01*
X195702560Y-131310000D01*
X195751843Y-131557765D01*
X195892191Y-131767809D01*
X196090000Y-131899982D01*
X196090000Y-136882556D01*
X195175000Y-136882556D01*
X194927235Y-136931839D01*
X194717191Y-137072187D01*
X194576843Y-137282231D01*
X194527560Y-137529996D01*
X194527560Y-139329996D01*
X194576843Y-139577761D01*
X194717191Y-139787805D01*
X194927235Y-139928153D01*
X195175000Y-139977436D01*
X198775000Y-139977436D01*
X199022765Y-139928153D01*
X199232809Y-139787805D01*
X199373157Y-139577761D01*
X199422440Y-139329996D01*
X199422440Y-137529996D01*
X199373157Y-137282231D01*
X199232809Y-137072187D01*
X199022765Y-136931839D01*
X198775000Y-136882556D01*
X197610000Y-136882556D01*
X197610000Y-131899982D01*
X197807809Y-131767809D01*
X197948157Y-131557765D01*
X197997440Y-131310000D01*
X197997440Y-130310000D01*
X197948157Y-130062235D01*
X197807809Y-129852191D01*
X197597765Y-129711843D01*
X197350000Y-129662560D01*
X196714894Y-129662560D01*
X196715119Y-129404883D01*
X197074775Y-129405197D01*
X197492086Y-129232767D01*
X197811645Y-128913765D01*
X197984803Y-128496756D01*
X197985197Y-128045225D01*
X197812767Y-127627914D01*
X197493765Y-127308355D01*
X197076756Y-127135197D01*
X196625225Y-127134803D01*
X196207914Y-127307233D01*
X195888355Y-127626235D01*
X195715197Y-128043244D01*
X195714881Y-128405117D01*
X195355225Y-128404803D01*
X194937914Y-128577233D01*
X194618355Y-128896235D01*
X194445197Y-129313244D01*
X194444947Y-129600251D01*
X191455198Y-132590000D01*
X184118646Y-132590000D01*
X184097243Y-132538200D01*
X183693923Y-132134176D01*
X183166691Y-131915250D01*
X182595813Y-131914752D01*
X182068200Y-132132757D01*
X181664176Y-132536077D01*
X181445250Y-133063309D01*
X181444752Y-133634187D01*
X174078989Y-133634187D01*
X173480000Y-133035198D01*
X173480000Y-129241517D01*
X182128088Y-129241517D01*
X182196077Y-129482460D01*
X182715171Y-129667201D01*
X183265448Y-129639230D01*
X183643923Y-129482460D01*
X183711912Y-129241517D01*
X182920000Y-128449605D01*
X182128088Y-129241517D01*
X173480000Y-129241517D01*
X173480000Y-128065171D01*
X181522799Y-128065171D01*
X181550770Y-128615448D01*
X181707540Y-128993923D01*
X181948483Y-129061912D01*
X182740395Y-128270000D01*
X183099605Y-128270000D01*
X183891517Y-129061912D01*
X184132460Y-128993923D01*
X184292482Y-128544285D01*
X186534760Y-128544285D01*
X186745169Y-129053515D01*
X187134436Y-129443461D01*
X187643298Y-129654759D01*
X188194285Y-129655240D01*
X188703515Y-129444831D01*
X189093461Y-129055564D01*
X189304759Y-128546702D01*
X189305240Y-127995715D01*
X189094831Y-127486485D01*
X188705564Y-127096539D01*
X188196702Y-126885241D01*
X187645715Y-126884760D01*
X187136485Y-127095169D01*
X186746539Y-127484436D01*
X186535241Y-127993298D01*
X186534760Y-128544285D01*
X184292482Y-128544285D01*
X184317201Y-128474829D01*
X184289230Y-127924552D01*
X184132460Y-127546077D01*
X183891517Y-127478088D01*
X183099605Y-128270000D01*
X182740395Y-128270000D01*
X181948483Y-127478088D01*
X181707540Y-127546077D01*
X181522799Y-128065171D01*
X173480000Y-128065171D01*
X173480000Y-127298483D01*
X182128088Y-127298483D01*
X182920000Y-128090395D01*
X183711912Y-127298483D01*
X183643923Y-127057540D01*
X183124829Y-126872799D01*
X182574552Y-126900770D01*
X182196077Y-127057540D01*
X182128088Y-127298483D01*
X173480000Y-127298483D01*
X173480000Y-116840000D01*
X173422148Y-116549161D01*
X173257401Y-116302599D01*
X171964901Y-115010099D01*
X171718339Y-114845352D01*
X171427500Y-114787500D01*
X170539548Y-114787500D01*
X170529832Y-114763985D01*
X170140565Y-114374039D01*
X169908131Y-114277524D01*
X170138516Y-114182331D01*
X170528462Y-113793064D01*
X170539077Y-113767500D01*
X173652698Y-113767500D01*
X181466744Y-121581546D01*
X181445250Y-121633309D01*
X181444752Y-122204187D01*
X181662757Y-122731800D01*
X182066077Y-123135824D01*
X182593309Y-123354750D01*
X183164187Y-123355248D01*
X183691800Y-123137243D01*
X184095824Y-122733923D01*
X184314750Y-122206691D01*
X184315248Y-121635813D01*
X184097243Y-121108200D01*
X183693923Y-120704176D01*
X183166691Y-120485250D01*
X182595813Y-120484752D01*
X182541851Y-120507049D01*
X182500650Y-120465848D01*
X194583964Y-120465848D01*
X194608244Y-120571194D01*
X194899788Y-121096714D01*
X195370248Y-121470662D01*
X195948000Y-121636108D01*
X196848000Y-121636108D01*
X196848000Y-120228108D01*
X197102000Y-120228108D01*
X197102000Y-121636108D01*
X198002000Y-121636108D01*
X198579752Y-121470662D01*
X199050212Y-121096714D01*
X199341756Y-120571194D01*
X199366036Y-120465848D01*
X199245378Y-120228108D01*
X197102000Y-120228108D01*
X196848000Y-120228108D01*
X194704622Y-120228108D01*
X194583964Y-120465848D01*
X182500650Y-120465848D01*
X181771170Y-119736368D01*
X194583964Y-119736368D01*
X194704622Y-119974108D01*
X196848000Y-119974108D01*
X196848000Y-118566108D01*
X197102000Y-118566108D01*
X197102000Y-119974108D01*
X199245378Y-119974108D01*
X199366036Y-119736368D01*
X199341756Y-119631022D01*
X199050212Y-119105502D01*
X198579752Y-118731554D01*
X198002000Y-118566108D01*
X197102000Y-118566108D01*
X196848000Y-118566108D01*
X195948000Y-118566108D01*
X195370248Y-118731554D01*
X194899788Y-119105502D01*
X194608244Y-119631022D01*
X194583964Y-119736368D01*
X181771170Y-119736368D01*
X174504901Y-112470099D01*
X174258339Y-112305352D01*
X173967500Y-112247500D01*
X170539548Y-112247500D01*
X170529832Y-112223985D01*
X170350348Y-112044187D01*
X181444752Y-112044187D01*
X181662757Y-112571800D01*
X182066077Y-112975824D01*
X182593309Y-113194750D01*
X183164187Y-113195248D01*
X183691800Y-112977243D01*
X184095824Y-112573923D01*
X184118215Y-112520000D01*
X191770000Y-112520000D01*
X192060839Y-112462148D01*
X192307401Y-112297401D01*
X195519854Y-109084948D01*
X195702560Y-109085108D01*
X195702560Y-109720000D01*
X195751843Y-109967765D01*
X195892191Y-110177809D01*
X196090000Y-110309982D01*
X196090000Y-115053668D01*
X195175000Y-115053668D01*
X194927235Y-115102951D01*
X194717191Y-115243299D01*
X194576843Y-115453343D01*
X194527560Y-115701108D01*
X194527560Y-117501108D01*
X194576843Y-117748873D01*
X194717191Y-117958917D01*
X194927235Y-118099265D01*
X195175000Y-118148548D01*
X198775000Y-118148548D01*
X199022765Y-118099265D01*
X199232809Y-117958917D01*
X199373157Y-117748873D01*
X199422440Y-117501108D01*
X199422440Y-115701108D01*
X199373157Y-115453343D01*
X199232809Y-115243299D01*
X199022765Y-115102951D01*
X198775000Y-115053668D01*
X197610000Y-115053668D01*
X197610000Y-110309982D01*
X197807809Y-110177809D01*
X197948157Y-109967765D01*
X197997440Y-109720000D01*
X197997440Y-108720000D01*
X197948157Y-108472235D01*
X197807809Y-108262191D01*
X197597765Y-108121843D01*
X197350000Y-108072560D01*
X196714894Y-108072560D01*
X196715119Y-107814883D01*
X197074775Y-107815197D01*
X197492086Y-107642767D01*
X197811645Y-107323765D01*
X197984803Y-106906756D01*
X197985197Y-106455225D01*
X197812767Y-106037914D01*
X197493765Y-105718355D01*
X197076756Y-105545197D01*
X196625225Y-105544803D01*
X196207914Y-105717233D01*
X195888355Y-106036235D01*
X195715197Y-106453244D01*
X195714881Y-106815117D01*
X195355225Y-106814803D01*
X194937914Y-106987233D01*
X194618355Y-107306235D01*
X194445197Y-107723244D01*
X194444947Y-108010251D01*
X191455198Y-111000000D01*
X184118646Y-111000000D01*
X184097243Y-110948200D01*
X183693923Y-110544176D01*
X183166691Y-110325250D01*
X182595813Y-110324752D01*
X182068200Y-110542757D01*
X181664176Y-110946077D01*
X181445250Y-111473309D01*
X181444752Y-112044187D01*
X170350348Y-112044187D01*
X170140565Y-111834039D01*
X169908131Y-111737524D01*
X170138516Y-111642331D01*
X170528462Y-111253064D01*
X170539077Y-111227500D01*
X172742500Y-111227500D01*
X173033339Y-111169648D01*
X173279901Y-111004901D01*
X176633285Y-107651517D01*
X182128088Y-107651517D01*
X182196077Y-107892460D01*
X182715171Y-108077201D01*
X183265448Y-108049230D01*
X183643923Y-107892460D01*
X183711912Y-107651517D01*
X182920000Y-106859605D01*
X182128088Y-107651517D01*
X176633285Y-107651517D01*
X177809631Y-106475171D01*
X181522799Y-106475171D01*
X181550770Y-107025448D01*
X181707540Y-107403923D01*
X181948483Y-107471912D01*
X182740395Y-106680000D01*
X183099605Y-106680000D01*
X183891517Y-107471912D01*
X184132460Y-107403923D01*
X184292482Y-106954285D01*
X186534760Y-106954285D01*
X186745169Y-107463515D01*
X187134436Y-107853461D01*
X187643298Y-108064759D01*
X188194285Y-108065240D01*
X188703515Y-107854831D01*
X189093461Y-107465564D01*
X189304759Y-106956702D01*
X189305240Y-106405715D01*
X189094831Y-105896485D01*
X188705564Y-105506539D01*
X188196702Y-105295241D01*
X187645715Y-105294760D01*
X187136485Y-105505169D01*
X186746539Y-105894436D01*
X186535241Y-106403298D01*
X186534760Y-106954285D01*
X184292482Y-106954285D01*
X184317201Y-106884829D01*
X184289230Y-106334552D01*
X184132460Y-105956077D01*
X183891517Y-105888088D01*
X183099605Y-106680000D01*
X182740395Y-106680000D01*
X181948483Y-105888088D01*
X181707540Y-105956077D01*
X181522799Y-106475171D01*
X177809631Y-106475171D01*
X178576319Y-105708483D01*
X182128088Y-105708483D01*
X182920000Y-106500395D01*
X183711912Y-105708483D01*
X183643923Y-105467540D01*
X183124829Y-105282799D01*
X182574552Y-105310770D01*
X182196077Y-105467540D01*
X182128088Y-105708483D01*
X178576319Y-105708483D01*
X183417401Y-100867401D01*
X183582148Y-100620839D01*
X183640000Y-100330000D01*
X183640000Y-100298646D01*
X183691800Y-100277243D01*
X184095824Y-99873923D01*
X184314750Y-99346691D01*
X184315248Y-98775813D01*
X184257876Y-98636960D01*
X194583964Y-98636960D01*
X194608244Y-98742306D01*
X194899788Y-99267826D01*
X195370248Y-99641774D01*
X195948000Y-99807220D01*
X196848000Y-99807220D01*
X196848000Y-98399220D01*
X197102000Y-98399220D01*
X197102000Y-99807220D01*
X198002000Y-99807220D01*
X198579752Y-99641774D01*
X199050212Y-99267826D01*
X199341756Y-98742306D01*
X199366036Y-98636960D01*
X199245378Y-98399220D01*
X197102000Y-98399220D01*
X196848000Y-98399220D01*
X194704622Y-98399220D01*
X194583964Y-98636960D01*
X184257876Y-98636960D01*
X184097243Y-98248200D01*
X183757117Y-97907480D01*
X194583964Y-97907480D01*
X194704622Y-98145220D01*
X196848000Y-98145220D01*
X196848000Y-96737220D01*
X197102000Y-96737220D01*
X197102000Y-98145220D01*
X199245378Y-98145220D01*
X199366036Y-97907480D01*
X199341756Y-97802134D01*
X199050212Y-97276614D01*
X198579752Y-96902666D01*
X198002000Y-96737220D01*
X197102000Y-96737220D01*
X196848000Y-96737220D01*
X195948000Y-96737220D01*
X195370248Y-96902666D01*
X194899788Y-97276614D01*
X194608244Y-97802134D01*
X194583964Y-97907480D01*
X183757117Y-97907480D01*
X183693923Y-97844176D01*
X183166691Y-97625250D01*
X182595813Y-97624752D01*
X182068200Y-97842757D01*
X181664176Y-98246077D01*
X181445250Y-98773309D01*
X181444752Y-99344187D01*
X181662757Y-99871800D01*
X181962816Y-100172382D01*
X172427698Y-109707500D01*
X170539548Y-109707500D01*
X170529832Y-109683985D01*
X170140565Y-109294039D01*
X169908131Y-109197524D01*
X170138516Y-109102331D01*
X170528462Y-108713064D01*
X170529734Y-108710000D01*
X171450000Y-108710000D01*
X171740839Y-108652148D01*
X171987401Y-108487401D01*
X180877401Y-99597401D01*
X181042148Y-99350839D01*
X181100000Y-99060000D01*
X181100000Y-89184187D01*
X181444752Y-89184187D01*
X181662757Y-89711800D01*
X182066077Y-90115824D01*
X182593309Y-90334750D01*
X183164187Y-90335248D01*
X183691800Y-90117243D01*
X184095824Y-89713923D01*
X184118215Y-89660000D01*
X191770000Y-89660000D01*
X192060839Y-89602148D01*
X192307401Y-89437401D01*
X194624802Y-87120000D01*
X194734941Y-87120000D01*
X194936235Y-87321645D01*
X195353244Y-87494803D01*
X195702560Y-87495108D01*
X195702560Y-88130000D01*
X195751843Y-88377765D01*
X195892191Y-88587809D01*
X196090000Y-88719982D01*
X196090000Y-93224780D01*
X195175000Y-93224780D01*
X194927235Y-93274063D01*
X194717191Y-93414411D01*
X194576843Y-93624455D01*
X194527560Y-93872220D01*
X194527560Y-95672220D01*
X194576843Y-95919985D01*
X194717191Y-96130029D01*
X194927235Y-96270377D01*
X195175000Y-96319660D01*
X198775000Y-96319660D01*
X199022765Y-96270377D01*
X199232809Y-96130029D01*
X199373157Y-95919985D01*
X199422440Y-95672220D01*
X199422440Y-93872220D01*
X199373157Y-93624455D01*
X199232809Y-93414411D01*
X199022765Y-93274063D01*
X198775000Y-93224780D01*
X197610000Y-93224780D01*
X197610000Y-88719982D01*
X197807809Y-88587809D01*
X197948157Y-88377765D01*
X197997440Y-88130000D01*
X197997440Y-87130000D01*
X197948157Y-86882235D01*
X197807809Y-86672191D01*
X197597765Y-86531843D01*
X197350000Y-86482560D01*
X196714894Y-86482560D01*
X196715119Y-86224883D01*
X197074775Y-86225197D01*
X197492086Y-86052767D01*
X197811645Y-85733765D01*
X197984803Y-85316756D01*
X197985197Y-84865225D01*
X197812767Y-84447914D01*
X197493765Y-84128355D01*
X197076756Y-83955197D01*
X196625225Y-83954803D01*
X196207914Y-84127233D01*
X195888355Y-84446235D01*
X195715197Y-84863244D01*
X195714881Y-85225117D01*
X195355225Y-85224803D01*
X194937914Y-85397233D01*
X194734793Y-85600000D01*
X194310000Y-85600000D01*
X194067414Y-85648254D01*
X194019160Y-85657852D01*
X193772599Y-85822599D01*
X191455198Y-88140000D01*
X184118646Y-88140000D01*
X184097243Y-88088200D01*
X183693923Y-87684176D01*
X183166691Y-87465250D01*
X182595813Y-87464752D01*
X182068200Y-87682757D01*
X181664176Y-88086077D01*
X181445250Y-88613309D01*
X181444752Y-89184187D01*
X181100000Y-89184187D01*
X181100000Y-86061517D01*
X182128088Y-86061517D01*
X182196077Y-86302460D01*
X182715171Y-86487201D01*
X183265448Y-86459230D01*
X183643923Y-86302460D01*
X183711912Y-86061517D01*
X182920000Y-85269605D01*
X182128088Y-86061517D01*
X181100000Y-86061517D01*
X181100000Y-84885171D01*
X181522799Y-84885171D01*
X181550770Y-85435448D01*
X181707540Y-85813923D01*
X181948483Y-85881912D01*
X182740395Y-85090000D01*
X183099605Y-85090000D01*
X183891517Y-85881912D01*
X184132460Y-85813923D01*
X184292482Y-85364285D01*
X186534760Y-85364285D01*
X186745169Y-85873515D01*
X187134436Y-86263461D01*
X187643298Y-86474759D01*
X188194285Y-86475240D01*
X188703515Y-86264831D01*
X189093461Y-85875564D01*
X189304759Y-85366702D01*
X189305240Y-84815715D01*
X189094831Y-84306485D01*
X188705564Y-83916539D01*
X188196702Y-83705241D01*
X187645715Y-83704760D01*
X187136485Y-83915169D01*
X186746539Y-84304436D01*
X186535241Y-84813298D01*
X186534760Y-85364285D01*
X184292482Y-85364285D01*
X184317201Y-85294829D01*
X184289230Y-84744552D01*
X184132460Y-84366077D01*
X183891517Y-84298088D01*
X183099605Y-85090000D01*
X182740395Y-85090000D01*
X181948483Y-84298088D01*
X181707540Y-84366077D01*
X181522799Y-84885171D01*
X181100000Y-84885171D01*
X181100000Y-84118483D01*
X182128088Y-84118483D01*
X182920000Y-84910395D01*
X183711912Y-84118483D01*
X183643923Y-83877540D01*
X183124829Y-83692799D01*
X182574552Y-83720770D01*
X182196077Y-83877540D01*
X182128088Y-84118483D01*
X181100000Y-84118483D01*
X181100000Y-79054802D01*
X182541546Y-77613256D01*
X182593309Y-77634750D01*
X183164187Y-77635248D01*
X183691800Y-77417243D01*
X184095824Y-77013923D01*
X184181300Y-76808072D01*
X194583964Y-76808072D01*
X194608244Y-76913418D01*
X194899788Y-77438938D01*
X195370248Y-77812886D01*
X195948000Y-77978332D01*
X196848000Y-77978332D01*
X196848000Y-76570332D01*
X197102000Y-76570332D01*
X197102000Y-77978332D01*
X198002000Y-77978332D01*
X198579752Y-77812886D01*
X199050212Y-77438938D01*
X199341756Y-76913418D01*
X199366036Y-76808072D01*
X199245378Y-76570332D01*
X197102000Y-76570332D01*
X196848000Y-76570332D01*
X194704622Y-76570332D01*
X194583964Y-76808072D01*
X184181300Y-76808072D01*
X184314750Y-76486691D01*
X184315106Y-76078592D01*
X194583964Y-76078592D01*
X194704622Y-76316332D01*
X196848000Y-76316332D01*
X196848000Y-74908332D01*
X197102000Y-74908332D01*
X197102000Y-76316332D01*
X199245378Y-76316332D01*
X199366036Y-76078592D01*
X199341756Y-75973246D01*
X199050212Y-75447726D01*
X198579752Y-75073778D01*
X198002000Y-74908332D01*
X197102000Y-74908332D01*
X196848000Y-74908332D01*
X195948000Y-74908332D01*
X195370248Y-75073778D01*
X194899788Y-75447726D01*
X194608244Y-75973246D01*
X194583964Y-76078592D01*
X184315106Y-76078592D01*
X184315248Y-75915813D01*
X184097243Y-75388200D01*
X183693923Y-74984176D01*
X183166691Y-74765250D01*
X182595813Y-74764752D01*
X182068200Y-74982757D01*
X181664176Y-75386077D01*
X181445250Y-75913309D01*
X181444752Y-76484187D01*
X181467049Y-76538149D01*
X179802599Y-78202599D01*
X179637852Y-78449161D01*
X179580000Y-78740000D01*
X179580000Y-98745198D01*
X171135198Y-107190000D01*
X170548845Y-107190000D01*
X170529832Y-107143985D01*
X170140565Y-106754039D01*
X169908131Y-106657524D01*
X170138516Y-106562331D01*
X170528462Y-106173064D01*
X170539077Y-106147500D01*
X171472500Y-106147500D01*
X171763339Y-106089648D01*
X172009901Y-105924901D01*
X173257401Y-104677401D01*
X173422148Y-104430840D01*
X173431746Y-104382586D01*
X173480000Y-104140000D01*
X173480000Y-66354802D01*
X173510615Y-66324187D01*
X181444752Y-66324187D01*
X181662757Y-66851800D01*
X182066077Y-67255824D01*
X182593309Y-67474750D01*
X183164187Y-67475248D01*
X183691800Y-67257243D01*
X184095824Y-66853923D01*
X184118215Y-66800000D01*
X193040000Y-66800000D01*
X193330839Y-66742148D01*
X193577401Y-66577401D01*
X195519854Y-64634948D01*
X195702560Y-64635108D01*
X195702560Y-65270000D01*
X195751843Y-65517765D01*
X195892191Y-65727809D01*
X196090000Y-65859982D01*
X196090000Y-71395892D01*
X195175000Y-71395892D01*
X194927235Y-71445175D01*
X194717191Y-71585523D01*
X194576843Y-71795567D01*
X194527560Y-72043332D01*
X194527560Y-73843332D01*
X194576843Y-74091097D01*
X194717191Y-74301141D01*
X194927235Y-74441489D01*
X195175000Y-74490772D01*
X198775000Y-74490772D01*
X199022765Y-74441489D01*
X199232809Y-74301141D01*
X199373157Y-74091097D01*
X199422440Y-73843332D01*
X199422440Y-72043332D01*
X199373157Y-71795567D01*
X199232809Y-71585523D01*
X199022765Y-71445175D01*
X198775000Y-71395892D01*
X197610000Y-71395892D01*
X197610000Y-65859982D01*
X197807809Y-65727809D01*
X197948157Y-65517765D01*
X197997440Y-65270000D01*
X197997440Y-64270000D01*
X197948157Y-64022235D01*
X197807809Y-63812191D01*
X197597765Y-63671843D01*
X197350000Y-63622560D01*
X196714894Y-63622560D01*
X196715119Y-63364883D01*
X197074775Y-63365197D01*
X197492086Y-63192767D01*
X197811645Y-62873765D01*
X197984803Y-62456756D01*
X197985197Y-62005225D01*
X197812767Y-61587914D01*
X197493765Y-61268355D01*
X197076756Y-61095197D01*
X196625225Y-61094803D01*
X196207914Y-61267233D01*
X195888355Y-61586235D01*
X195715197Y-62003244D01*
X195714881Y-62365117D01*
X195355225Y-62364803D01*
X194937914Y-62537233D01*
X194618355Y-62856235D01*
X194445197Y-63273244D01*
X194444947Y-63560251D01*
X192725198Y-65280000D01*
X184118646Y-65280000D01*
X184097243Y-65228200D01*
X183693923Y-64824176D01*
X183166691Y-64605250D01*
X182595813Y-64604752D01*
X182068200Y-64822757D01*
X181664176Y-65226077D01*
X181445250Y-65753309D01*
X181444752Y-66324187D01*
X173510615Y-66324187D01*
X176633285Y-63201517D01*
X180858088Y-63201517D01*
X180926077Y-63442460D01*
X181445171Y-63627201D01*
X181995448Y-63599230D01*
X182373923Y-63442460D01*
X182441912Y-63201517D01*
X181650000Y-62409605D01*
X180858088Y-63201517D01*
X176633285Y-63201517D01*
X177809631Y-62025171D01*
X180252799Y-62025171D01*
X180280770Y-62575448D01*
X180437540Y-62953923D01*
X180678483Y-63021912D01*
X181470395Y-62230000D01*
X181829605Y-62230000D01*
X182621517Y-63021912D01*
X182862460Y-62953923D01*
X183022482Y-62504285D01*
X185264760Y-62504285D01*
X185475169Y-63013515D01*
X185864436Y-63403461D01*
X186373298Y-63614759D01*
X186924285Y-63615240D01*
X187433515Y-63404831D01*
X187823461Y-63015564D01*
X188034759Y-62506702D01*
X188035240Y-61955715D01*
X187824831Y-61446485D01*
X187435564Y-61056539D01*
X186926702Y-60845241D01*
X186375715Y-60844760D01*
X185866485Y-61055169D01*
X185476539Y-61444436D01*
X185265241Y-61953298D01*
X185264760Y-62504285D01*
X183022482Y-62504285D01*
X183047201Y-62434829D01*
X183019230Y-61884552D01*
X182862460Y-61506077D01*
X182621517Y-61438088D01*
X181829605Y-62230000D01*
X181470395Y-62230000D01*
X180678483Y-61438088D01*
X180437540Y-61506077D01*
X180252799Y-62025171D01*
X177809631Y-62025171D01*
X178576319Y-61258483D01*
X180858088Y-61258483D01*
X181650000Y-62050395D01*
X182441912Y-61258483D01*
X182373923Y-61017540D01*
X181854829Y-60832799D01*
X181304552Y-60860770D01*
X180926077Y-61017540D01*
X180858088Y-61258483D01*
X178576319Y-61258483D01*
X182541546Y-57293256D01*
X182593309Y-57314750D01*
X183164187Y-57315248D01*
X183691800Y-57097243D01*
X184095824Y-56693923D01*
X184314750Y-56166691D01*
X184315248Y-55595813D01*
X184097243Y-55068200D01*
X184008383Y-54979184D01*
X194583964Y-54979184D01*
X194608244Y-55084530D01*
X194899788Y-55610050D01*
X195370248Y-55983998D01*
X195948000Y-56149444D01*
X196848000Y-56149444D01*
X196848000Y-54741444D01*
X197102000Y-54741444D01*
X197102000Y-56149444D01*
X198002000Y-56149444D01*
X198579752Y-55983998D01*
X199050212Y-55610050D01*
X199341756Y-55084530D01*
X199366036Y-54979184D01*
X199245378Y-54741444D01*
X197102000Y-54741444D01*
X196848000Y-54741444D01*
X194704622Y-54741444D01*
X194583964Y-54979184D01*
X184008383Y-54979184D01*
X183693923Y-54664176D01*
X183166691Y-54445250D01*
X182595813Y-54444752D01*
X182068200Y-54662757D01*
X181664176Y-55066077D01*
X181445250Y-55593309D01*
X181444752Y-56164187D01*
X181467049Y-56218149D01*
X172182599Y-65502599D01*
X172017852Y-65749161D01*
X171960000Y-66040000D01*
X171960000Y-103825198D01*
X171157698Y-104627500D01*
X170539548Y-104627500D01*
X170529832Y-104603985D01*
X170140565Y-104214039D01*
X169908131Y-104117524D01*
X170138516Y-104022331D01*
X170528462Y-103633064D01*
X170739760Y-103124202D01*
X170740241Y-102573215D01*
X170529832Y-102063985D01*
X170140565Y-101674039D01*
X169908131Y-101577524D01*
X170138516Y-101482331D01*
X170528462Y-101093064D01*
X170739760Y-100584202D01*
X170740241Y-100033215D01*
X170529832Y-99523985D01*
X170140565Y-99134039D01*
X169908131Y-99037524D01*
X170138516Y-98942331D01*
X170528462Y-98553064D01*
X170739760Y-98044202D01*
X170740241Y-97493215D01*
X170529832Y-96983985D01*
X170140565Y-96594039D01*
X169908131Y-96497524D01*
X170138516Y-96402331D01*
X170528462Y-96013064D01*
X170739760Y-95504202D01*
X170740241Y-94953215D01*
X170529832Y-94443985D01*
X170140565Y-94054039D01*
X169908131Y-93957524D01*
X170138516Y-93862331D01*
X170528462Y-93473064D01*
X170739760Y-92964202D01*
X170740241Y-92413215D01*
X170529832Y-91903985D01*
X170140565Y-91514039D01*
X169908131Y-91417524D01*
X170138516Y-91322331D01*
X170528462Y-90933064D01*
X170739760Y-90424202D01*
X170740241Y-89873215D01*
X170529832Y-89363985D01*
X170140565Y-88974039D01*
X169908131Y-88877524D01*
X170138516Y-88782331D01*
X170528462Y-88393064D01*
X170739760Y-87884202D01*
X170740241Y-87333215D01*
X170529832Y-86823985D01*
X170140565Y-86434039D01*
X169908131Y-86337524D01*
X170138516Y-86242331D01*
X170528462Y-85853064D01*
X170739760Y-85344202D01*
X170740241Y-84793215D01*
X170529832Y-84283985D01*
X170140565Y-83894039D01*
X169908131Y-83797524D01*
X170138516Y-83702331D01*
X170528462Y-83313064D01*
X170739760Y-82804202D01*
X170740241Y-82253215D01*
X170529832Y-81743985D01*
X170140565Y-81354039D01*
X169908131Y-81257524D01*
X170138516Y-81162331D01*
X170528462Y-80773064D01*
X170739760Y-80264202D01*
X170740241Y-79713215D01*
X170529832Y-79203985D01*
X170140565Y-78814039D01*
X169908131Y-78717524D01*
X170138516Y-78622331D01*
X170528462Y-78233064D01*
X170739760Y-77724202D01*
X170740241Y-77173215D01*
X170529832Y-76663985D01*
X170140565Y-76274039D01*
X169908131Y-76177524D01*
X170138516Y-76082331D01*
X170528462Y-75693064D01*
X170739760Y-75184202D01*
X170740241Y-74633215D01*
X170529832Y-74123985D01*
X170140565Y-73734039D01*
X169908131Y-73637524D01*
X170138516Y-73542331D01*
X170528462Y-73153064D01*
X170739760Y-72644202D01*
X170740241Y-72093215D01*
X170529832Y-71583985D01*
X170140565Y-71194039D01*
X169908131Y-71097524D01*
X170138516Y-71002331D01*
X170528462Y-70613064D01*
X170739760Y-70104202D01*
X170740241Y-69553215D01*
X170529832Y-69043985D01*
X170140565Y-68654039D01*
X169908131Y-68557524D01*
X170138516Y-68462331D01*
X170528462Y-68073064D01*
X170739760Y-67564202D01*
X170740241Y-67013215D01*
X170529832Y-66503985D01*
X170140565Y-66114039D01*
X169908131Y-66017524D01*
X170138516Y-65922331D01*
X170528462Y-65533064D01*
X170739760Y-65024202D01*
X170740241Y-64473215D01*
X170529832Y-63963985D01*
X170140565Y-63574039D01*
X169924022Y-63484123D01*
X170078924Y-63419960D01*
X170146913Y-63179017D01*
X169355001Y-62387105D01*
X168563089Y-63179017D01*
X168631078Y-63419960D01*
X168797622Y-63479232D01*
X168571486Y-63572669D01*
X168181540Y-63961936D01*
X167970242Y-64470798D01*
X167969761Y-65021785D01*
X168180170Y-65531015D01*
X168569437Y-65920961D01*
X168801871Y-66017476D01*
X168571486Y-66112669D01*
X168181540Y-66501936D01*
X167970242Y-67010798D01*
X167969761Y-67561785D01*
X168180170Y-68071015D01*
X168569437Y-68460961D01*
X168801871Y-68557476D01*
X168571486Y-68652669D01*
X168181540Y-69041936D01*
X167970242Y-69550798D01*
X167969761Y-70101785D01*
X168180170Y-70611015D01*
X168569437Y-71000961D01*
X168801871Y-71097476D01*
X168571486Y-71192669D01*
X168181540Y-71581936D01*
X167970242Y-72090798D01*
X167969761Y-72641785D01*
X168180170Y-73151015D01*
X168569437Y-73540961D01*
X168801871Y-73637476D01*
X168571486Y-73732669D01*
X168181540Y-74121936D01*
X168170925Y-74147500D01*
X161312500Y-74147500D01*
X161021661Y-74205352D01*
X160775099Y-74370099D01*
X154402599Y-80742599D01*
X154237852Y-80989161D01*
X154180000Y-81280000D01*
X154180000Y-134305198D01*
X150592599Y-137892599D01*
X150427852Y-138139161D01*
X150370000Y-138430000D01*
X130375000Y-138430000D01*
X130375000Y-132364187D01*
X150964752Y-132364187D01*
X151182757Y-132891800D01*
X151586077Y-133295824D01*
X152113309Y-133514750D01*
X152684187Y-133515248D01*
X153211800Y-133297243D01*
X153615824Y-132893923D01*
X153834750Y-132366691D01*
X153835248Y-131795813D01*
X153617243Y-131268200D01*
X153213923Y-130864176D01*
X152686691Y-130645250D01*
X152115813Y-130644752D01*
X151588200Y-130862757D01*
X151184176Y-131266077D01*
X150965250Y-131793309D01*
X150964752Y-132364187D01*
X130375000Y-132364187D01*
X130375000Y-129241517D01*
X146568088Y-129241517D01*
X146636077Y-129482460D01*
X147155171Y-129667201D01*
X147705448Y-129639230D01*
X148083923Y-129482460D01*
X148151912Y-129241517D01*
X147360000Y-128449605D01*
X146568088Y-129241517D01*
X130375000Y-129241517D01*
X130375000Y-128065171D01*
X145962799Y-128065171D01*
X145990770Y-128615448D01*
X146147540Y-128993923D01*
X146388483Y-129061912D01*
X147180395Y-128270000D01*
X147539605Y-128270000D01*
X148331517Y-129061912D01*
X148572460Y-128993923D01*
X148732482Y-128544285D01*
X150974760Y-128544285D01*
X151185169Y-129053515D01*
X151574436Y-129443461D01*
X152083298Y-129654759D01*
X152634285Y-129655240D01*
X153143515Y-129444831D01*
X153533461Y-129055564D01*
X153744759Y-128546702D01*
X153745240Y-127995715D01*
X153534831Y-127486485D01*
X153145564Y-127096539D01*
X152636702Y-126885241D01*
X152085715Y-126884760D01*
X151576485Y-127095169D01*
X151186539Y-127484436D01*
X150975241Y-127993298D01*
X150974760Y-128544285D01*
X148732482Y-128544285D01*
X148757201Y-128474829D01*
X148729230Y-127924552D01*
X148572460Y-127546077D01*
X148331517Y-127478088D01*
X147539605Y-128270000D01*
X147180395Y-128270000D01*
X146388483Y-127478088D01*
X146147540Y-127546077D01*
X145962799Y-128065171D01*
X130375000Y-128065171D01*
X130375000Y-127298483D01*
X146568088Y-127298483D01*
X147360000Y-128090395D01*
X148151912Y-127298483D01*
X148083923Y-127057540D01*
X147564829Y-126872799D01*
X147014552Y-126900770D01*
X146636077Y-127057540D01*
X146568088Y-127298483D01*
X130375000Y-127298483D01*
X130375000Y-102870000D01*
X130311439Y-102550459D01*
X130130434Y-102279566D01*
X127567934Y-99717066D01*
X127500376Y-99671925D01*
X127297041Y-99536061D01*
X126977500Y-99472500D01*
X124758437Y-99472500D01*
X124420565Y-99134039D01*
X124188131Y-99037524D01*
X124418516Y-98942331D01*
X124808462Y-98553064D01*
X125019760Y-98044202D01*
X125020241Y-97493215D01*
X124809832Y-96983985D01*
X124420565Y-96594039D01*
X124188131Y-96497524D01*
X124418516Y-96402331D01*
X124808462Y-96013064D01*
X125019760Y-95504202D01*
X125020241Y-94953215D01*
X124809832Y-94443985D01*
X124420565Y-94054039D01*
X124188131Y-93957524D01*
X124418516Y-93862331D01*
X124808462Y-93473064D01*
X125019760Y-92964202D01*
X125020241Y-92413215D01*
X124809832Y-91903985D01*
X124420565Y-91514039D01*
X124188131Y-91417524D01*
X124418516Y-91322331D01*
X124808462Y-90933064D01*
X125019760Y-90424202D01*
X125020241Y-89873215D01*
X124809832Y-89363985D01*
X124420565Y-88974039D01*
X124188131Y-88877524D01*
X124418516Y-88782331D01*
X124808462Y-88393064D01*
X125019760Y-87884202D01*
X125020241Y-87333215D01*
X124809832Y-86823985D01*
X124420565Y-86434039D01*
X124188131Y-86337524D01*
X124418516Y-86242331D01*
X124808462Y-85853064D01*
X125019760Y-85344202D01*
X125020241Y-84793215D01*
X124809832Y-84283985D01*
X124420565Y-83894039D01*
X124188131Y-83797524D01*
X124418516Y-83702331D01*
X124808462Y-83313064D01*
X125019760Y-82804202D01*
X125020241Y-82253215D01*
X124809832Y-81743985D01*
X124420565Y-81354039D01*
X124204022Y-81264123D01*
X124358924Y-81199960D01*
X124426913Y-80959017D01*
X123635001Y-80167105D01*
X122843089Y-80959017D01*
X122911078Y-81199960D01*
X123077622Y-81259232D01*
X122851486Y-81352669D01*
X122461540Y-81741936D01*
X122250242Y-82250798D01*
X122249761Y-82801785D01*
X122460170Y-83311015D01*
X122849437Y-83700961D01*
X123081871Y-83797476D01*
X122851486Y-83892669D01*
X122511062Y-84232500D01*
X122243368Y-84232500D01*
X121485000Y-83474132D01*
X121485000Y-79782671D01*
X122237800Y-79782671D01*
X122265771Y-80332948D01*
X122422541Y-80711423D01*
X122663484Y-80779412D01*
X123455396Y-79987500D01*
X123814606Y-79987500D01*
X124606518Y-80779412D01*
X124847461Y-80711423D01*
X125032202Y-80192329D01*
X125004231Y-79642052D01*
X124847461Y-79263577D01*
X124606518Y-79195588D01*
X123814606Y-79987500D01*
X123455396Y-79987500D01*
X122663484Y-79195588D01*
X122422541Y-79263577D01*
X122237800Y-79782671D01*
X121485000Y-79782671D01*
X121485000Y-69293333D01*
X121421439Y-68973792D01*
X121330936Y-68838345D01*
X121240434Y-68702898D01*
X117559321Y-65021785D01*
X122249761Y-65021785D01*
X122460170Y-65531015D01*
X122849437Y-65920961D01*
X123081871Y-66017476D01*
X122851486Y-66112669D01*
X122461540Y-66501936D01*
X122250242Y-67010798D01*
X122249761Y-67561785D01*
X122460170Y-68071015D01*
X122849437Y-68460961D01*
X123081871Y-68557476D01*
X122851486Y-68652669D01*
X122461540Y-69041936D01*
X122250242Y-69550798D01*
X122249761Y-70101785D01*
X122460170Y-70611015D01*
X122849437Y-71000961D01*
X123081871Y-71097476D01*
X122851486Y-71192669D01*
X122461540Y-71581936D01*
X122250242Y-72090798D01*
X122249761Y-72641785D01*
X122460170Y-73151015D01*
X122849437Y-73540961D01*
X123081871Y-73637476D01*
X122851486Y-73732669D01*
X122461540Y-74121936D01*
X122250242Y-74630798D01*
X122249761Y-75181785D01*
X122460170Y-75691015D01*
X122849437Y-76080961D01*
X123081871Y-76177476D01*
X122851486Y-76272669D01*
X122461540Y-76661936D01*
X122250242Y-77170798D01*
X122249761Y-77721785D01*
X122460170Y-78231015D01*
X122849437Y-78620961D01*
X123065980Y-78710877D01*
X122911078Y-78775040D01*
X122843089Y-79015983D01*
X123635001Y-79807895D01*
X124426913Y-79015983D01*
X124358924Y-78775040D01*
X124192380Y-78715768D01*
X124418516Y-78622331D01*
X124808462Y-78233064D01*
X125019760Y-77724202D01*
X125020241Y-77173215D01*
X124809832Y-76663985D01*
X124420565Y-76274039D01*
X124188131Y-76177524D01*
X124418516Y-76082331D01*
X124808462Y-75693064D01*
X125019760Y-75184202D01*
X125020241Y-74633215D01*
X124809832Y-74123985D01*
X124420565Y-73734039D01*
X124188131Y-73637524D01*
X124418516Y-73542331D01*
X124808462Y-73153064D01*
X125019760Y-72644202D01*
X125020241Y-72093215D01*
X124809832Y-71583985D01*
X124420565Y-71194039D01*
X124188131Y-71097524D01*
X124418516Y-71002331D01*
X124808462Y-70613064D01*
X125019760Y-70104202D01*
X125020241Y-69553215D01*
X124809832Y-69043985D01*
X124420565Y-68654039D01*
X124188131Y-68557524D01*
X124418516Y-68462331D01*
X124808462Y-68073064D01*
X125019760Y-67564202D01*
X125020241Y-67013215D01*
X124809832Y-66503985D01*
X124420565Y-66114039D01*
X124188131Y-66017524D01*
X124418516Y-65922331D01*
X124808462Y-65533064D01*
X125019760Y-65024202D01*
X125020241Y-64473215D01*
X124809832Y-63963985D01*
X124420565Y-63574039D01*
X124204022Y-63484123D01*
X124358924Y-63419960D01*
X124426913Y-63179017D01*
X123635001Y-62387105D01*
X122843089Y-63179017D01*
X122911078Y-63419960D01*
X123077622Y-63479232D01*
X122851486Y-63572669D01*
X122461540Y-63961936D01*
X122250242Y-64470798D01*
X122249761Y-65021785D01*
X117559321Y-65021785D01*
X114540207Y-62002671D01*
X122237800Y-62002671D01*
X122265771Y-62552948D01*
X122422541Y-62931423D01*
X122663484Y-62999412D01*
X123455396Y-62207500D01*
X123814606Y-62207500D01*
X124606518Y-62999412D01*
X124847461Y-62931423D01*
X125032202Y-62412329D01*
X125011379Y-62002671D01*
X167957800Y-62002671D01*
X167985771Y-62552948D01*
X168142541Y-62931423D01*
X168383484Y-62999412D01*
X169175396Y-62207500D01*
X169534606Y-62207500D01*
X170326518Y-62999412D01*
X170567461Y-62931423D01*
X170752202Y-62412329D01*
X170724231Y-61862052D01*
X170567461Y-61483577D01*
X170326518Y-61415588D01*
X169534606Y-62207500D01*
X169175396Y-62207500D01*
X168383484Y-61415588D01*
X168142541Y-61483577D01*
X167957800Y-62002671D01*
X125011379Y-62002671D01*
X125004231Y-61862052D01*
X124847461Y-61483577D01*
X124606518Y-61415588D01*
X123814606Y-62207500D01*
X123455396Y-62207500D01*
X122663484Y-61415588D01*
X122422541Y-61483577D01*
X122237800Y-62002671D01*
X114540207Y-62002671D01*
X112479321Y-59941785D01*
X122249761Y-59941785D01*
X122460170Y-60451015D01*
X122849437Y-60840961D01*
X123065980Y-60930877D01*
X122911078Y-60995040D01*
X122843089Y-61235983D01*
X123635001Y-62027895D01*
X124426913Y-61235983D01*
X124358924Y-60995040D01*
X124192380Y-60935768D01*
X124418516Y-60842331D01*
X124808462Y-60453064D01*
X125019760Y-59944202D01*
X125019762Y-59941785D01*
X167969761Y-59941785D01*
X168180170Y-60451015D01*
X168569437Y-60840961D01*
X168785980Y-60930877D01*
X168631078Y-60995040D01*
X168563089Y-61235983D01*
X169355001Y-62027895D01*
X170146913Y-61235983D01*
X170078924Y-60995040D01*
X169912380Y-60935768D01*
X170138516Y-60842331D01*
X170528462Y-60453064D01*
X170739760Y-59944202D01*
X170740241Y-59393215D01*
X170529832Y-58883985D01*
X170140565Y-58494039D01*
X169631703Y-58282741D01*
X169080716Y-58282260D01*
X168571486Y-58492669D01*
X168181540Y-58881936D01*
X167970242Y-59390798D01*
X167969761Y-59941785D01*
X125019762Y-59941785D01*
X125020241Y-59393215D01*
X124809832Y-58883985D01*
X124420565Y-58494039D01*
X123911703Y-58282741D01*
X123360716Y-58282260D01*
X122851486Y-58492669D01*
X122461540Y-58881936D01*
X122250242Y-59390798D01*
X122249761Y-59941785D01*
X112479321Y-59941785D01*
X107826035Y-55288500D01*
X107892704Y-54953333D01*
X107775859Y-54365914D01*
X107698211Y-54249704D01*
X194583964Y-54249704D01*
X194704622Y-54487444D01*
X196848000Y-54487444D01*
X196848000Y-53079444D01*
X197102000Y-53079444D01*
X197102000Y-54487444D01*
X199245378Y-54487444D01*
X199366036Y-54249704D01*
X199341756Y-54144358D01*
X199050212Y-53618838D01*
X198579752Y-53244890D01*
X198002000Y-53079444D01*
X197102000Y-53079444D01*
X196848000Y-53079444D01*
X195948000Y-53079444D01*
X195370248Y-53244890D01*
X194899788Y-53618838D01*
X194608244Y-54144358D01*
X194583964Y-54249704D01*
X107698211Y-54249704D01*
X107443113Y-53867924D01*
X106945123Y-53535178D01*
X106357704Y-53418333D01*
X104462296Y-53418333D01*
X103874877Y-53535178D01*
X103376887Y-53867924D01*
X103044141Y-54365914D01*
X102927296Y-54953333D01*
X94107000Y-54953333D01*
X94107000Y-50553333D01*
X102962560Y-50553333D01*
X102962560Y-52353333D01*
X103011843Y-52601098D01*
X103152191Y-52811142D01*
X103362235Y-52951490D01*
X103610000Y-53000773D01*
X107210000Y-53000773D01*
X107457765Y-52951490D01*
X107667809Y-52811142D01*
X107808157Y-52601098D01*
X107857440Y-52353333D01*
X107857440Y-50553333D01*
X107808157Y-50305568D01*
X107667809Y-50095524D01*
X107457765Y-49955176D01*
X107210000Y-49905893D01*
X103610000Y-49905893D01*
X103362235Y-49955176D01*
X103152191Y-50095524D01*
X103011843Y-50305568D01*
X102962560Y-50553333D01*
X94107000Y-50553333D01*
X94107000Y-46004187D01*
X181444752Y-46004187D01*
X181662757Y-46531800D01*
X182066077Y-46935824D01*
X182593309Y-47154750D01*
X183164187Y-47155248D01*
X183691800Y-46937243D01*
X184095824Y-46533923D01*
X184118215Y-46480000D01*
X189230000Y-46480000D01*
X189520839Y-46422148D01*
X189767401Y-46257401D01*
X193354802Y-42670000D01*
X194734941Y-42670000D01*
X194936235Y-42871645D01*
X195353244Y-43044803D01*
X195702560Y-43045108D01*
X195702560Y-43680000D01*
X195751843Y-43927765D01*
X195892191Y-44137809D01*
X196090000Y-44269982D01*
X196090000Y-49567004D01*
X195175000Y-49567004D01*
X194927235Y-49616287D01*
X194717191Y-49756635D01*
X194576843Y-49966679D01*
X194527560Y-50214444D01*
X194527560Y-52014444D01*
X194576843Y-52262209D01*
X194717191Y-52472253D01*
X194927235Y-52612601D01*
X195175000Y-52661884D01*
X198775000Y-52661884D01*
X199022765Y-52612601D01*
X199232809Y-52472253D01*
X199373157Y-52262209D01*
X199422440Y-52014444D01*
X199422440Y-50214444D01*
X199373157Y-49966679D01*
X199232809Y-49756635D01*
X199022765Y-49616287D01*
X198775000Y-49567004D01*
X197610000Y-49567004D01*
X197610000Y-44269982D01*
X197807809Y-44137809D01*
X197948157Y-43927765D01*
X197997440Y-43680000D01*
X197997440Y-42680000D01*
X197948157Y-42432235D01*
X197807809Y-42222191D01*
X197597765Y-42081843D01*
X197350000Y-42032560D01*
X196714894Y-42032560D01*
X196715119Y-41774883D01*
X197074775Y-41775197D01*
X197492086Y-41602767D01*
X197811645Y-41283765D01*
X197984803Y-40866756D01*
X197985197Y-40415225D01*
X197812767Y-39997914D01*
X197493765Y-39678355D01*
X197076756Y-39505197D01*
X196625225Y-39504803D01*
X196207914Y-39677233D01*
X195888355Y-39996235D01*
X195715197Y-40413244D01*
X195714881Y-40775117D01*
X195355225Y-40774803D01*
X194937914Y-40947233D01*
X194734793Y-41150000D01*
X193040000Y-41150000D01*
X192749161Y-41207852D01*
X192502599Y-41372599D01*
X188915198Y-44960000D01*
X184118646Y-44960000D01*
X184097243Y-44908200D01*
X183693923Y-44504176D01*
X183166691Y-44285250D01*
X182595813Y-44284752D01*
X182068200Y-44502757D01*
X181664176Y-44906077D01*
X181445250Y-45433309D01*
X181444752Y-46004187D01*
X94107000Y-46004187D01*
X94107000Y-45421517D01*
X99578088Y-45421517D01*
X99646077Y-45662460D01*
X100165171Y-45847201D01*
X100715448Y-45819230D01*
X101093923Y-45662460D01*
X101161912Y-45421517D01*
X100370000Y-44629605D01*
X99578088Y-45421517D01*
X94107000Y-45421517D01*
X94107000Y-44245171D01*
X98972799Y-44245171D01*
X99000770Y-44795448D01*
X99157540Y-45173923D01*
X99398483Y-45241912D01*
X100190395Y-44450000D01*
X100549605Y-44450000D01*
X101341517Y-45241912D01*
X101582460Y-45173923D01*
X101742482Y-44724285D01*
X103984760Y-44724285D01*
X104195169Y-45233515D01*
X104584436Y-45623461D01*
X105093298Y-45834759D01*
X105644285Y-45835240D01*
X106153515Y-45624831D01*
X106543461Y-45235564D01*
X106754759Y-44726702D01*
X106755240Y-44175715D01*
X106544831Y-43666485D01*
X106155564Y-43276539D01*
X105646702Y-43065241D01*
X105095715Y-43064760D01*
X104586485Y-43275169D01*
X104196539Y-43664436D01*
X103985241Y-44173298D01*
X103984760Y-44724285D01*
X101742482Y-44724285D01*
X101767201Y-44654829D01*
X101739230Y-44104552D01*
X101582460Y-43726077D01*
X101341517Y-43658088D01*
X100549605Y-44450000D01*
X100190395Y-44450000D01*
X99398483Y-43658088D01*
X99157540Y-43726077D01*
X98972799Y-44245171D01*
X94107000Y-44245171D01*
X94107000Y-43478483D01*
X99578088Y-43478483D01*
X100370000Y-44270395D01*
X101161912Y-43478483D01*
X101093923Y-43237540D01*
X100574829Y-43052799D01*
X100024552Y-43080770D01*
X99646077Y-43237540D01*
X99578088Y-43478483D01*
X94107000Y-43478483D01*
X94107000Y-41611517D01*
X182128088Y-41611517D01*
X182196077Y-41852460D01*
X182715171Y-42037201D01*
X183265448Y-42009230D01*
X183643923Y-41852460D01*
X183711912Y-41611517D01*
X182920000Y-40819605D01*
X182128088Y-41611517D01*
X94107000Y-41611517D01*
X94107000Y-40435171D01*
X181522799Y-40435171D01*
X181550770Y-40985448D01*
X181707540Y-41363923D01*
X181948483Y-41431912D01*
X182740395Y-40640000D01*
X183099605Y-40640000D01*
X183891517Y-41431912D01*
X184132460Y-41363923D01*
X184292482Y-40914285D01*
X186534760Y-40914285D01*
X186745169Y-41423515D01*
X187134436Y-41813461D01*
X187643298Y-42024759D01*
X188194285Y-42025240D01*
X188703515Y-41814831D01*
X189093461Y-41425564D01*
X189304759Y-40916702D01*
X189305240Y-40365715D01*
X189094831Y-39856485D01*
X188705564Y-39466539D01*
X188196702Y-39255241D01*
X187645715Y-39254760D01*
X187136485Y-39465169D01*
X186746539Y-39854436D01*
X186535241Y-40363298D01*
X186534760Y-40914285D01*
X184292482Y-40914285D01*
X184317201Y-40844829D01*
X184289230Y-40294552D01*
X184132460Y-39916077D01*
X183891517Y-39848088D01*
X183099605Y-40640000D01*
X182740395Y-40640000D01*
X181948483Y-39848088D01*
X181707540Y-39916077D01*
X181522799Y-40435171D01*
X94107000Y-40435171D01*
X94107000Y-39668483D01*
X182128088Y-39668483D01*
X182920000Y-40460395D01*
X183711912Y-39668483D01*
X183643923Y-39427540D01*
X183124829Y-39242799D01*
X182574552Y-39270770D01*
X182196077Y-39427540D01*
X182128088Y-39668483D01*
X94107000Y-39668483D01*
X94107000Y-30607000D01*
X205613000Y-30607000D01*
X205613000Y-151003000D01*
X205613000Y-151003000D01*
G37*
X205613000Y-151003000D02*
X94107000Y-151003000D01*
X94107000Y-141984737D01*
X103018964Y-141984737D01*
X103043244Y-142090083D01*
X103334788Y-142615603D01*
X103805248Y-142989551D01*
X104383000Y-143154997D01*
X105283000Y-143154997D01*
X105283000Y-141746997D01*
X105537000Y-141746997D01*
X105537000Y-143154997D01*
X106437000Y-143154997D01*
X107014752Y-142989551D01*
X107485212Y-142615603D01*
X107776756Y-142090083D01*
X107801036Y-141984737D01*
X107680378Y-141746997D01*
X105537000Y-141746997D01*
X105283000Y-141746997D01*
X103139622Y-141746997D01*
X103018964Y-141984737D01*
X94107000Y-141984737D01*
X94107000Y-141255257D01*
X103018964Y-141255257D01*
X103139622Y-141492997D01*
X105283000Y-141492997D01*
X105283000Y-140084997D01*
X105537000Y-140084997D01*
X105537000Y-141492997D01*
X107680378Y-141492997D01*
X107801036Y-141255257D01*
X107776756Y-141149911D01*
X107485212Y-140624391D01*
X107014752Y-140250443D01*
X106437000Y-140084997D01*
X105537000Y-140084997D01*
X105283000Y-140084997D01*
X104383000Y-140084997D01*
X103805248Y-140250443D01*
X103334788Y-140624391D01*
X103043244Y-141149911D01*
X103018964Y-141255257D01*
X94107000Y-141255257D01*
X94107000Y-128588181D01*
X99578088Y-128588181D01*
X99646077Y-128829124D01*
X100165171Y-129013865D01*
X100715448Y-128985894D01*
X101093923Y-128829124D01*
X101161912Y-128588181D01*
X100370000Y-127796269D01*
X99578088Y-128588181D01*
X94107000Y-128588181D01*
X94107000Y-127411835D01*
X98972799Y-127411835D01*
X99000770Y-127962112D01*
X99157540Y-128340587D01*
X99398483Y-128408576D01*
X100190395Y-127616664D01*
X100549605Y-127616664D01*
X101341517Y-128408576D01*
X101582460Y-128340587D01*
X101742482Y-127890949D01*
X103984760Y-127890949D01*
X104195169Y-128400179D01*
X104584436Y-128790125D01*
X105093298Y-129001423D01*
X105644285Y-129001904D01*
X106153515Y-128791495D01*
X106543461Y-128402228D01*
X106754759Y-127893366D01*
X106755240Y-127342379D01*
X106544831Y-126833149D01*
X106155564Y-126443203D01*
X105646702Y-126231905D01*
X105095715Y-126231424D01*
X104586485Y-126441833D01*
X104196539Y-126831100D01*
X103985241Y-127339962D01*
X103984760Y-127890949D01*
X101742482Y-127890949D01*
X101767201Y-127821493D01*
X101739230Y-127271216D01*
X101582460Y-126892741D01*
X101341517Y-126824752D01*
X100549605Y-127616664D01*
X100190395Y-127616664D01*
X99398483Y-126824752D01*
X99157540Y-126892741D01*
X98972799Y-127411835D01*
X94107000Y-127411835D01*
X94107000Y-126645147D01*
X99578088Y-126645147D01*
X100370000Y-127437059D01*
X101161912Y-126645147D01*
X101093923Y-126404204D01*
X100574829Y-126219463D01*
X100024552Y-126247434D01*
X99646077Y-126404204D01*
X99578088Y-126645147D01*
X94107000Y-126645147D01*
X94107000Y-121193071D01*
X103018964Y-121193071D01*
X103043244Y-121298417D01*
X103334788Y-121823937D01*
X103805248Y-122197885D01*
X104383000Y-122363331D01*
X105283000Y-122363331D01*
X105283000Y-120955331D01*
X105537000Y-120955331D01*
X105537000Y-122363331D01*
X106437000Y-122363331D01*
X107014752Y-122197885D01*
X107485212Y-121823937D01*
X107776756Y-121298417D01*
X107801036Y-121193071D01*
X107680378Y-120955331D01*
X105537000Y-120955331D01*
X105283000Y-120955331D01*
X103139622Y-120955331D01*
X103018964Y-121193071D01*
X94107000Y-121193071D01*
X94107000Y-120463591D01*
X103018964Y-120463591D01*
X103139622Y-120701331D01*
X105283000Y-120701331D01*
X105283000Y-119293331D01*
X105537000Y-119293331D01*
X105537000Y-120701331D01*
X107680378Y-120701331D01*
X107801036Y-120463591D01*
X107776756Y-120358245D01*
X107485212Y-119832725D01*
X107014752Y-119458777D01*
X106437000Y-119293331D01*
X105537000Y-119293331D01*
X105283000Y-119293331D01*
X104383000Y-119293331D01*
X103805248Y-119458777D01*
X103334788Y-119832725D01*
X103043244Y-120358245D01*
X103018964Y-120463591D01*
X94107000Y-120463591D01*
X94107000Y-112928331D01*
X102962560Y-112928331D01*
X102962560Y-114728331D01*
X103011843Y-114976096D01*
X103152191Y-115186140D01*
X103362235Y-115326488D01*
X103610000Y-115375771D01*
X107210000Y-115375771D01*
X107457765Y-115326488D01*
X107667809Y-115186140D01*
X107808157Y-114976096D01*
X107857440Y-114728331D01*
X107857440Y-112928331D01*
X107808157Y-112680566D01*
X107667809Y-112470522D01*
X107457765Y-112330174D01*
X107210000Y-112280891D01*
X103610000Y-112280891D01*
X103362235Y-112330174D01*
X103152191Y-112470522D01*
X103011843Y-112680566D01*
X102962560Y-112928331D01*
X94107000Y-112928331D01*
X94107000Y-107891015D01*
X99578088Y-107891015D01*
X99646077Y-108131958D01*
X100165171Y-108316699D01*
X100715448Y-108288728D01*
X101093923Y-108131958D01*
X101161912Y-107891015D01*
X100370000Y-107099103D01*
X99578088Y-107891015D01*
X94107000Y-107891015D01*
X94107000Y-106714669D01*
X98972799Y-106714669D01*
X99000770Y-107264946D01*
X99157540Y-107643421D01*
X99398483Y-107711410D01*
X100190395Y-106919498D01*
X100549605Y-106919498D01*
X101341517Y-107711410D01*
X101582460Y-107643421D01*
X101742482Y-107193783D01*
X103984760Y-107193783D01*
X104195169Y-107703013D01*
X104584436Y-108092959D01*
X105093298Y-108304257D01*
X105644285Y-108304738D01*
X106153515Y-108094329D01*
X106543461Y-107705062D01*
X106754759Y-107196200D01*
X106755240Y-106645213D01*
X106544831Y-106135983D01*
X106155564Y-105746037D01*
X105646702Y-105534739D01*
X105095715Y-105534258D01*
X104586485Y-105744667D01*
X104196539Y-106133934D01*
X103985241Y-106642796D01*
X103984760Y-107193783D01*
X101742482Y-107193783D01*
X101767201Y-107124327D01*
X101739230Y-106574050D01*
X101582460Y-106195575D01*
X101341517Y-106127586D01*
X100549605Y-106919498D01*
X100190395Y-106919498D01*
X99398483Y-106127586D01*
X99157540Y-106195575D01*
X98972799Y-106714669D01*
X94107000Y-106714669D01*
X94107000Y-105947981D01*
X99578088Y-105947981D01*
X100370000Y-106739893D01*
X101161912Y-105947981D01*
X101093923Y-105707038D01*
X100574829Y-105522297D01*
X100024552Y-105550268D01*
X99646077Y-105707038D01*
X99578088Y-105947981D01*
X94107000Y-105947981D01*
X94107000Y-100401405D01*
X103018964Y-100401405D01*
X103043244Y-100506751D01*
X103334788Y-101032271D01*
X103805248Y-101406219D01*
X104383000Y-101571665D01*
X105283000Y-101571665D01*
X105283000Y-100163665D01*
X105537000Y-100163665D01*
X105537000Y-101571665D01*
X106437000Y-101571665D01*
X107014752Y-101406219D01*
X107485212Y-101032271D01*
X107776756Y-100506751D01*
X107801036Y-100401405D01*
X107680378Y-100163665D01*
X105537000Y-100163665D01*
X105283000Y-100163665D01*
X103139622Y-100163665D01*
X103018964Y-100401405D01*
X94107000Y-100401405D01*
X94107000Y-99671925D01*
X103018964Y-99671925D01*
X103139622Y-99909665D01*
X105283000Y-99909665D01*
X105283000Y-98501665D01*
X105537000Y-98501665D01*
X105537000Y-99909665D01*
X107680378Y-99909665D01*
X107801036Y-99671925D01*
X107776756Y-99566579D01*
X107485212Y-99041059D01*
X107014752Y-98667111D01*
X106437000Y-98501665D01*
X105537000Y-98501665D01*
X105283000Y-98501665D01*
X104383000Y-98501665D01*
X103805248Y-98667111D01*
X103334788Y-99041059D01*
X103043244Y-99566579D01*
X103018964Y-99671925D01*
X94107000Y-99671925D01*
X94107000Y-92136665D01*
X102962560Y-92136665D01*
X102962560Y-93936665D01*
X103011843Y-94184430D01*
X103152191Y-94394474D01*
X103362235Y-94534822D01*
X103610000Y-94584105D01*
X107210000Y-94584105D01*
X107457765Y-94534822D01*
X107667809Y-94394474D01*
X107808157Y-94184430D01*
X107857440Y-93936665D01*
X107857440Y-92136665D01*
X107808157Y-91888900D01*
X107667809Y-91678856D01*
X107457765Y-91538508D01*
X107210000Y-91489225D01*
X103610000Y-91489225D01*
X103362235Y-91538508D01*
X103152191Y-91678856D01*
X103011843Y-91888900D01*
X102962560Y-92136665D01*
X94107000Y-92136665D01*
X94107000Y-87004849D01*
X99578088Y-87004849D01*
X99646077Y-87245792D01*
X100165171Y-87430533D01*
X100715448Y-87402562D01*
X101093923Y-87245792D01*
X101161912Y-87004849D01*
X100370000Y-86212937D01*
X99578088Y-87004849D01*
X94107000Y-87004849D01*
X94107000Y-85828503D01*
X98972799Y-85828503D01*
X99000770Y-86378780D01*
X99157540Y-86757255D01*
X99398483Y-86825244D01*
X100190395Y-86033332D01*
X100549605Y-86033332D01*
X101341517Y-86825244D01*
X101582460Y-86757255D01*
X101742482Y-86307617D01*
X103984760Y-86307617D01*
X104195169Y-86816847D01*
X104584436Y-87206793D01*
X105093298Y-87418091D01*
X105644285Y-87418572D01*
X106153515Y-87208163D01*
X106543461Y-86818896D01*
X106754759Y-86310034D01*
X106755240Y-85759047D01*
X106544831Y-85249817D01*
X106155564Y-84859871D01*
X105646702Y-84648573D01*
X105095715Y-84648092D01*
X104586485Y-84858501D01*
X104196539Y-85247768D01*
X103985241Y-85756630D01*
X103984760Y-86307617D01*
X101742482Y-86307617D01*
X101767201Y-86238161D01*
X101739230Y-85687884D01*
X101582460Y-85309409D01*
X101341517Y-85241420D01*
X100549605Y-86033332D01*
X100190395Y-86033332D01*
X99398483Y-85241420D01*
X99157540Y-85309409D01*
X98972799Y-85828503D01*
X94107000Y-85828503D01*
X94107000Y-85061815D01*
X99578088Y-85061815D01*
X100370000Y-85853727D01*
X101161912Y-85061815D01*
X101093923Y-84820872D01*
X100574829Y-84636131D01*
X100024552Y-84664102D01*
X99646077Y-84820872D01*
X99578088Y-85061815D01*
X94107000Y-85061815D01*
X94107000Y-79609739D01*
X103018964Y-79609739D01*
X103043244Y-79715085D01*
X103334788Y-80240605D01*
X103805248Y-80614553D01*
X104383000Y-80779999D01*
X105283000Y-80779999D01*
X105283000Y-79371999D01*
X105537000Y-79371999D01*
X105537000Y-80779999D01*
X106437000Y-80779999D01*
X107014752Y-80614553D01*
X107485212Y-80240605D01*
X107776756Y-79715085D01*
X107801036Y-79609739D01*
X107680378Y-79371999D01*
X105537000Y-79371999D01*
X105283000Y-79371999D01*
X103139622Y-79371999D01*
X103018964Y-79609739D01*
X94107000Y-79609739D01*
X94107000Y-78880259D01*
X103018964Y-78880259D01*
X103139622Y-79117999D01*
X105283000Y-79117999D01*
X105283000Y-77709999D01*
X105537000Y-77709999D01*
X105537000Y-79117999D01*
X107680378Y-79117999D01*
X107801036Y-78880259D01*
X107776756Y-78774913D01*
X107485212Y-78249393D01*
X107014752Y-77875445D01*
X106437000Y-77709999D01*
X105537000Y-77709999D01*
X105283000Y-77709999D01*
X104383000Y-77709999D01*
X103805248Y-77875445D01*
X103334788Y-78249393D01*
X103043244Y-78774913D01*
X103018964Y-78880259D01*
X94107000Y-78880259D01*
X94107000Y-71344999D01*
X102962560Y-71344999D01*
X102962560Y-73144999D01*
X103011843Y-73392764D01*
X103152191Y-73602808D01*
X103362235Y-73743156D01*
X103610000Y-73792439D01*
X107210000Y-73792439D01*
X107457765Y-73743156D01*
X107667809Y-73602808D01*
X107808157Y-73392764D01*
X107857440Y-73144999D01*
X107857440Y-71344999D01*
X107808157Y-71097234D01*
X107667809Y-70887190D01*
X107457765Y-70746842D01*
X107210000Y-70697559D01*
X103610000Y-70697559D01*
X103362235Y-70746842D01*
X103152191Y-70887190D01*
X103011843Y-71097234D01*
X102962560Y-71344999D01*
X94107000Y-71344999D01*
X94107000Y-66213183D01*
X99578088Y-66213183D01*
X99646077Y-66454126D01*
X100165171Y-66638867D01*
X100715448Y-66610896D01*
X101093923Y-66454126D01*
X101161912Y-66213183D01*
X100370000Y-65421271D01*
X99578088Y-66213183D01*
X94107000Y-66213183D01*
X94107000Y-65036837D01*
X98972799Y-65036837D01*
X99000770Y-65587114D01*
X99157540Y-65965589D01*
X99398483Y-66033578D01*
X100190395Y-65241666D01*
X100549605Y-65241666D01*
X101341517Y-66033578D01*
X101582460Y-65965589D01*
X101742482Y-65515951D01*
X103984760Y-65515951D01*
X104195169Y-66025181D01*
X104584436Y-66415127D01*
X105093298Y-66626425D01*
X105644285Y-66626906D01*
X106153515Y-66416497D01*
X106543461Y-66027230D01*
X106754759Y-65518368D01*
X106755240Y-64967381D01*
X106544831Y-64458151D01*
X106155564Y-64068205D01*
X105646702Y-63856907D01*
X105095715Y-63856426D01*
X104586485Y-64066835D01*
X104196539Y-64456102D01*
X103985241Y-64964964D01*
X103984760Y-65515951D01*
X101742482Y-65515951D01*
X101767201Y-65446495D01*
X101739230Y-64896218D01*
X101582460Y-64517743D01*
X101341517Y-64449754D01*
X100549605Y-65241666D01*
X100190395Y-65241666D01*
X99398483Y-64449754D01*
X99157540Y-64517743D01*
X98972799Y-65036837D01*
X94107000Y-65036837D01*
X94107000Y-64270149D01*
X99578088Y-64270149D01*
X100370000Y-65062061D01*
X101161912Y-64270149D01*
X101093923Y-64029206D01*
X100574829Y-63844465D01*
X100024552Y-63872436D01*
X99646077Y-64029206D01*
X99578088Y-64270149D01*
X94107000Y-64270149D01*
X94107000Y-58818073D01*
X103018964Y-58818073D01*
X103043244Y-58923419D01*
X103334788Y-59448939D01*
X103805248Y-59822887D01*
X104383000Y-59988333D01*
X105283000Y-59988333D01*
X105283000Y-58580333D01*
X105537000Y-58580333D01*
X105537000Y-59988333D01*
X106437000Y-59988333D01*
X107014752Y-59822887D01*
X107485212Y-59448939D01*
X107776756Y-58923419D01*
X107801036Y-58818073D01*
X107680378Y-58580333D01*
X105537000Y-58580333D01*
X105283000Y-58580333D01*
X103139622Y-58580333D01*
X103018964Y-58818073D01*
X94107000Y-58818073D01*
X94107000Y-58088593D01*
X103018964Y-58088593D01*
X103139622Y-58326333D01*
X105283000Y-58326333D01*
X105283000Y-56918333D01*
X105537000Y-56918333D01*
X105537000Y-58326333D01*
X107680378Y-58326333D01*
X107801036Y-58088593D01*
X107776756Y-57983247D01*
X107485212Y-57457727D01*
X107014752Y-57083779D01*
X106437000Y-56918333D01*
X105537000Y-56918333D01*
X105283000Y-56918333D01*
X104383000Y-56918333D01*
X103805248Y-57083779D01*
X103334788Y-57457727D01*
X103043244Y-57983247D01*
X103018964Y-58088593D01*
X94107000Y-58088593D01*
X94107000Y-54953333D01*
X102927296Y-54953333D01*
X103044141Y-55540752D01*
X103376887Y-56038742D01*
X103874877Y-56371488D01*
X104462296Y-56488333D01*
X106357704Y-56488333D01*
X106613292Y-56437493D01*
X119815000Y-69639202D01*
X119815000Y-83820000D01*
X119878561Y-84139541D01*
X120005822Y-84330000D01*
X120059566Y-84410434D01*
X121307066Y-85657934D01*
X121577959Y-85838939D01*
X121897500Y-85902500D01*
X122511565Y-85902500D01*
X122849437Y-86240961D01*
X123081871Y-86337476D01*
X122851486Y-86432669D01*
X122511062Y-86772500D01*
X120973368Y-86772500D01*
X109355433Y-75154565D01*
X109084540Y-74973560D01*
X108764999Y-74909999D01*
X107610431Y-74909999D01*
X107443113Y-74659590D01*
X106945123Y-74326844D01*
X106357704Y-74209999D01*
X104462296Y-74209999D01*
X103874877Y-74326844D01*
X103376887Y-74659590D01*
X103044141Y-75157580D01*
X102927296Y-75744999D01*
X103044141Y-76332418D01*
X103376887Y-76830408D01*
X103874877Y-77163154D01*
X104462296Y-77279999D01*
X106357704Y-77279999D01*
X106945123Y-77163154D01*
X107443113Y-76830408D01*
X107610431Y-76579999D01*
X108419131Y-76579999D01*
X120037066Y-88197934D01*
X120307959Y-88378939D01*
X120627500Y-88442500D01*
X122511565Y-88442500D01*
X122849437Y-88780961D01*
X123081871Y-88877476D01*
X122851486Y-88972669D01*
X122511062Y-89312500D01*
X120672500Y-89312500D01*
X120352960Y-89376060D01*
X120082066Y-89557066D01*
X113937467Y-95701665D01*
X107610431Y-95701665D01*
X107443113Y-95451256D01*
X106945123Y-95118510D01*
X106357704Y-95001665D01*
X104462296Y-95001665D01*
X103874877Y-95118510D01*
X103376887Y-95451256D01*
X103044141Y-95949246D01*
X102927296Y-96536665D01*
X103044141Y-97124084D01*
X103376887Y-97622074D01*
X103874877Y-97954820D01*
X104462296Y-98071665D01*
X106357704Y-98071665D01*
X106945123Y-97954820D01*
X107443113Y-97622074D01*
X107610431Y-97371665D01*
X114283335Y-97371665D01*
X114602876Y-97308104D01*
X114873769Y-97127099D01*
X121018368Y-90982500D01*
X122511565Y-90982500D01*
X122849437Y-91320961D01*
X123081871Y-91417476D01*
X122851486Y-91512669D01*
X122511062Y-91852500D01*
X121942500Y-91852500D01*
X121622959Y-91916061D01*
X121352066Y-92097066D01*
X120059566Y-93389566D01*
X119878561Y-93660459D01*
X119815000Y-93980000D01*
X119815000Y-103942463D01*
X107471723Y-116285740D01*
X107443113Y-116242922D01*
X106945123Y-115910176D01*
X106357704Y-115793331D01*
X104462296Y-115793331D01*
X103874877Y-115910176D01*
X103376887Y-116242922D01*
X103044141Y-116740912D01*
X102927296Y-117328331D01*
X103044141Y-117915750D01*
X103376887Y-118413740D01*
X103874877Y-118746486D01*
X104462296Y-118863331D01*
X106357704Y-118863331D01*
X106945123Y-118746486D01*
X107443113Y-118413740D01*
X107610497Y-118163232D01*
X107929541Y-118099770D01*
X108200434Y-117918765D01*
X121240434Y-104878765D01*
X121264901Y-104842148D01*
X121421439Y-104607872D01*
X121485000Y-104288331D01*
X121485000Y-94325868D01*
X122288368Y-93522500D01*
X122511565Y-93522500D01*
X122849437Y-93860961D01*
X123081871Y-93957476D01*
X122851486Y-94052669D01*
X122461540Y-94441936D01*
X122250242Y-94950798D01*
X122249761Y-95501785D01*
X122460170Y-96011015D01*
X122849437Y-96400961D01*
X123081871Y-96497476D01*
X122851486Y-96592669D01*
X122461540Y-96981936D01*
X122250242Y-97490798D01*
X122249761Y-98041785D01*
X122460170Y-98551015D01*
X122849437Y-98940961D01*
X123081871Y-99037476D01*
X122851486Y-99132669D01*
X122461540Y-99521936D01*
X122250242Y-100030798D01*
X122249761Y-100581785D01*
X122460170Y-101091015D01*
X122849437Y-101480961D01*
X123081871Y-101577476D01*
X122851486Y-101672669D01*
X122461540Y-102061936D01*
X122250242Y-102570798D01*
X122249761Y-103121785D01*
X122460170Y-103631015D01*
X122849437Y-104020961D01*
X123081871Y-104117476D01*
X122851486Y-104212669D01*
X122461540Y-104601936D01*
X122250242Y-105110798D01*
X122249761Y-105661785D01*
X122460170Y-106171015D01*
X122849437Y-106560961D01*
X123081871Y-106657476D01*
X122851486Y-106752669D01*
X122511062Y-107092500D01*
X121942500Y-107092500D01*
X121622959Y-107156061D01*
X121398208Y-107306235D01*
X121352066Y-107337066D01*
X120059566Y-108629566D01*
X119878561Y-108900459D01*
X119815000Y-109220000D01*
X119815000Y-123434128D01*
X107857440Y-135391689D01*
X107857440Y-133719997D01*
X107808157Y-133472232D01*
X107667809Y-133262188D01*
X107457765Y-133121840D01*
X107210000Y-133072557D01*
X103610000Y-133072557D01*
X103362235Y-133121840D01*
X103152191Y-133262188D01*
X103011843Y-133472232D01*
X102962560Y-133719997D01*
X102962560Y-135519997D01*
X103011843Y-135767762D01*
X103152191Y-135977806D01*
X103362235Y-136118154D01*
X103610000Y-136167437D01*
X107081692Y-136167437D01*
X106613292Y-136635837D01*
X106357704Y-136584997D01*
X104462296Y-136584997D01*
X103874877Y-136701842D01*
X103376887Y-137034588D01*
X103044141Y-137532578D01*
X102927296Y-138119997D01*
X103044141Y-138707416D01*
X103376887Y-139205406D01*
X103874877Y-139538152D01*
X104462296Y-139654997D01*
X106357704Y-139654997D01*
X106945123Y-139538152D01*
X107443113Y-139205406D01*
X107775859Y-138707416D01*
X107892704Y-138119997D01*
X107826035Y-137784830D01*
X116391848Y-129219017D01*
X122843089Y-129219017D01*
X122911078Y-129459960D01*
X123430172Y-129644701D01*
X123980449Y-129616730D01*
X124358924Y-129459960D01*
X124426913Y-129219017D01*
X123635001Y-128427105D01*
X122843089Y-129219017D01*
X116391848Y-129219017D01*
X117568194Y-128042671D01*
X122237800Y-128042671D01*
X122265771Y-128592948D01*
X122422541Y-128971423D01*
X122663484Y-129039412D01*
X123455396Y-128247500D01*
X123814606Y-128247500D01*
X124606518Y-129039412D01*
X124847461Y-128971423D01*
X125032202Y-128452329D01*
X125004231Y-127902052D01*
X124847461Y-127523577D01*
X124606518Y-127455588D01*
X123814606Y-128247500D01*
X123455396Y-128247500D01*
X122663484Y-127455588D01*
X122422541Y-127523577D01*
X122237800Y-128042671D01*
X117568194Y-128042671D01*
X121240434Y-124370432D01*
X121330936Y-124234985D01*
X121421439Y-124099538D01*
X121485000Y-123779997D01*
X121485000Y-109565868D01*
X122288368Y-108762500D01*
X122511565Y-108762500D01*
X122849437Y-109100961D01*
X123081871Y-109197476D01*
X122851486Y-109292669D01*
X122461540Y-109681936D01*
X122250242Y-110190798D01*
X122249761Y-110741785D01*
X122460170Y-111251015D01*
X122849437Y-111640961D01*
X123081871Y-111737476D01*
X122851486Y-111832669D01*
X122461540Y-112221936D01*
X122250242Y-112730798D01*
X122249761Y-113281785D01*
X122460170Y-113791015D01*
X122849437Y-114180961D01*
X123081871Y-114277476D01*
X122851486Y-114372669D01*
X122461540Y-114761936D01*
X122250242Y-115270798D01*
X122249761Y-115821785D01*
X122460170Y-116331015D01*
X122849437Y-116720961D01*
X123081871Y-116817476D01*
X122851486Y-116912669D01*
X122461540Y-117301936D01*
X122250242Y-117810798D01*
X122249761Y-118361785D01*
X122460170Y-118871015D01*
X122849437Y-119260961D01*
X123081871Y-119357476D01*
X122851486Y-119452669D01*
X122461540Y-119841936D01*
X122250242Y-120350798D01*
X122249761Y-120901785D01*
X122460170Y-121411015D01*
X122849437Y-121800961D01*
X123081871Y-121897476D01*
X122851486Y-121992669D01*
X122461540Y-122381936D01*
X122250242Y-122890798D01*
X122249761Y-123441785D01*
X122460170Y-123951015D01*
X122849437Y-124340961D01*
X123081871Y-124437476D01*
X122851486Y-124532669D01*
X122461540Y-124921936D01*
X122250242Y-125430798D01*
X122249761Y-125981785D01*
X122460170Y-126491015D01*
X122849437Y-126880961D01*
X123065980Y-126970877D01*
X122911078Y-127035040D01*
X122843089Y-127275983D01*
X123635001Y-128067895D01*
X124426913Y-127275983D01*
X124358924Y-127035040D01*
X124192380Y-126975768D01*
X124418516Y-126882331D01*
X124808462Y-126493064D01*
X125019760Y-125984202D01*
X125020241Y-125433215D01*
X124809832Y-124923985D01*
X124420565Y-124534039D01*
X124188131Y-124437524D01*
X124418516Y-124342331D01*
X124808462Y-123953064D01*
X125019760Y-123444202D01*
X125020241Y-122893215D01*
X124809832Y-122383985D01*
X124420565Y-121994039D01*
X124188131Y-121897524D01*
X124418516Y-121802331D01*
X124808462Y-121413064D01*
X125019760Y-120904202D01*
X125020241Y-120353215D01*
X124809832Y-119843985D01*
X124420565Y-119454039D01*
X124188131Y-119357524D01*
X124418516Y-119262331D01*
X124808462Y-118873064D01*
X125019760Y-118364202D01*
X125020241Y-117813215D01*
X124809832Y-117303985D01*
X124420565Y-116914039D01*
X124188131Y-116817524D01*
X124418516Y-116722331D01*
X124808462Y-116333064D01*
X125019760Y-115824202D01*
X125020241Y-115273215D01*
X124809832Y-114763985D01*
X124420565Y-114374039D01*
X124188131Y-114277524D01*
X124418516Y-114182331D01*
X124808462Y-113793064D01*
X125019760Y-113284202D01*
X125020241Y-112733215D01*
X124809832Y-112223985D01*
X124420565Y-111834039D01*
X124188131Y-111737524D01*
X124418516Y-111642331D01*
X124808462Y-111253064D01*
X125019760Y-110744202D01*
X125020241Y-110193215D01*
X124809832Y-109683985D01*
X124420565Y-109294039D01*
X124188131Y-109197524D01*
X124418516Y-109102331D01*
X124808462Y-108713064D01*
X125019760Y-108204202D01*
X125020241Y-107653215D01*
X124809832Y-107143985D01*
X124420565Y-106754039D01*
X124188131Y-106657524D01*
X124418516Y-106562331D01*
X124808462Y-106173064D01*
X125019760Y-105664202D01*
X125020241Y-105113215D01*
X124809832Y-104603985D01*
X124420565Y-104214039D01*
X124188131Y-104117524D01*
X124418516Y-104022331D01*
X124736401Y-103705000D01*
X125384132Y-103705000D01*
X126165000Y-104485868D01*
X126165000Y-141894132D01*
X123869566Y-144189566D01*
X123688561Y-144460459D01*
X123625000Y-144780000D01*
X123625000Y-146097159D01*
X123409946Y-146240853D01*
X123088039Y-146722622D01*
X122975000Y-147290907D01*
X122975000Y-147349093D01*
X123088039Y-147917378D01*
X123409946Y-148399147D01*
X123891715Y-148721054D01*
X124460000Y-148834093D01*
X125028285Y-148721054D01*
X125510054Y-148399147D01*
X125737702Y-148058447D01*
X125804817Y-148201358D01*
X126233076Y-148591645D01*
X126643110Y-148761476D01*
X126873000Y-148640155D01*
X126873000Y-147447000D01*
X126853000Y-147447000D01*
X126853000Y-147193000D01*
X126873000Y-147193000D01*
X126873000Y-145999845D01*
X126643110Y-145878524D01*
X126233076Y-146048355D01*
X125804817Y-146438642D01*
X125737702Y-146581553D01*
X125510054Y-146240853D01*
X125295000Y-146097159D01*
X125295000Y-145125868D01*
X127590434Y-142830434D01*
X127605523Y-142807852D01*
X127771439Y-142559541D01*
X127835000Y-142240000D01*
X127835000Y-104140000D01*
X127771439Y-103820459D01*
X127590434Y-103549566D01*
X126320434Y-102279566D01*
X126286760Y-102257066D01*
X126049541Y-102098561D01*
X125730000Y-102035000D01*
X124780897Y-102035000D01*
X124420565Y-101674039D01*
X124188131Y-101577524D01*
X124418516Y-101482331D01*
X124758940Y-101142500D01*
X126631632Y-101142500D01*
X128705000Y-103215868D01*
X128705000Y-145822560D01*
X128690000Y-145822560D01*
X128442235Y-145871843D01*
X128232191Y-146012191D01*
X128091843Y-146222235D01*
X128071261Y-146325708D01*
X127766924Y-146048355D01*
X127356890Y-145878524D01*
X127127000Y-145999845D01*
X127127000Y-147193000D01*
X127147000Y-147193000D01*
X127147000Y-147447000D01*
X127127000Y-147447000D01*
X127127000Y-148640155D01*
X127356890Y-148761476D01*
X127766924Y-148591645D01*
X128071261Y-148314292D01*
X128091843Y-148417765D01*
X128232191Y-148627809D01*
X128442235Y-148768157D01*
X128690000Y-148817440D01*
X130390000Y-148817440D01*
X130637765Y-148768157D01*
X130847809Y-148627809D01*
X130988157Y-148417765D01*
X131037440Y-148170000D01*
X131037440Y-146470000D01*
X130988157Y-146222235D01*
X130847809Y-146012191D01*
X130637765Y-145871843D01*
X130390000Y-145822560D01*
X130375000Y-145822560D01*
X130375000Y-138430000D01*
X150370000Y-138430000D01*
X150370000Y-139700000D01*
X150427852Y-139990839D01*
X150592599Y-140237401D01*
X152248229Y-141893031D01*
X152185000Y-142210907D01*
X152185000Y-142269093D01*
X152298039Y-142837378D01*
X152619946Y-143319147D01*
X153101715Y-143641054D01*
X153670000Y-143754093D01*
X154238285Y-143641054D01*
X154720054Y-143319147D01*
X154940000Y-142989974D01*
X155159946Y-143319147D01*
X155450678Y-143513407D01*
X155507852Y-143800839D01*
X155672599Y-144047401D01*
X156942599Y-145317401D01*
X157189160Y-145482148D01*
X157480000Y-145540000D01*
X163830000Y-145540000D01*
X164120839Y-145482148D01*
X164367401Y-145317401D01*
X166907401Y-142777401D01*
X167072148Y-142530840D01*
X167098157Y-142400082D01*
X167130000Y-142240000D01*
X167130000Y-135890000D01*
X167072148Y-135599161D01*
X166907401Y-135352599D01*
X163973256Y-132418454D01*
X163994750Y-132366691D01*
X163995248Y-131795813D01*
X163777243Y-131268200D01*
X163373923Y-130864176D01*
X163320000Y-130841785D01*
X163320000Y-129428375D01*
X163529723Y-129219017D01*
X168563089Y-129219017D01*
X168631078Y-129459960D01*
X169150172Y-129644701D01*
X169700449Y-129616730D01*
X170078924Y-129459960D01*
X170146913Y-129219017D01*
X169355001Y-128427105D01*
X168563089Y-129219017D01*
X163529723Y-129219017D01*
X163693461Y-129055564D01*
X163904759Y-128546702D01*
X163905199Y-128042671D01*
X167957800Y-128042671D01*
X167985771Y-128592948D01*
X168142541Y-128971423D01*
X168383484Y-129039412D01*
X169175396Y-128247500D01*
X169534606Y-128247500D01*
X170326518Y-129039412D01*
X170567461Y-128971423D01*
X170752202Y-128452329D01*
X170724231Y-127902052D01*
X170567461Y-127523577D01*
X170326518Y-127455588D01*
X169534606Y-128247500D01*
X169175396Y-128247500D01*
X168383484Y-127455588D01*
X168142541Y-127523577D01*
X167957800Y-128042671D01*
X163905199Y-128042671D01*
X163905240Y-127995715D01*
X163694831Y-127486485D01*
X163305564Y-127096539D01*
X162796702Y-126885241D01*
X162245715Y-126884760D01*
X161736485Y-127095169D01*
X161346539Y-127484436D01*
X161135241Y-127993298D01*
X161134760Y-128544285D01*
X161345169Y-129053515D01*
X161734436Y-129443461D01*
X161800000Y-129470686D01*
X161800000Y-130841354D01*
X161748200Y-130862757D01*
X161344176Y-131266077D01*
X161125250Y-131793309D01*
X161124752Y-132364187D01*
X161342757Y-132891800D01*
X161746077Y-133295824D01*
X162273309Y-133514750D01*
X162844187Y-133515248D01*
X162898149Y-133492951D01*
X165610000Y-136204802D01*
X165610000Y-141925198D01*
X163515198Y-144020000D01*
X157794802Y-144020000D01*
X157160481Y-143385679D01*
X157260054Y-143319147D01*
X157480000Y-142989974D01*
X157699946Y-143319147D01*
X158181715Y-143641054D01*
X158750000Y-143754093D01*
X159318285Y-143641054D01*
X159800054Y-143319147D01*
X160020000Y-142989974D01*
X160239946Y-143319147D01*
X160721715Y-143641054D01*
X161290000Y-143754093D01*
X161858285Y-143641054D01*
X162340054Y-143319147D01*
X162661961Y-142837378D01*
X162775000Y-142269093D01*
X162775000Y-142210907D01*
X162661961Y-141642622D01*
X162340054Y-141160853D01*
X162336357Y-141158383D01*
X162387765Y-141148157D01*
X162597809Y-141007809D01*
X162738157Y-140797765D01*
X162787440Y-140550000D01*
X162787440Y-138850000D01*
X162738157Y-138602235D01*
X162597809Y-138392191D01*
X162387765Y-138251843D01*
X162140000Y-138202560D01*
X162050000Y-138202560D01*
X162050000Y-135890000D01*
X161992148Y-135599161D01*
X161992148Y-135599160D01*
X161827401Y-135352599D01*
X160780000Y-134305198D01*
X160780000Y-85404802D01*
X167977302Y-78207500D01*
X168170454Y-78207500D01*
X168180170Y-78231015D01*
X168569437Y-78620961D01*
X168801871Y-78717476D01*
X168571486Y-78812669D01*
X168181540Y-79201936D01*
X167970242Y-79710798D01*
X167969761Y-80261785D01*
X168180170Y-80771015D01*
X168569437Y-81160961D01*
X168801871Y-81257476D01*
X168571486Y-81352669D01*
X168181540Y-81741936D01*
X167970242Y-82250798D01*
X167969761Y-82801785D01*
X168180170Y-83311015D01*
X168569437Y-83700961D01*
X168801871Y-83797476D01*
X168571486Y-83892669D01*
X168181540Y-84281936D01*
X167970242Y-84790798D01*
X167969761Y-85341785D01*
X168180170Y-85851015D01*
X168569437Y-86240961D01*
X168801871Y-86337476D01*
X168571486Y-86432669D01*
X168181540Y-86821936D01*
X167970242Y-87330798D01*
X167969761Y-87881785D01*
X168180170Y-88391015D01*
X168569437Y-88780961D01*
X168801871Y-88877476D01*
X168571486Y-88972669D01*
X168181540Y-89361936D01*
X167970242Y-89870798D01*
X167969761Y-90421785D01*
X168180170Y-90931015D01*
X168569437Y-91320961D01*
X168801871Y-91417476D01*
X168571486Y-91512669D01*
X168181540Y-91901936D01*
X167970242Y-92410798D01*
X167969761Y-92961785D01*
X168180170Y-93471015D01*
X168569437Y-93860961D01*
X168801871Y-93957476D01*
X168571486Y-94052669D01*
X168181540Y-94441936D01*
X167970242Y-94950798D01*
X167969761Y-95501785D01*
X168180170Y-96011015D01*
X168569437Y-96400961D01*
X168801871Y-96497476D01*
X168571486Y-96592669D01*
X168181540Y-96981936D01*
X167970242Y-97490798D01*
X167969761Y-98041785D01*
X168180170Y-98551015D01*
X168569437Y-98940961D01*
X168801871Y-99037476D01*
X168571486Y-99132669D01*
X168181540Y-99521936D01*
X167970242Y-100030798D01*
X167969761Y-100581785D01*
X168180170Y-101091015D01*
X168569437Y-101480961D01*
X168801871Y-101577476D01*
X168571486Y-101672669D01*
X168181540Y-102061936D01*
X167970242Y-102570798D01*
X167969761Y-103121785D01*
X168180170Y-103631015D01*
X168569437Y-104020961D01*
X168801871Y-104117476D01*
X168571486Y-104212669D01*
X168181540Y-104601936D01*
X167970242Y-105110798D01*
X167969761Y-105661785D01*
X168180170Y-106171015D01*
X168569437Y-106560961D01*
X168801871Y-106657476D01*
X168571486Y-106752669D01*
X168181540Y-107141936D01*
X167970242Y-107650798D01*
X167969761Y-108201785D01*
X168180170Y-108711015D01*
X168569437Y-109100961D01*
X168801871Y-109197476D01*
X168571486Y-109292669D01*
X168181540Y-109681936D01*
X167970242Y-110190798D01*
X167969761Y-110741785D01*
X168180170Y-111251015D01*
X168569437Y-111640961D01*
X168801871Y-111737476D01*
X168571486Y-111832669D01*
X168181540Y-112221936D01*
X167970242Y-112730798D01*
X167969761Y-113281785D01*
X168180170Y-113791015D01*
X168569437Y-114180961D01*
X168801871Y-114277476D01*
X168571486Y-114372669D01*
X168181540Y-114761936D01*
X167970242Y-115270798D01*
X167969761Y-115821785D01*
X168180170Y-116331015D01*
X168569437Y-116720961D01*
X168801871Y-116817476D01*
X168571486Y-116912669D01*
X168181540Y-117301936D01*
X167970242Y-117810798D01*
X167969761Y-118361785D01*
X168180170Y-118871015D01*
X168569437Y-119260961D01*
X168801871Y-119357476D01*
X168571486Y-119452669D01*
X168181540Y-119841936D01*
X167970242Y-120350798D01*
X167969761Y-120901785D01*
X168180170Y-121411015D01*
X168569437Y-121800961D01*
X168801871Y-121897476D01*
X168571486Y-121992669D01*
X168181540Y-122381936D01*
X167970242Y-122890798D01*
X167969761Y-123441785D01*
X168180170Y-123951015D01*
X168569437Y-124340961D01*
X168801871Y-124437476D01*
X168571486Y-124532669D01*
X168181540Y-124921936D01*
X167970242Y-125430798D01*
X167969761Y-125981785D01*
X168180170Y-126491015D01*
X168569437Y-126880961D01*
X168785980Y-126970877D01*
X168631078Y-127035040D01*
X168563089Y-127275983D01*
X169355001Y-128067895D01*
X170146913Y-127275983D01*
X170078924Y-127035040D01*
X169912380Y-126975768D01*
X170138516Y-126882331D01*
X170528462Y-126493064D01*
X170739760Y-125984202D01*
X170740241Y-125433215D01*
X170529832Y-124923985D01*
X170140565Y-124534039D01*
X169908131Y-124437524D01*
X170138516Y-124342331D01*
X170528462Y-123953064D01*
X170739760Y-123444202D01*
X170740241Y-122893215D01*
X170529832Y-122383985D01*
X170140565Y-121994039D01*
X169908131Y-121897524D01*
X170138516Y-121802331D01*
X170528462Y-121413064D01*
X170739760Y-120904202D01*
X170740241Y-120353215D01*
X170529832Y-119843985D01*
X170140565Y-119454039D01*
X169908131Y-119357524D01*
X170138516Y-119262331D01*
X170528462Y-118873064D01*
X170739760Y-118364202D01*
X170740241Y-117813215D01*
X170529832Y-117303985D01*
X170140565Y-116914039D01*
X169908131Y-116817524D01*
X170138516Y-116722331D01*
X170528462Y-116333064D01*
X170539077Y-116307500D01*
X171112698Y-116307500D01*
X171960000Y-117154802D01*
X171960000Y-133350000D01*
X172017852Y-133640839D01*
X172182599Y-133887401D01*
X181466744Y-143171546D01*
X181445250Y-143223309D01*
X181444752Y-143794187D01*
X181662757Y-144321800D01*
X182066077Y-144725824D01*
X182593309Y-144944750D01*
X183164187Y-144945248D01*
X183691800Y-144727243D01*
X184095824Y-144323923D01*
X184314750Y-143796691D01*
X184315248Y-143225813D01*
X184097243Y-142698200D01*
X183694483Y-142294736D01*
X194583964Y-142294736D01*
X194608244Y-142400082D01*
X194899788Y-142925602D01*
X195370248Y-143299550D01*
X195948000Y-143464996D01*
X196848000Y-143464996D01*
X196848000Y-142056996D01*
X197102000Y-142056996D01*
X197102000Y-143464996D01*
X198002000Y-143464996D01*
X198579752Y-143299550D01*
X199050212Y-142925602D01*
X199341756Y-142400082D01*
X199366036Y-142294736D01*
X199245378Y-142056996D01*
X197102000Y-142056996D01*
X196848000Y-142056996D01*
X194704622Y-142056996D01*
X194583964Y-142294736D01*
X183694483Y-142294736D01*
X183693923Y-142294176D01*
X183166691Y-142075250D01*
X182595813Y-142074752D01*
X182541851Y-142097049D01*
X182010058Y-141565256D01*
X194583964Y-141565256D01*
X194704622Y-141802996D01*
X196848000Y-141802996D01*
X196848000Y-140394996D01*
X197102000Y-140394996D01*
X197102000Y-141802996D01*
X199245378Y-141802996D01*
X199366036Y-141565256D01*
X199341756Y-141459910D01*
X199050212Y-140934390D01*
X198579752Y-140560442D01*
X198002000Y-140394996D01*
X197102000Y-140394996D01*
X196848000Y-140394996D01*
X195948000Y-140394996D01*
X195370248Y-140560442D01*
X194899788Y-140934390D01*
X194608244Y-141459910D01*
X194583964Y-141565256D01*
X182010058Y-141565256D01*
X174078989Y-133634187D01*
X181444752Y-133634187D01*
X181662757Y-134161800D01*
X182066077Y-134565824D01*
X182593309Y-134784750D01*
X183164187Y-134785248D01*
X183691800Y-134567243D01*
X184095824Y-134163923D01*
X184118215Y-134110000D01*
X191770000Y-134110000D01*
X192060839Y-134052148D01*
X192307401Y-133887401D01*
X195519854Y-130674948D01*
X195702560Y-130675108D01*
X195702560Y-131310000D01*
X195751843Y-131557765D01*
X195892191Y-131767809D01*
X196090000Y-131899982D01*
X196090000Y-136882556D01*
X195175000Y-136882556D01*
X194927235Y-136931839D01*
X194717191Y-137072187D01*
X194576843Y-137282231D01*
X194527560Y-137529996D01*
X194527560Y-139329996D01*
X194576843Y-139577761D01*
X194717191Y-139787805D01*
X194927235Y-139928153D01*
X195175000Y-139977436D01*
X198775000Y-139977436D01*
X199022765Y-139928153D01*
X199232809Y-139787805D01*
X199373157Y-139577761D01*
X199422440Y-139329996D01*
X199422440Y-137529996D01*
X199373157Y-137282231D01*
X199232809Y-137072187D01*
X199022765Y-136931839D01*
X198775000Y-136882556D01*
X197610000Y-136882556D01*
X197610000Y-131899982D01*
X197807809Y-131767809D01*
X197948157Y-131557765D01*
X197997440Y-131310000D01*
X197997440Y-130310000D01*
X197948157Y-130062235D01*
X197807809Y-129852191D01*
X197597765Y-129711843D01*
X197350000Y-129662560D01*
X196714894Y-129662560D01*
X196715119Y-129404883D01*
X197074775Y-129405197D01*
X197492086Y-129232767D01*
X197811645Y-128913765D01*
X197984803Y-128496756D01*
X197985197Y-128045225D01*
X197812767Y-127627914D01*
X197493765Y-127308355D01*
X197076756Y-127135197D01*
X196625225Y-127134803D01*
X196207914Y-127307233D01*
X195888355Y-127626235D01*
X195715197Y-128043244D01*
X195714881Y-128405117D01*
X195355225Y-128404803D01*
X194937914Y-128577233D01*
X194618355Y-128896235D01*
X194445197Y-129313244D01*
X194444947Y-129600251D01*
X191455198Y-132590000D01*
X184118646Y-132590000D01*
X184097243Y-132538200D01*
X183693923Y-132134176D01*
X183166691Y-131915250D01*
X182595813Y-131914752D01*
X182068200Y-132132757D01*
X181664176Y-132536077D01*
X181445250Y-133063309D01*
X181444752Y-133634187D01*
X174078989Y-133634187D01*
X173480000Y-133035198D01*
X173480000Y-129241517D01*
X182128088Y-129241517D01*
X182196077Y-129482460D01*
X182715171Y-129667201D01*
X183265448Y-129639230D01*
X183643923Y-129482460D01*
X183711912Y-129241517D01*
X182920000Y-128449605D01*
X182128088Y-129241517D01*
X173480000Y-129241517D01*
X173480000Y-128065171D01*
X181522799Y-128065171D01*
X181550770Y-128615448D01*
X181707540Y-128993923D01*
X181948483Y-129061912D01*
X182740395Y-128270000D01*
X183099605Y-128270000D01*
X183891517Y-129061912D01*
X184132460Y-128993923D01*
X184292482Y-128544285D01*
X186534760Y-128544285D01*
X186745169Y-129053515D01*
X187134436Y-129443461D01*
X187643298Y-129654759D01*
X188194285Y-129655240D01*
X188703515Y-129444831D01*
X189093461Y-129055564D01*
X189304759Y-128546702D01*
X189305240Y-127995715D01*
X189094831Y-127486485D01*
X188705564Y-127096539D01*
X188196702Y-126885241D01*
X187645715Y-126884760D01*
X187136485Y-127095169D01*
X186746539Y-127484436D01*
X186535241Y-127993298D01*
X186534760Y-128544285D01*
X184292482Y-128544285D01*
X184317201Y-128474829D01*
X184289230Y-127924552D01*
X184132460Y-127546077D01*
X183891517Y-127478088D01*
X183099605Y-128270000D01*
X182740395Y-128270000D01*
X181948483Y-127478088D01*
X181707540Y-127546077D01*
X181522799Y-128065171D01*
X173480000Y-128065171D01*
X173480000Y-127298483D01*
X182128088Y-127298483D01*
X182920000Y-128090395D01*
X183711912Y-127298483D01*
X183643923Y-127057540D01*
X183124829Y-126872799D01*
X182574552Y-126900770D01*
X182196077Y-127057540D01*
X182128088Y-127298483D01*
X173480000Y-127298483D01*
X173480000Y-116840000D01*
X173422148Y-116549161D01*
X173257401Y-116302599D01*
X171964901Y-115010099D01*
X171718339Y-114845352D01*
X171427500Y-114787500D01*
X170539548Y-114787500D01*
X170529832Y-114763985D01*
X170140565Y-114374039D01*
X169908131Y-114277524D01*
X170138516Y-114182331D01*
X170528462Y-113793064D01*
X170539077Y-113767500D01*
X173652698Y-113767500D01*
X181466744Y-121581546D01*
X181445250Y-121633309D01*
X181444752Y-122204187D01*
X181662757Y-122731800D01*
X182066077Y-123135824D01*
X182593309Y-123354750D01*
X183164187Y-123355248D01*
X183691800Y-123137243D01*
X184095824Y-122733923D01*
X184314750Y-122206691D01*
X184315248Y-121635813D01*
X184097243Y-121108200D01*
X183693923Y-120704176D01*
X183166691Y-120485250D01*
X182595813Y-120484752D01*
X182541851Y-120507049D01*
X182500650Y-120465848D01*
X194583964Y-120465848D01*
X194608244Y-120571194D01*
X194899788Y-121096714D01*
X195370248Y-121470662D01*
X195948000Y-121636108D01*
X196848000Y-121636108D01*
X196848000Y-120228108D01*
X197102000Y-120228108D01*
X197102000Y-121636108D01*
X198002000Y-121636108D01*
X198579752Y-121470662D01*
X199050212Y-121096714D01*
X199341756Y-120571194D01*
X199366036Y-120465848D01*
X199245378Y-120228108D01*
X197102000Y-120228108D01*
X196848000Y-120228108D01*
X194704622Y-120228108D01*
X194583964Y-120465848D01*
X182500650Y-120465848D01*
X181771170Y-119736368D01*
X194583964Y-119736368D01*
X194704622Y-119974108D01*
X196848000Y-119974108D01*
X196848000Y-118566108D01*
X197102000Y-118566108D01*
X197102000Y-119974108D01*
X199245378Y-119974108D01*
X199366036Y-119736368D01*
X199341756Y-119631022D01*
X199050212Y-119105502D01*
X198579752Y-118731554D01*
X198002000Y-118566108D01*
X197102000Y-118566108D01*
X196848000Y-118566108D01*
X195948000Y-118566108D01*
X195370248Y-118731554D01*
X194899788Y-119105502D01*
X194608244Y-119631022D01*
X194583964Y-119736368D01*
X181771170Y-119736368D01*
X174504901Y-112470099D01*
X174258339Y-112305352D01*
X173967500Y-112247500D01*
X170539548Y-112247500D01*
X170529832Y-112223985D01*
X170350348Y-112044187D01*
X181444752Y-112044187D01*
X181662757Y-112571800D01*
X182066077Y-112975824D01*
X182593309Y-113194750D01*
X183164187Y-113195248D01*
X183691800Y-112977243D01*
X184095824Y-112573923D01*
X184118215Y-112520000D01*
X191770000Y-112520000D01*
X192060839Y-112462148D01*
X192307401Y-112297401D01*
X195519854Y-109084948D01*
X195702560Y-109085108D01*
X195702560Y-109720000D01*
X195751843Y-109967765D01*
X195892191Y-110177809D01*
X196090000Y-110309982D01*
X196090000Y-115053668D01*
X195175000Y-115053668D01*
X194927235Y-115102951D01*
X194717191Y-115243299D01*
X194576843Y-115453343D01*
X194527560Y-115701108D01*
X194527560Y-117501108D01*
X194576843Y-117748873D01*
X194717191Y-117958917D01*
X194927235Y-118099265D01*
X195175000Y-118148548D01*
X198775000Y-118148548D01*
X199022765Y-118099265D01*
X199232809Y-117958917D01*
X199373157Y-117748873D01*
X199422440Y-117501108D01*
X199422440Y-115701108D01*
X199373157Y-115453343D01*
X199232809Y-115243299D01*
X199022765Y-115102951D01*
X198775000Y-115053668D01*
X197610000Y-115053668D01*
X197610000Y-110309982D01*
X197807809Y-110177809D01*
X197948157Y-109967765D01*
X197997440Y-109720000D01*
X197997440Y-108720000D01*
X197948157Y-108472235D01*
X197807809Y-108262191D01*
X197597765Y-108121843D01*
X197350000Y-108072560D01*
X196714894Y-108072560D01*
X196715119Y-107814883D01*
X197074775Y-107815197D01*
X197492086Y-107642767D01*
X197811645Y-107323765D01*
X197984803Y-106906756D01*
X197985197Y-106455225D01*
X197812767Y-106037914D01*
X197493765Y-105718355D01*
X197076756Y-105545197D01*
X196625225Y-105544803D01*
X196207914Y-105717233D01*
X195888355Y-106036235D01*
X195715197Y-106453244D01*
X195714881Y-106815117D01*
X195355225Y-106814803D01*
X194937914Y-106987233D01*
X194618355Y-107306235D01*
X194445197Y-107723244D01*
X194444947Y-108010251D01*
X191455198Y-111000000D01*
X184118646Y-111000000D01*
X184097243Y-110948200D01*
X183693923Y-110544176D01*
X183166691Y-110325250D01*
X182595813Y-110324752D01*
X182068200Y-110542757D01*
X181664176Y-110946077D01*
X181445250Y-111473309D01*
X181444752Y-112044187D01*
X170350348Y-112044187D01*
X170140565Y-111834039D01*
X169908131Y-111737524D01*
X170138516Y-111642331D01*
X170528462Y-111253064D01*
X170539077Y-111227500D01*
X172742500Y-111227500D01*
X173033339Y-111169648D01*
X173279901Y-111004901D01*
X176633285Y-107651517D01*
X182128088Y-107651517D01*
X182196077Y-107892460D01*
X182715171Y-108077201D01*
X183265448Y-108049230D01*
X183643923Y-107892460D01*
X183711912Y-107651517D01*
X182920000Y-106859605D01*
X182128088Y-107651517D01*
X176633285Y-107651517D01*
X177809631Y-106475171D01*
X181522799Y-106475171D01*
X181550770Y-107025448D01*
X181707540Y-107403923D01*
X181948483Y-107471912D01*
X182740395Y-106680000D01*
X183099605Y-106680000D01*
X183891517Y-107471912D01*
X184132460Y-107403923D01*
X184292482Y-106954285D01*
X186534760Y-106954285D01*
X186745169Y-107463515D01*
X187134436Y-107853461D01*
X187643298Y-108064759D01*
X188194285Y-108065240D01*
X188703515Y-107854831D01*
X189093461Y-107465564D01*
X189304759Y-106956702D01*
X189305240Y-106405715D01*
X189094831Y-105896485D01*
X188705564Y-105506539D01*
X188196702Y-105295241D01*
X187645715Y-105294760D01*
X187136485Y-105505169D01*
X186746539Y-105894436D01*
X186535241Y-106403298D01*
X186534760Y-106954285D01*
X184292482Y-106954285D01*
X184317201Y-106884829D01*
X184289230Y-106334552D01*
X184132460Y-105956077D01*
X183891517Y-105888088D01*
X183099605Y-106680000D01*
X182740395Y-106680000D01*
X181948483Y-105888088D01*
X181707540Y-105956077D01*
X181522799Y-106475171D01*
X177809631Y-106475171D01*
X178576319Y-105708483D01*
X182128088Y-105708483D01*
X182920000Y-106500395D01*
X183711912Y-105708483D01*
X183643923Y-105467540D01*
X183124829Y-105282799D01*
X182574552Y-105310770D01*
X182196077Y-105467540D01*
X182128088Y-105708483D01*
X178576319Y-105708483D01*
X183417401Y-100867401D01*
X183582148Y-100620839D01*
X183640000Y-100330000D01*
X183640000Y-100298646D01*
X183691800Y-100277243D01*
X184095824Y-99873923D01*
X184314750Y-99346691D01*
X184315248Y-98775813D01*
X184257876Y-98636960D01*
X194583964Y-98636960D01*
X194608244Y-98742306D01*
X194899788Y-99267826D01*
X195370248Y-99641774D01*
X195948000Y-99807220D01*
X196848000Y-99807220D01*
X196848000Y-98399220D01*
X197102000Y-98399220D01*
X197102000Y-99807220D01*
X198002000Y-99807220D01*
X198579752Y-99641774D01*
X199050212Y-99267826D01*
X199341756Y-98742306D01*
X199366036Y-98636960D01*
X199245378Y-98399220D01*
X197102000Y-98399220D01*
X196848000Y-98399220D01*
X194704622Y-98399220D01*
X194583964Y-98636960D01*
X184257876Y-98636960D01*
X184097243Y-98248200D01*
X183757117Y-97907480D01*
X194583964Y-97907480D01*
X194704622Y-98145220D01*
X196848000Y-98145220D01*
X196848000Y-96737220D01*
X197102000Y-96737220D01*
X197102000Y-98145220D01*
X199245378Y-98145220D01*
X199366036Y-97907480D01*
X199341756Y-97802134D01*
X199050212Y-97276614D01*
X198579752Y-96902666D01*
X198002000Y-96737220D01*
X197102000Y-96737220D01*
X196848000Y-96737220D01*
X195948000Y-96737220D01*
X195370248Y-96902666D01*
X194899788Y-97276614D01*
X194608244Y-97802134D01*
X194583964Y-97907480D01*
X183757117Y-97907480D01*
X183693923Y-97844176D01*
X183166691Y-97625250D01*
X182595813Y-97624752D01*
X182068200Y-97842757D01*
X181664176Y-98246077D01*
X181445250Y-98773309D01*
X181444752Y-99344187D01*
X181662757Y-99871800D01*
X181962816Y-100172382D01*
X172427698Y-109707500D01*
X170539548Y-109707500D01*
X170529832Y-109683985D01*
X170140565Y-109294039D01*
X169908131Y-109197524D01*
X170138516Y-109102331D01*
X170528462Y-108713064D01*
X170529734Y-108710000D01*
X171450000Y-108710000D01*
X171740839Y-108652148D01*
X171987401Y-108487401D01*
X180877401Y-99597401D01*
X181042148Y-99350839D01*
X181100000Y-99060000D01*
X181100000Y-89184187D01*
X181444752Y-89184187D01*
X181662757Y-89711800D01*
X182066077Y-90115824D01*
X182593309Y-90334750D01*
X183164187Y-90335248D01*
X183691800Y-90117243D01*
X184095824Y-89713923D01*
X184118215Y-89660000D01*
X191770000Y-89660000D01*
X192060839Y-89602148D01*
X192307401Y-89437401D01*
X194624802Y-87120000D01*
X194734941Y-87120000D01*
X194936235Y-87321645D01*
X195353244Y-87494803D01*
X195702560Y-87495108D01*
X195702560Y-88130000D01*
X195751843Y-88377765D01*
X195892191Y-88587809D01*
X196090000Y-88719982D01*
X196090000Y-93224780D01*
X195175000Y-93224780D01*
X194927235Y-93274063D01*
X194717191Y-93414411D01*
X194576843Y-93624455D01*
X194527560Y-93872220D01*
X194527560Y-95672220D01*
X194576843Y-95919985D01*
X194717191Y-96130029D01*
X194927235Y-96270377D01*
X195175000Y-96319660D01*
X198775000Y-96319660D01*
X199022765Y-96270377D01*
X199232809Y-96130029D01*
X199373157Y-95919985D01*
X199422440Y-95672220D01*
X199422440Y-93872220D01*
X199373157Y-93624455D01*
X199232809Y-93414411D01*
X199022765Y-93274063D01*
X198775000Y-93224780D01*
X197610000Y-93224780D01*
X197610000Y-88719982D01*
X197807809Y-88587809D01*
X197948157Y-88377765D01*
X197997440Y-88130000D01*
X197997440Y-87130000D01*
X197948157Y-86882235D01*
X197807809Y-86672191D01*
X197597765Y-86531843D01*
X197350000Y-86482560D01*
X196714894Y-86482560D01*
X196715119Y-86224883D01*
X197074775Y-86225197D01*
X197492086Y-86052767D01*
X197811645Y-85733765D01*
X197984803Y-85316756D01*
X197985197Y-84865225D01*
X197812767Y-84447914D01*
X197493765Y-84128355D01*
X197076756Y-83955197D01*
X196625225Y-83954803D01*
X196207914Y-84127233D01*
X195888355Y-84446235D01*
X195715197Y-84863244D01*
X195714881Y-85225117D01*
X195355225Y-85224803D01*
X194937914Y-85397233D01*
X194734793Y-85600000D01*
X194310000Y-85600000D01*
X194067414Y-85648254D01*
X194019160Y-85657852D01*
X193772599Y-85822599D01*
X191455198Y-88140000D01*
X184118646Y-88140000D01*
X184097243Y-88088200D01*
X183693923Y-87684176D01*
X183166691Y-87465250D01*
X182595813Y-87464752D01*
X182068200Y-87682757D01*
X181664176Y-88086077D01*
X181445250Y-88613309D01*
X181444752Y-89184187D01*
X181100000Y-89184187D01*
X181100000Y-86061517D01*
X182128088Y-86061517D01*
X182196077Y-86302460D01*
X182715171Y-86487201D01*
X183265448Y-86459230D01*
X183643923Y-86302460D01*
X183711912Y-86061517D01*
X182920000Y-85269605D01*
X182128088Y-86061517D01*
X181100000Y-86061517D01*
X181100000Y-84885171D01*
X181522799Y-84885171D01*
X181550770Y-85435448D01*
X181707540Y-85813923D01*
X181948483Y-85881912D01*
X182740395Y-85090000D01*
X183099605Y-85090000D01*
X183891517Y-85881912D01*
X184132460Y-85813923D01*
X184292482Y-85364285D01*
X186534760Y-85364285D01*
X186745169Y-85873515D01*
X187134436Y-86263461D01*
X187643298Y-86474759D01*
X188194285Y-86475240D01*
X188703515Y-86264831D01*
X189093461Y-85875564D01*
X189304759Y-85366702D01*
X189305240Y-84815715D01*
X189094831Y-84306485D01*
X188705564Y-83916539D01*
X188196702Y-83705241D01*
X187645715Y-83704760D01*
X187136485Y-83915169D01*
X186746539Y-84304436D01*
X186535241Y-84813298D01*
X186534760Y-85364285D01*
X184292482Y-85364285D01*
X184317201Y-85294829D01*
X184289230Y-84744552D01*
X184132460Y-84366077D01*
X183891517Y-84298088D01*
X183099605Y-85090000D01*
X182740395Y-85090000D01*
X181948483Y-84298088D01*
X181707540Y-84366077D01*
X181522799Y-84885171D01*
X181100000Y-84885171D01*
X181100000Y-84118483D01*
X182128088Y-84118483D01*
X182920000Y-84910395D01*
X183711912Y-84118483D01*
X183643923Y-83877540D01*
X183124829Y-83692799D01*
X182574552Y-83720770D01*
X182196077Y-83877540D01*
X182128088Y-84118483D01*
X181100000Y-84118483D01*
X181100000Y-79054802D01*
X182541546Y-77613256D01*
X182593309Y-77634750D01*
X183164187Y-77635248D01*
X183691800Y-77417243D01*
X184095824Y-77013923D01*
X184181300Y-76808072D01*
X194583964Y-76808072D01*
X194608244Y-76913418D01*
X194899788Y-77438938D01*
X195370248Y-77812886D01*
X195948000Y-77978332D01*
X196848000Y-77978332D01*
X196848000Y-76570332D01*
X197102000Y-76570332D01*
X197102000Y-77978332D01*
X198002000Y-77978332D01*
X198579752Y-77812886D01*
X199050212Y-77438938D01*
X199341756Y-76913418D01*
X199366036Y-76808072D01*
X199245378Y-76570332D01*
X197102000Y-76570332D01*
X196848000Y-76570332D01*
X194704622Y-76570332D01*
X194583964Y-76808072D01*
X184181300Y-76808072D01*
X184314750Y-76486691D01*
X184315106Y-76078592D01*
X194583964Y-76078592D01*
X194704622Y-76316332D01*
X196848000Y-76316332D01*
X196848000Y-74908332D01*
X197102000Y-74908332D01*
X197102000Y-76316332D01*
X199245378Y-76316332D01*
X199366036Y-76078592D01*
X199341756Y-75973246D01*
X199050212Y-75447726D01*
X198579752Y-75073778D01*
X198002000Y-74908332D01*
X197102000Y-74908332D01*
X196848000Y-74908332D01*
X195948000Y-74908332D01*
X195370248Y-75073778D01*
X194899788Y-75447726D01*
X194608244Y-75973246D01*
X194583964Y-76078592D01*
X184315106Y-76078592D01*
X184315248Y-75915813D01*
X184097243Y-75388200D01*
X183693923Y-74984176D01*
X183166691Y-74765250D01*
X182595813Y-74764752D01*
X182068200Y-74982757D01*
X181664176Y-75386077D01*
X181445250Y-75913309D01*
X181444752Y-76484187D01*
X181467049Y-76538149D01*
X179802599Y-78202599D01*
X179637852Y-78449161D01*
X179580000Y-78740000D01*
X179580000Y-98745198D01*
X171135198Y-107190000D01*
X170548845Y-107190000D01*
X170529832Y-107143985D01*
X170140565Y-106754039D01*
X169908131Y-106657524D01*
X170138516Y-106562331D01*
X170528462Y-106173064D01*
X170539077Y-106147500D01*
X171472500Y-106147500D01*
X171763339Y-106089648D01*
X172009901Y-105924901D01*
X173257401Y-104677401D01*
X173422148Y-104430840D01*
X173431746Y-104382586D01*
X173480000Y-104140000D01*
X173480000Y-66354802D01*
X173510615Y-66324187D01*
X181444752Y-66324187D01*
X181662757Y-66851800D01*
X182066077Y-67255824D01*
X182593309Y-67474750D01*
X183164187Y-67475248D01*
X183691800Y-67257243D01*
X184095824Y-66853923D01*
X184118215Y-66800000D01*
X193040000Y-66800000D01*
X193330839Y-66742148D01*
X193577401Y-66577401D01*
X195519854Y-64634948D01*
X195702560Y-64635108D01*
X195702560Y-65270000D01*
X195751843Y-65517765D01*
X195892191Y-65727809D01*
X196090000Y-65859982D01*
X196090000Y-71395892D01*
X195175000Y-71395892D01*
X194927235Y-71445175D01*
X194717191Y-71585523D01*
X194576843Y-71795567D01*
X194527560Y-72043332D01*
X194527560Y-73843332D01*
X194576843Y-74091097D01*
X194717191Y-74301141D01*
X194927235Y-74441489D01*
X195175000Y-74490772D01*
X198775000Y-74490772D01*
X199022765Y-74441489D01*
X199232809Y-74301141D01*
X199373157Y-74091097D01*
X199422440Y-73843332D01*
X199422440Y-72043332D01*
X199373157Y-71795567D01*
X199232809Y-71585523D01*
X199022765Y-71445175D01*
X198775000Y-71395892D01*
X197610000Y-71395892D01*
X197610000Y-65859982D01*
X197807809Y-65727809D01*
X197948157Y-65517765D01*
X197997440Y-65270000D01*
X197997440Y-64270000D01*
X197948157Y-64022235D01*
X197807809Y-63812191D01*
X197597765Y-63671843D01*
X197350000Y-63622560D01*
X196714894Y-63622560D01*
X196715119Y-63364883D01*
X197074775Y-63365197D01*
X197492086Y-63192767D01*
X197811645Y-62873765D01*
X197984803Y-62456756D01*
X197985197Y-62005225D01*
X197812767Y-61587914D01*
X197493765Y-61268355D01*
X197076756Y-61095197D01*
X196625225Y-61094803D01*
X196207914Y-61267233D01*
X195888355Y-61586235D01*
X195715197Y-62003244D01*
X195714881Y-62365117D01*
X195355225Y-62364803D01*
X194937914Y-62537233D01*
X194618355Y-62856235D01*
X194445197Y-63273244D01*
X194444947Y-63560251D01*
X192725198Y-65280000D01*
X184118646Y-65280000D01*
X184097243Y-65228200D01*
X183693923Y-64824176D01*
X183166691Y-64605250D01*
X182595813Y-64604752D01*
X182068200Y-64822757D01*
X181664176Y-65226077D01*
X181445250Y-65753309D01*
X181444752Y-66324187D01*
X173510615Y-66324187D01*
X176633285Y-63201517D01*
X180858088Y-63201517D01*
X180926077Y-63442460D01*
X181445171Y-63627201D01*
X181995448Y-63599230D01*
X182373923Y-63442460D01*
X182441912Y-63201517D01*
X181650000Y-62409605D01*
X180858088Y-63201517D01*
X176633285Y-63201517D01*
X177809631Y-62025171D01*
X180252799Y-62025171D01*
X180280770Y-62575448D01*
X180437540Y-62953923D01*
X180678483Y-63021912D01*
X181470395Y-62230000D01*
X181829605Y-62230000D01*
X182621517Y-63021912D01*
X182862460Y-62953923D01*
X183022482Y-62504285D01*
X185264760Y-62504285D01*
X185475169Y-63013515D01*
X185864436Y-63403461D01*
X186373298Y-63614759D01*
X186924285Y-63615240D01*
X187433515Y-63404831D01*
X187823461Y-63015564D01*
X188034759Y-62506702D01*
X188035240Y-61955715D01*
X187824831Y-61446485D01*
X187435564Y-61056539D01*
X186926702Y-60845241D01*
X186375715Y-60844760D01*
X185866485Y-61055169D01*
X185476539Y-61444436D01*
X185265241Y-61953298D01*
X185264760Y-62504285D01*
X183022482Y-62504285D01*
X183047201Y-62434829D01*
X183019230Y-61884552D01*
X182862460Y-61506077D01*
X182621517Y-61438088D01*
X181829605Y-62230000D01*
X181470395Y-62230000D01*
X180678483Y-61438088D01*
X180437540Y-61506077D01*
X180252799Y-62025171D01*
X177809631Y-62025171D01*
X178576319Y-61258483D01*
X180858088Y-61258483D01*
X181650000Y-62050395D01*
X182441912Y-61258483D01*
X182373923Y-61017540D01*
X181854829Y-60832799D01*
X181304552Y-60860770D01*
X180926077Y-61017540D01*
X180858088Y-61258483D01*
X178576319Y-61258483D01*
X182541546Y-57293256D01*
X182593309Y-57314750D01*
X183164187Y-57315248D01*
X183691800Y-57097243D01*
X184095824Y-56693923D01*
X184314750Y-56166691D01*
X184315248Y-55595813D01*
X184097243Y-55068200D01*
X184008383Y-54979184D01*
X194583964Y-54979184D01*
X194608244Y-55084530D01*
X194899788Y-55610050D01*
X195370248Y-55983998D01*
X195948000Y-56149444D01*
X196848000Y-56149444D01*
X196848000Y-54741444D01*
X197102000Y-54741444D01*
X197102000Y-56149444D01*
X198002000Y-56149444D01*
X198579752Y-55983998D01*
X199050212Y-55610050D01*
X199341756Y-55084530D01*
X199366036Y-54979184D01*
X199245378Y-54741444D01*
X197102000Y-54741444D01*
X196848000Y-54741444D01*
X194704622Y-54741444D01*
X194583964Y-54979184D01*
X184008383Y-54979184D01*
X183693923Y-54664176D01*
X183166691Y-54445250D01*
X182595813Y-54444752D01*
X182068200Y-54662757D01*
X181664176Y-55066077D01*
X181445250Y-55593309D01*
X181444752Y-56164187D01*
X181467049Y-56218149D01*
X172182599Y-65502599D01*
X172017852Y-65749161D01*
X171960000Y-66040000D01*
X171960000Y-103825198D01*
X171157698Y-104627500D01*
X170539548Y-104627500D01*
X170529832Y-104603985D01*
X170140565Y-104214039D01*
X169908131Y-104117524D01*
X170138516Y-104022331D01*
X170528462Y-103633064D01*
X170739760Y-103124202D01*
X170740241Y-102573215D01*
X170529832Y-102063985D01*
X170140565Y-101674039D01*
X169908131Y-101577524D01*
X170138516Y-101482331D01*
X170528462Y-101093064D01*
X170739760Y-100584202D01*
X170740241Y-100033215D01*
X170529832Y-99523985D01*
X170140565Y-99134039D01*
X169908131Y-99037524D01*
X170138516Y-98942331D01*
X170528462Y-98553064D01*
X170739760Y-98044202D01*
X170740241Y-97493215D01*
X170529832Y-96983985D01*
X170140565Y-96594039D01*
X169908131Y-96497524D01*
X170138516Y-96402331D01*
X170528462Y-96013064D01*
X170739760Y-95504202D01*
X170740241Y-94953215D01*
X170529832Y-94443985D01*
X170140565Y-94054039D01*
X169908131Y-93957524D01*
X170138516Y-93862331D01*
X170528462Y-93473064D01*
X170739760Y-92964202D01*
X170740241Y-92413215D01*
X170529832Y-91903985D01*
X170140565Y-91514039D01*
X169908131Y-91417524D01*
X170138516Y-91322331D01*
X170528462Y-90933064D01*
X170739760Y-90424202D01*
X170740241Y-89873215D01*
X170529832Y-89363985D01*
X170140565Y-88974039D01*
X169908131Y-88877524D01*
X170138516Y-88782331D01*
X170528462Y-88393064D01*
X170739760Y-87884202D01*
X170740241Y-87333215D01*
X170529832Y-86823985D01*
X170140565Y-86434039D01*
X169908131Y-86337524D01*
X170138516Y-86242331D01*
X170528462Y-85853064D01*
X170739760Y-85344202D01*
X170740241Y-84793215D01*
X170529832Y-84283985D01*
X170140565Y-83894039D01*
X169908131Y-83797524D01*
X170138516Y-83702331D01*
X170528462Y-83313064D01*
X170739760Y-82804202D01*
X170740241Y-82253215D01*
X170529832Y-81743985D01*
X170140565Y-81354039D01*
X169908131Y-81257524D01*
X170138516Y-81162331D01*
X170528462Y-80773064D01*
X170739760Y-80264202D01*
X170740241Y-79713215D01*
X170529832Y-79203985D01*
X170140565Y-78814039D01*
X169908131Y-78717524D01*
X170138516Y-78622331D01*
X170528462Y-78233064D01*
X170739760Y-77724202D01*
X170740241Y-77173215D01*
X170529832Y-76663985D01*
X170140565Y-76274039D01*
X169908131Y-76177524D01*
X170138516Y-76082331D01*
X170528462Y-75693064D01*
X170739760Y-75184202D01*
X170740241Y-74633215D01*
X170529832Y-74123985D01*
X170140565Y-73734039D01*
X169908131Y-73637524D01*
X170138516Y-73542331D01*
X170528462Y-73153064D01*
X170739760Y-72644202D01*
X170740241Y-72093215D01*
X170529832Y-71583985D01*
X170140565Y-71194039D01*
X169908131Y-71097524D01*
X170138516Y-71002331D01*
X170528462Y-70613064D01*
X170739760Y-70104202D01*
X170740241Y-69553215D01*
X170529832Y-69043985D01*
X170140565Y-68654039D01*
X169908131Y-68557524D01*
X170138516Y-68462331D01*
X170528462Y-68073064D01*
X170739760Y-67564202D01*
X170740241Y-67013215D01*
X170529832Y-66503985D01*
X170140565Y-66114039D01*
X169908131Y-66017524D01*
X170138516Y-65922331D01*
X170528462Y-65533064D01*
X170739760Y-65024202D01*
X170740241Y-64473215D01*
X170529832Y-63963985D01*
X170140565Y-63574039D01*
X169924022Y-63484123D01*
X170078924Y-63419960D01*
X170146913Y-63179017D01*
X169355001Y-62387105D01*
X168563089Y-63179017D01*
X168631078Y-63419960D01*
X168797622Y-63479232D01*
X168571486Y-63572669D01*
X168181540Y-63961936D01*
X167970242Y-64470798D01*
X167969761Y-65021785D01*
X168180170Y-65531015D01*
X168569437Y-65920961D01*
X168801871Y-66017476D01*
X168571486Y-66112669D01*
X168181540Y-66501936D01*
X167970242Y-67010798D01*
X167969761Y-67561785D01*
X168180170Y-68071015D01*
X168569437Y-68460961D01*
X168801871Y-68557476D01*
X168571486Y-68652669D01*
X168181540Y-69041936D01*
X167970242Y-69550798D01*
X167969761Y-70101785D01*
X168180170Y-70611015D01*
X168569437Y-71000961D01*
X168801871Y-71097476D01*
X168571486Y-71192669D01*
X168181540Y-71581936D01*
X167970242Y-72090798D01*
X167969761Y-72641785D01*
X168180170Y-73151015D01*
X168569437Y-73540961D01*
X168801871Y-73637476D01*
X168571486Y-73732669D01*
X168181540Y-74121936D01*
X168170925Y-74147500D01*
X161312500Y-74147500D01*
X161021661Y-74205352D01*
X160775099Y-74370099D01*
X154402599Y-80742599D01*
X154237852Y-80989161D01*
X154180000Y-81280000D01*
X154180000Y-134305198D01*
X150592599Y-137892599D01*
X150427852Y-138139161D01*
X150370000Y-138430000D01*
X130375000Y-138430000D01*
X130375000Y-132364187D01*
X150964752Y-132364187D01*
X151182757Y-132891800D01*
X151586077Y-133295824D01*
X152113309Y-133514750D01*
X152684187Y-133515248D01*
X153211800Y-133297243D01*
X153615824Y-132893923D01*
X153834750Y-132366691D01*
X153835248Y-131795813D01*
X153617243Y-131268200D01*
X153213923Y-130864176D01*
X152686691Y-130645250D01*
X152115813Y-130644752D01*
X151588200Y-130862757D01*
X151184176Y-131266077D01*
X150965250Y-131793309D01*
X150964752Y-132364187D01*
X130375000Y-132364187D01*
X130375000Y-129241517D01*
X146568088Y-129241517D01*
X146636077Y-129482460D01*
X147155171Y-129667201D01*
X147705448Y-129639230D01*
X148083923Y-129482460D01*
X148151912Y-129241517D01*
X147360000Y-128449605D01*
X146568088Y-129241517D01*
X130375000Y-129241517D01*
X130375000Y-128065171D01*
X145962799Y-128065171D01*
X145990770Y-128615448D01*
X146147540Y-128993923D01*
X146388483Y-129061912D01*
X147180395Y-128270000D01*
X147539605Y-128270000D01*
X148331517Y-129061912D01*
X148572460Y-128993923D01*
X148732482Y-128544285D01*
X150974760Y-128544285D01*
X151185169Y-129053515D01*
X151574436Y-129443461D01*
X152083298Y-129654759D01*
X152634285Y-129655240D01*
X153143515Y-129444831D01*
X153533461Y-129055564D01*
X153744759Y-128546702D01*
X153745240Y-127995715D01*
X153534831Y-127486485D01*
X153145564Y-127096539D01*
X152636702Y-126885241D01*
X152085715Y-126884760D01*
X151576485Y-127095169D01*
X151186539Y-127484436D01*
X150975241Y-127993298D01*
X150974760Y-128544285D01*
X148732482Y-128544285D01*
X148757201Y-128474829D01*
X148729230Y-127924552D01*
X148572460Y-127546077D01*
X148331517Y-127478088D01*
X147539605Y-128270000D01*
X147180395Y-128270000D01*
X146388483Y-127478088D01*
X146147540Y-127546077D01*
X145962799Y-128065171D01*
X130375000Y-128065171D01*
X130375000Y-127298483D01*
X146568088Y-127298483D01*
X147360000Y-128090395D01*
X148151912Y-127298483D01*
X148083923Y-127057540D01*
X147564829Y-126872799D01*
X147014552Y-126900770D01*
X146636077Y-127057540D01*
X146568088Y-127298483D01*
X130375000Y-127298483D01*
X130375000Y-102870000D01*
X130311439Y-102550459D01*
X130130434Y-102279566D01*
X127567934Y-99717066D01*
X127500376Y-99671925D01*
X127297041Y-99536061D01*
X126977500Y-99472500D01*
X124758437Y-99472500D01*
X124420565Y-99134039D01*
X124188131Y-99037524D01*
X124418516Y-98942331D01*
X124808462Y-98553064D01*
X125019760Y-98044202D01*
X125020241Y-97493215D01*
X124809832Y-96983985D01*
X124420565Y-96594039D01*
X124188131Y-96497524D01*
X124418516Y-96402331D01*
X124808462Y-96013064D01*
X125019760Y-95504202D01*
X125020241Y-94953215D01*
X124809832Y-94443985D01*
X124420565Y-94054039D01*
X124188131Y-93957524D01*
X124418516Y-93862331D01*
X124808462Y-93473064D01*
X125019760Y-92964202D01*
X125020241Y-92413215D01*
X124809832Y-91903985D01*
X124420565Y-91514039D01*
X124188131Y-91417524D01*
X124418516Y-91322331D01*
X124808462Y-90933064D01*
X125019760Y-90424202D01*
X125020241Y-89873215D01*
X124809832Y-89363985D01*
X124420565Y-88974039D01*
X124188131Y-88877524D01*
X124418516Y-88782331D01*
X124808462Y-88393064D01*
X125019760Y-87884202D01*
X125020241Y-87333215D01*
X124809832Y-86823985D01*
X124420565Y-86434039D01*
X124188131Y-86337524D01*
X124418516Y-86242331D01*
X124808462Y-85853064D01*
X125019760Y-85344202D01*
X125020241Y-84793215D01*
X124809832Y-84283985D01*
X124420565Y-83894039D01*
X124188131Y-83797524D01*
X124418516Y-83702331D01*
X124808462Y-83313064D01*
X125019760Y-82804202D01*
X125020241Y-82253215D01*
X124809832Y-81743985D01*
X124420565Y-81354039D01*
X124204022Y-81264123D01*
X124358924Y-81199960D01*
X124426913Y-80959017D01*
X123635001Y-80167105D01*
X122843089Y-80959017D01*
X122911078Y-81199960D01*
X123077622Y-81259232D01*
X122851486Y-81352669D01*
X122461540Y-81741936D01*
X122250242Y-82250798D01*
X122249761Y-82801785D01*
X122460170Y-83311015D01*
X122849437Y-83700961D01*
X123081871Y-83797476D01*
X122851486Y-83892669D01*
X122511062Y-84232500D01*
X122243368Y-84232500D01*
X121485000Y-83474132D01*
X121485000Y-79782671D01*
X122237800Y-79782671D01*
X122265771Y-80332948D01*
X122422541Y-80711423D01*
X122663484Y-80779412D01*
X123455396Y-79987500D01*
X123814606Y-79987500D01*
X124606518Y-80779412D01*
X124847461Y-80711423D01*
X125032202Y-80192329D01*
X125004231Y-79642052D01*
X124847461Y-79263577D01*
X124606518Y-79195588D01*
X123814606Y-79987500D01*
X123455396Y-79987500D01*
X122663484Y-79195588D01*
X122422541Y-79263577D01*
X122237800Y-79782671D01*
X121485000Y-79782671D01*
X121485000Y-69293333D01*
X121421439Y-68973792D01*
X121330936Y-68838345D01*
X121240434Y-68702898D01*
X117559321Y-65021785D01*
X122249761Y-65021785D01*
X122460170Y-65531015D01*
X122849437Y-65920961D01*
X123081871Y-66017476D01*
X122851486Y-66112669D01*
X122461540Y-66501936D01*
X122250242Y-67010798D01*
X122249761Y-67561785D01*
X122460170Y-68071015D01*
X122849437Y-68460961D01*
X123081871Y-68557476D01*
X122851486Y-68652669D01*
X122461540Y-69041936D01*
X122250242Y-69550798D01*
X122249761Y-70101785D01*
X122460170Y-70611015D01*
X122849437Y-71000961D01*
X123081871Y-71097476D01*
X122851486Y-71192669D01*
X122461540Y-71581936D01*
X122250242Y-72090798D01*
X122249761Y-72641785D01*
X122460170Y-73151015D01*
X122849437Y-73540961D01*
X123081871Y-73637476D01*
X122851486Y-73732669D01*
X122461540Y-74121936D01*
X122250242Y-74630798D01*
X122249761Y-75181785D01*
X122460170Y-75691015D01*
X122849437Y-76080961D01*
X123081871Y-76177476D01*
X122851486Y-76272669D01*
X122461540Y-76661936D01*
X122250242Y-77170798D01*
X122249761Y-77721785D01*
X122460170Y-78231015D01*
X122849437Y-78620961D01*
X123065980Y-78710877D01*
X122911078Y-78775040D01*
X122843089Y-79015983D01*
X123635001Y-79807895D01*
X124426913Y-79015983D01*
X124358924Y-78775040D01*
X124192380Y-78715768D01*
X124418516Y-78622331D01*
X124808462Y-78233064D01*
X125019760Y-77724202D01*
X125020241Y-77173215D01*
X124809832Y-76663985D01*
X124420565Y-76274039D01*
X124188131Y-76177524D01*
X124418516Y-76082331D01*
X124808462Y-75693064D01*
X125019760Y-75184202D01*
X125020241Y-74633215D01*
X124809832Y-74123985D01*
X124420565Y-73734039D01*
X124188131Y-73637524D01*
X124418516Y-73542331D01*
X124808462Y-73153064D01*
X125019760Y-72644202D01*
X125020241Y-72093215D01*
X124809832Y-71583985D01*
X124420565Y-71194039D01*
X124188131Y-71097524D01*
X124418516Y-71002331D01*
X124808462Y-70613064D01*
X125019760Y-70104202D01*
X125020241Y-69553215D01*
X124809832Y-69043985D01*
X124420565Y-68654039D01*
X124188131Y-68557524D01*
X124418516Y-68462331D01*
X124808462Y-68073064D01*
X125019760Y-67564202D01*
X125020241Y-67013215D01*
X124809832Y-66503985D01*
X124420565Y-66114039D01*
X124188131Y-66017524D01*
X124418516Y-65922331D01*
X124808462Y-65533064D01*
X125019760Y-65024202D01*
X125020241Y-64473215D01*
X124809832Y-63963985D01*
X124420565Y-63574039D01*
X124204022Y-63484123D01*
X124358924Y-63419960D01*
X124426913Y-63179017D01*
X123635001Y-62387105D01*
X122843089Y-63179017D01*
X122911078Y-63419960D01*
X123077622Y-63479232D01*
X122851486Y-63572669D01*
X122461540Y-63961936D01*
X122250242Y-64470798D01*
X122249761Y-65021785D01*
X117559321Y-65021785D01*
X114540207Y-62002671D01*
X122237800Y-62002671D01*
X122265771Y-62552948D01*
X122422541Y-62931423D01*
X122663484Y-62999412D01*
X123455396Y-62207500D01*
X123814606Y-62207500D01*
X124606518Y-62999412D01*
X124847461Y-62931423D01*
X125032202Y-62412329D01*
X125011379Y-62002671D01*
X167957800Y-62002671D01*
X167985771Y-62552948D01*
X168142541Y-62931423D01*
X168383484Y-62999412D01*
X169175396Y-62207500D01*
X169534606Y-62207500D01*
X170326518Y-62999412D01*
X170567461Y-62931423D01*
X170752202Y-62412329D01*
X170724231Y-61862052D01*
X170567461Y-61483577D01*
X170326518Y-61415588D01*
X169534606Y-62207500D01*
X169175396Y-62207500D01*
X168383484Y-61415588D01*
X168142541Y-61483577D01*
X167957800Y-62002671D01*
X125011379Y-62002671D01*
X125004231Y-61862052D01*
X124847461Y-61483577D01*
X124606518Y-61415588D01*
X123814606Y-62207500D01*
X123455396Y-62207500D01*
X122663484Y-61415588D01*
X122422541Y-61483577D01*
X122237800Y-62002671D01*
X114540207Y-62002671D01*
X112479321Y-59941785D01*
X122249761Y-59941785D01*
X122460170Y-60451015D01*
X122849437Y-60840961D01*
X123065980Y-60930877D01*
X122911078Y-60995040D01*
X122843089Y-61235983D01*
X123635001Y-62027895D01*
X124426913Y-61235983D01*
X124358924Y-60995040D01*
X124192380Y-60935768D01*
X124418516Y-60842331D01*
X124808462Y-60453064D01*
X125019760Y-59944202D01*
X125019762Y-59941785D01*
X167969761Y-59941785D01*
X168180170Y-60451015D01*
X168569437Y-60840961D01*
X168785980Y-60930877D01*
X168631078Y-60995040D01*
X168563089Y-61235983D01*
X169355001Y-62027895D01*
X170146913Y-61235983D01*
X170078924Y-60995040D01*
X169912380Y-60935768D01*
X170138516Y-60842331D01*
X170528462Y-60453064D01*
X170739760Y-59944202D01*
X170740241Y-59393215D01*
X170529832Y-58883985D01*
X170140565Y-58494039D01*
X169631703Y-58282741D01*
X169080716Y-58282260D01*
X168571486Y-58492669D01*
X168181540Y-58881936D01*
X167970242Y-59390798D01*
X167969761Y-59941785D01*
X125019762Y-59941785D01*
X125020241Y-59393215D01*
X124809832Y-58883985D01*
X124420565Y-58494039D01*
X123911703Y-58282741D01*
X123360716Y-58282260D01*
X122851486Y-58492669D01*
X122461540Y-58881936D01*
X122250242Y-59390798D01*
X122249761Y-59941785D01*
X112479321Y-59941785D01*
X107826035Y-55288500D01*
X107892704Y-54953333D01*
X107775859Y-54365914D01*
X107698211Y-54249704D01*
X194583964Y-54249704D01*
X194704622Y-54487444D01*
X196848000Y-54487444D01*
X196848000Y-53079444D01*
X197102000Y-53079444D01*
X197102000Y-54487444D01*
X199245378Y-54487444D01*
X199366036Y-54249704D01*
X199341756Y-54144358D01*
X199050212Y-53618838D01*
X198579752Y-53244890D01*
X198002000Y-53079444D01*
X197102000Y-53079444D01*
X196848000Y-53079444D01*
X195948000Y-53079444D01*
X195370248Y-53244890D01*
X194899788Y-53618838D01*
X194608244Y-54144358D01*
X194583964Y-54249704D01*
X107698211Y-54249704D01*
X107443113Y-53867924D01*
X106945123Y-53535178D01*
X106357704Y-53418333D01*
X104462296Y-53418333D01*
X103874877Y-53535178D01*
X103376887Y-53867924D01*
X103044141Y-54365914D01*
X102927296Y-54953333D01*
X94107000Y-54953333D01*
X94107000Y-50553333D01*
X102962560Y-50553333D01*
X102962560Y-52353333D01*
X103011843Y-52601098D01*
X103152191Y-52811142D01*
X103362235Y-52951490D01*
X103610000Y-53000773D01*
X107210000Y-53000773D01*
X107457765Y-52951490D01*
X107667809Y-52811142D01*
X107808157Y-52601098D01*
X107857440Y-52353333D01*
X107857440Y-50553333D01*
X107808157Y-50305568D01*
X107667809Y-50095524D01*
X107457765Y-49955176D01*
X107210000Y-49905893D01*
X103610000Y-49905893D01*
X103362235Y-49955176D01*
X103152191Y-50095524D01*
X103011843Y-50305568D01*
X102962560Y-50553333D01*
X94107000Y-50553333D01*
X94107000Y-46004187D01*
X181444752Y-46004187D01*
X181662757Y-46531800D01*
X182066077Y-46935824D01*
X182593309Y-47154750D01*
X183164187Y-47155248D01*
X183691800Y-46937243D01*
X184095824Y-46533923D01*
X184118215Y-46480000D01*
X189230000Y-46480000D01*
X189520839Y-46422148D01*
X189767401Y-46257401D01*
X193354802Y-42670000D01*
X194734941Y-42670000D01*
X194936235Y-42871645D01*
X195353244Y-43044803D01*
X195702560Y-43045108D01*
X195702560Y-43680000D01*
X195751843Y-43927765D01*
X195892191Y-44137809D01*
X196090000Y-44269982D01*
X196090000Y-49567004D01*
X195175000Y-49567004D01*
X194927235Y-49616287D01*
X194717191Y-49756635D01*
X194576843Y-49966679D01*
X194527560Y-50214444D01*
X194527560Y-52014444D01*
X194576843Y-52262209D01*
X194717191Y-52472253D01*
X194927235Y-52612601D01*
X195175000Y-52661884D01*
X198775000Y-52661884D01*
X199022765Y-52612601D01*
X199232809Y-52472253D01*
X199373157Y-52262209D01*
X199422440Y-52014444D01*
X199422440Y-50214444D01*
X199373157Y-49966679D01*
X199232809Y-49756635D01*
X199022765Y-49616287D01*
X198775000Y-49567004D01*
X197610000Y-49567004D01*
X197610000Y-44269982D01*
X197807809Y-44137809D01*
X197948157Y-43927765D01*
X197997440Y-43680000D01*
X197997440Y-42680000D01*
X197948157Y-42432235D01*
X197807809Y-42222191D01*
X197597765Y-42081843D01*
X197350000Y-42032560D01*
X196714894Y-42032560D01*
X196715119Y-41774883D01*
X197074775Y-41775197D01*
X197492086Y-41602767D01*
X197811645Y-41283765D01*
X197984803Y-40866756D01*
X197985197Y-40415225D01*
X197812767Y-39997914D01*
X197493765Y-39678355D01*
X197076756Y-39505197D01*
X196625225Y-39504803D01*
X196207914Y-39677233D01*
X195888355Y-39996235D01*
X195715197Y-40413244D01*
X195714881Y-40775117D01*
X195355225Y-40774803D01*
X194937914Y-40947233D01*
X194734793Y-41150000D01*
X193040000Y-41150000D01*
X192749161Y-41207852D01*
X192502599Y-41372599D01*
X188915198Y-44960000D01*
X184118646Y-44960000D01*
X184097243Y-44908200D01*
X183693923Y-44504176D01*
X183166691Y-44285250D01*
X182595813Y-44284752D01*
X182068200Y-44502757D01*
X181664176Y-44906077D01*
X181445250Y-45433309D01*
X181444752Y-46004187D01*
X94107000Y-46004187D01*
X94107000Y-45421517D01*
X99578088Y-45421517D01*
X99646077Y-45662460D01*
X100165171Y-45847201D01*
X100715448Y-45819230D01*
X101093923Y-45662460D01*
X101161912Y-45421517D01*
X100370000Y-44629605D01*
X99578088Y-45421517D01*
X94107000Y-45421517D01*
X94107000Y-44245171D01*
X98972799Y-44245171D01*
X99000770Y-44795448D01*
X99157540Y-45173923D01*
X99398483Y-45241912D01*
X100190395Y-44450000D01*
X100549605Y-44450000D01*
X101341517Y-45241912D01*
X101582460Y-45173923D01*
X101742482Y-44724285D01*
X103984760Y-44724285D01*
X104195169Y-45233515D01*
X104584436Y-45623461D01*
X105093298Y-45834759D01*
X105644285Y-45835240D01*
X106153515Y-45624831D01*
X106543461Y-45235564D01*
X106754759Y-44726702D01*
X106755240Y-44175715D01*
X106544831Y-43666485D01*
X106155564Y-43276539D01*
X105646702Y-43065241D01*
X105095715Y-43064760D01*
X104586485Y-43275169D01*
X104196539Y-43664436D01*
X103985241Y-44173298D01*
X103984760Y-44724285D01*
X101742482Y-44724285D01*
X101767201Y-44654829D01*
X101739230Y-44104552D01*
X101582460Y-43726077D01*
X101341517Y-43658088D01*
X100549605Y-44450000D01*
X100190395Y-44450000D01*
X99398483Y-43658088D01*
X99157540Y-43726077D01*
X98972799Y-44245171D01*
X94107000Y-44245171D01*
X94107000Y-43478483D01*
X99578088Y-43478483D01*
X100370000Y-44270395D01*
X101161912Y-43478483D01*
X101093923Y-43237540D01*
X100574829Y-43052799D01*
X100024552Y-43080770D01*
X99646077Y-43237540D01*
X99578088Y-43478483D01*
X94107000Y-43478483D01*
X94107000Y-41611517D01*
X182128088Y-41611517D01*
X182196077Y-41852460D01*
X182715171Y-42037201D01*
X183265448Y-42009230D01*
X183643923Y-41852460D01*
X183711912Y-41611517D01*
X182920000Y-40819605D01*
X182128088Y-41611517D01*
X94107000Y-41611517D01*
X94107000Y-40435171D01*
X181522799Y-40435171D01*
X181550770Y-40985448D01*
X181707540Y-41363923D01*
X181948483Y-41431912D01*
X182740395Y-40640000D01*
X183099605Y-40640000D01*
X183891517Y-41431912D01*
X184132460Y-41363923D01*
X184292482Y-40914285D01*
X186534760Y-40914285D01*
X186745169Y-41423515D01*
X187134436Y-41813461D01*
X187643298Y-42024759D01*
X188194285Y-42025240D01*
X188703515Y-41814831D01*
X189093461Y-41425564D01*
X189304759Y-40916702D01*
X189305240Y-40365715D01*
X189094831Y-39856485D01*
X188705564Y-39466539D01*
X188196702Y-39255241D01*
X187645715Y-39254760D01*
X187136485Y-39465169D01*
X186746539Y-39854436D01*
X186535241Y-40363298D01*
X186534760Y-40914285D01*
X184292482Y-40914285D01*
X184317201Y-40844829D01*
X184289230Y-40294552D01*
X184132460Y-39916077D01*
X183891517Y-39848088D01*
X183099605Y-40640000D01*
X182740395Y-40640000D01*
X181948483Y-39848088D01*
X181707540Y-39916077D01*
X181522799Y-40435171D01*
X94107000Y-40435171D01*
X94107000Y-39668483D01*
X182128088Y-39668483D01*
X182920000Y-40460395D01*
X183711912Y-39668483D01*
X183643923Y-39427540D01*
X183124829Y-39242799D01*
X182574552Y-39270770D01*
X182196077Y-39427540D01*
X182128088Y-39668483D01*
X94107000Y-39668483D01*
X94107000Y-30607000D01*
X205613000Y-30607000D01*
X205613000Y-151003000D01*
G36*
X168180170Y-75691015D02*
X168569437Y-76080961D01*
X168801871Y-76177476D01*
X168571486Y-76272669D01*
X168181540Y-76661936D01*
X168170925Y-76687500D01*
X167662500Y-76687500D01*
X167371661Y-76745352D01*
X167125099Y-76910099D01*
X159482599Y-84552599D01*
X159317852Y-84799161D01*
X159260000Y-85090000D01*
X159260000Y-134620000D01*
X159317852Y-134910839D01*
X159482599Y-135157401D01*
X160530000Y-136204802D01*
X160530000Y-138202560D01*
X160440000Y-138202560D01*
X160192235Y-138251843D01*
X159982191Y-138392191D01*
X159841843Y-138602235D01*
X159829403Y-138664777D01*
X159800054Y-138620853D01*
X159318285Y-138298946D01*
X158750000Y-138185907D01*
X158181715Y-138298946D01*
X157699946Y-138620853D01*
X157480000Y-138950026D01*
X157260054Y-138620853D01*
X156778285Y-138298946D01*
X156210000Y-138185907D01*
X155641715Y-138298946D01*
X155159946Y-138620853D01*
X154932298Y-138961553D01*
X154865183Y-138818642D01*
X154436924Y-138428355D01*
X154026890Y-138258524D01*
X153797000Y-138379845D01*
X153797000Y-139573000D01*
X153817000Y-139573000D01*
X153817000Y-139827000D01*
X153797000Y-139827000D01*
X153797000Y-139847000D01*
X153543000Y-139847000D01*
X153543000Y-139827000D01*
X153523000Y-139827000D01*
X153523000Y-139573000D01*
X153543000Y-139573000D01*
X153543000Y-138379845D01*
X153313110Y-138258524D01*
X152903076Y-138428355D01*
X152474817Y-138818642D01*
X152228514Y-139343108D01*
X152349180Y-139572998D01*
X152185000Y-139572998D01*
X152185000Y-139680198D01*
X151890000Y-139385198D01*
X151890000Y-138744802D01*
X155477401Y-135157401D01*
X155642148Y-134910839D01*
X155700000Y-134620000D01*
X155700000Y-129241517D01*
X156728088Y-129241517D01*
X156796077Y-129482460D01*
X157315171Y-129667201D01*
X157865448Y-129639230D01*
X158243923Y-129482460D01*
X158311912Y-129241517D01*
X157520000Y-128449605D01*
X156728088Y-129241517D01*
X155700000Y-129241517D01*
X155700000Y-128065171D01*
X156122799Y-128065171D01*
X156150770Y-128615448D01*
X156307540Y-128993923D01*
X156548483Y-129061912D01*
X157340395Y-128270000D01*
X157699605Y-128270000D01*
X158491517Y-129061912D01*
X158732460Y-128993923D01*
X158917201Y-128474829D01*
X158889230Y-127924552D01*
X158732460Y-127546077D01*
X158491517Y-127478088D01*
X157699605Y-128270000D01*
X157340395Y-128270000D01*
X156548483Y-127478088D01*
X156307540Y-127546077D01*
X156122799Y-128065171D01*
X155700000Y-128065171D01*
X155700000Y-127298483D01*
X156728088Y-127298483D01*
X157520000Y-128090395D01*
X158311912Y-127298483D01*
X158243923Y-127057540D01*
X157724829Y-126872799D01*
X157174552Y-126900770D01*
X156796077Y-127057540D01*
X156728088Y-127298483D01*
X155700000Y-127298483D01*
X155700000Y-81594802D01*
X161627302Y-75667500D01*
X168170454Y-75667500D01*
X168180170Y-75691015D01*
X168180170Y-75691015D01*
G37*
X168180170Y-75691015D02*
X168569437Y-76080961D01*
X168801871Y-76177476D01*
X168571486Y-76272669D01*
X168181540Y-76661936D01*
X168170925Y-76687500D01*
X167662500Y-76687500D01*
X167371661Y-76745352D01*
X167125099Y-76910099D01*
X159482599Y-84552599D01*
X159317852Y-84799161D01*
X159260000Y-85090000D01*
X159260000Y-134620000D01*
X159317852Y-134910839D01*
X159482599Y-135157401D01*
X160530000Y-136204802D01*
X160530000Y-138202560D01*
X160440000Y-138202560D01*
X160192235Y-138251843D01*
X159982191Y-138392191D01*
X159841843Y-138602235D01*
X159829403Y-138664777D01*
X159800054Y-138620853D01*
X159318285Y-138298946D01*
X158750000Y-138185907D01*
X158181715Y-138298946D01*
X157699946Y-138620853D01*
X157480000Y-138950026D01*
X157260054Y-138620853D01*
X156778285Y-138298946D01*
X156210000Y-138185907D01*
X155641715Y-138298946D01*
X155159946Y-138620853D01*
X154932298Y-138961553D01*
X154865183Y-138818642D01*
X154436924Y-138428355D01*
X154026890Y-138258524D01*
X153797000Y-138379845D01*
X153797000Y-139573000D01*
X153817000Y-139573000D01*
X153817000Y-139827000D01*
X153797000Y-139827000D01*
X153797000Y-139847000D01*
X153543000Y-139847000D01*
X153543000Y-139827000D01*
X153523000Y-139827000D01*
X153523000Y-139573000D01*
X153543000Y-139573000D01*
X153543000Y-138379845D01*
X153313110Y-138258524D01*
X152903076Y-138428355D01*
X152474817Y-138818642D01*
X152228514Y-139343108D01*
X152349180Y-139572998D01*
X152185000Y-139572998D01*
X152185000Y-139680198D01*
X151890000Y-139385198D01*
X151890000Y-138744802D01*
X155477401Y-135157401D01*
X155642148Y-134910839D01*
X155700000Y-134620000D01*
X155700000Y-129241517D01*
X156728088Y-129241517D01*
X156796077Y-129482460D01*
X157315171Y-129667201D01*
X157865448Y-129639230D01*
X158243923Y-129482460D01*
X158311912Y-129241517D01*
X157520000Y-128449605D01*
X156728088Y-129241517D01*
X155700000Y-129241517D01*
X155700000Y-128065171D01*
X156122799Y-128065171D01*
X156150770Y-128615448D01*
X156307540Y-128993923D01*
X156548483Y-129061912D01*
X157340395Y-128270000D01*
X157699605Y-128270000D01*
X158491517Y-129061912D01*
X158732460Y-128993923D01*
X158917201Y-128474829D01*
X158889230Y-127924552D01*
X158732460Y-127546077D01*
X158491517Y-127478088D01*
X157699605Y-128270000D01*
X157340395Y-128270000D01*
X156548483Y-127478088D01*
X156307540Y-127546077D01*
X156122799Y-128065171D01*
X155700000Y-128065171D01*
X155700000Y-127298483D01*
X156728088Y-127298483D01*
X157520000Y-128090395D01*
X158311912Y-127298483D01*
X158243923Y-127057540D01*
X157724829Y-126872799D01*
X157174552Y-126900770D01*
X156796077Y-127057540D01*
X156728088Y-127298483D01*
X155700000Y-127298483D01*
X155700000Y-81594802D01*
X161627302Y-75667500D01*
X168170454Y-75667500D01*
X168180170Y-75691015D01*
%TD*%
M02*
